han_Thin.ufo
<glyph name="uni4E36" format="2">
  <advance width="1000"/>
  <unicode hex="2F02"/>
  <unicode hex="4E36"/>
  <outline>
    <contour>
      <point x="694" y="194" type="line"/>
      <point x="582" y="339"/>
      <point x="442" y="491"/>
      <point x="294" y="620" type="curve"/>
      <point x="281" y="606" type="line"/>
      <point x="434" y="473"/>
      <point x="566" y="325"/>
      <point x="679" y="182" type="curve"/>
    </contour>
  </outline>
</glyph>
<glyph name="uni4E59" format="2">
  <advance width="1000"/>
  <unicode hex="2F04"/>
  <unicode hex="4E59"/>
  <outline>
    <contour>
      <point x="851" y="-20" type="line" smooth="yes"/>
      <point x="871" y="-20"/>
      <point x="879" y="-12"/>
      <point x="879" y="8" type="curve" smooth="yes"/>
      <point x="879" y="270" type="line"/>
      <point x="859" y="275" type="line"/>
      <point x="859" y="-2" type="line"/>
      <point x="280" y="-2" type="line" smooth="yes"/>
      <point x="192" y="-2"/>
      <point x="148" y="23"/>
      <point x="148" y="92" type="curve" smooth="yes"/>
      <point x="148" y="207"/>
      <point x="382" y="422"/>
      <point x="846" y="742" type="curve"/>
      <point x="846" y="760" type="line"/>
      <point x="130" y="760" type="line"/>
      <point x="130" y="742" type="line"/>
      <point x="826" y="742" type="line"/>
      <point x="827" y="751" type="line"/>
      <point x="370" y="437"/>
      <point x="128" y="218"/>
      <point x="128" y="92" type="curve" smooth="yes"/>
      <point x="128" y="14"/>
      <point x="179" y="-20"/>
      <point x="277" y="-20" type="curve" smooth="yes"/>
    </contour>
  </outline>
</glyph>
<glyph name="uni4EA0" format="2">
  <advance width="1000"/>
  <unicode hex="2F07"/>
  <unicode hex="4EA0"/>
  <outline>
    <contour>
      <point x="953" y="350" type="line"/>
      <point x="953" y="368" type="line"/>
      <point x="47" y="368" type="line"/>
      <point x="47" y="350" type="line"/>
    </contour>
    <contour>
      <point x="556" y="419" type="line"/>
      <point x="521" y="479"/>
      <point x="484" y="537"/>
      <point x="444" y="597" type="curve"/>
      <point x="428" y="586" type="line"/>
      <point x="467" y="528"/>
      <point x="505" y="469"/>
      <point x="539" y="410" type="curve"/>
    </contour>
  </outline>
</glyph>
<glyph name="uni4EBA" format="2">
  <advance width="1000"/>
  <unicode hex="2F08"/>
  <unicode hex="4EBA"/>
  <outline>
    <contour>
      <point x="78" y="-53" type="line"/>
      <point x="378" y="123"/>
      <point x="478" y="297"/>
      <point x="490" y="455" type="curve"/>
      <point x="494" y="455" type="line"/>
      <point x="509" y="297"/>
      <point x="622" y="123"/>
      <point x="922" y="-50" type="curve"/>
      <point x="933" y="-33" type="line"/>
      <point x="626" y="148"/>
      <point x="502" y="311"/>
      <point x="502" y="543" type="curve" smooth="yes"/>
      <point x="502" y="819" type="line"/>
      <point x="482" y="819" type="line"/>
      <point x="482" y="543" type="line" smooth="yes"/>
      <point x="482" y="311"/>
      <point x="374" y="148"/>
      <point x="67" y="-36" type="curve"/>
    </contour>
  </outline>
</glyph>
<glyph name="uni513F" format="2">
  <advance width="1000"/>
  <unicode hex="2F09"/>
  <unicode hex="513F"/>
  <outline>
    <contour>
      <point x="74" y="-54" type="line"/>
      <point x="247" y="104"/>
      <point x="316" y="248"/>
      <point x="316" y="503" type="curve" smooth="yes"/>
      <point x="316" y="810" type="line"/>
      <point x="296" y="810" type="line"/>
      <point x="296" y="503" type="line" smooth="yes"/>
      <point x="296" y="244"/>
      <point x="221" y="106"/>
      <point x="60" y="-39" type="curve"/>
    </contour>
    <contour>
      <point x="897" y="-30" type="line" smooth="yes"/>
      <point x="917" y="-30"/>
      <point x="925" y="-22"/>
      <point x="925" y="-2" type="curve" smooth="yes"/>
      <point x="925" y="232" type="line"/>
      <point x="905" y="237" type="line"/>
      <point x="905" y="-12" type="line"/>
      <point x="750" y="-12" type="line" smooth="yes"/>
      <point x="685" y="-12"/>
      <point x="666" y="3"/>
      <point x="666" y="68" type="curve" smooth="yes"/>
      <point x="666" y="810" type="line"/>
      <point x="646" y="810" type="line"/>
      <point x="646" y="70" type="line" smooth="yes"/>
      <point x="646" y="-8"/>
      <point x="672" y="-30"/>
      <point x="750" y="-30" type="curve" smooth="yes"/>
    </contour>
  </outline>
</glyph>
<glyph name="uni516B" format="2">
  <advance width="1000"/>
  <unicode hex="2F0B"/>
  <unicode hex="516B"/>
  <outline>
    <contour>
      <point x="940" y="-30" type="line"/>
      <point x="743" y="183"/>
      <point x="671" y="375"/>
      <point x="660" y="806" type="curve"/>
      <point x="640" y="804" type="line"/>
      <point x="652" y="363"/>
      <point x="729" y="171"/>
      <point x="927" y="-45" type="curve"/>
    </contour>
    <contour>
      <point x="75" y="-45" type="line"/>
      <point x="251" y="152"/>
      <point x="329" y="344"/>
      <point x="339" y="788" type="curve"/>
      <point x="319" y="790" type="line"/>
      <point x="311" y="357"/>
      <point x="236" y="164"/>
      <point x="61" y="-32" type="curve"/>
    </contour>
  </outline>
</glyph>
<glyph name="uni5196" format="2">
  <advance width="1000"/>
  <unicode hex="2F0D"/>
  <unicode hex="5196"/>
  <outline>
    <contour>
      <point x="121" y="260" type="line"/>
      <point x="121" y="465" type="line"/>
      <point x="879" y="465" type="line"/>
      <point x="879" y="260" type="line"/>
      <point x="899" y="260" type="line"/>
      <point x="899" y="483" type="line"/>
      <point x="101" y="483" type="line"/>
      <point x="101" y="260" type="line"/>
    </contour>
  </outline>
</glyph>
<glyph name="uni51E0" format="2">
  <advance width="1000"/>
  <unicode hex="2F0F"/>
  <unicode hex="51E0"/>
  <outline>
    <contour>
      <point x="779" y="-12" type="line" smooth="yes"/>
      <point x="714" y="-12"/>
      <point x="695" y="3"/>
      <point x="695" y="68" type="curve" smooth="yes"/>
      <point x="695" y="780" type="line"/>
      <point x="258" y="780" type="line"/>
      <point x="258" y="492" type="line" smooth="yes"/>
      <point x="258" y="230"/>
      <point x="198" y="96"/>
      <point x="64" y="-46" type="curve"/>
      <point x="79" y="-60" type="line"/>
      <point x="221" y="95"/>
      <point x="278" y="232"/>
      <point x="278" y="492" type="curve" smooth="yes"/>
      <point x="278" y="762" type="line"/>
      <point x="675" y="762" type="line"/>
      <point x="675" y="70" type="line" smooth="yes"/>
      <point x="675" y="-8"/>
      <point x="701" y="-30"/>
      <point x="779" y="-30" type="curve" smooth="yes"/>
      <point x="894" y="-30" type="line" smooth="yes"/>
      <point x="919" y="-30"/>
      <point x="925" y="-25"/>
      <point x="925" y="-5" type="curve" smooth="yes"/>
      <point x="925" y="249" type="line"/>
      <point x="905" y="254" type="line"/>
      <point x="905" y="-12" type="line"/>
    </contour>
  </outline>
</glyph>
<glyph name="uni51F5" format="2">
  <advance width="1000"/>
  <unicode hex="2F10"/>
  <unicode hex="51F5"/>
  <outline>
    <contour>
      <point x="870" y="780" type="line"/>
      <point x="870" y="29" type="line"/>
      <point x="130" y="29" type="line"/>
      <point x="130" y="780" type="line"/>
      <point x="110" y="780" type="line"/>
      <point x="110" y="-63" type="line"/>
      <point x="130" y="-63" type="line"/>
      <point x="130" y="11" type="line"/>
      <point x="870" y="11" type="line"/>
      <point x="870" y="-63" type="line"/>
      <point x="890" y="-63" type="line"/>
      <point x="890" y="780" type="line"/>
    </contour>
  </outline>
</glyph>
<glyph name="uni5200" format="2">
  <advance width="1000"/>
  <unicode hex="2F11"/>
  <unicode hex="5200"/>
  <outline>
    <contour>
      <point x="603" y="-25" type="line" smooth="yes"/>
      <point x="744" y="-25"/>
      <point x="802" y="8"/>
      <point x="827" y="131" type="curve" smooth="yes"/>
      <point x="856" y="272"/>
      <point x="865" y="496"/>
      <point x="865" y="660" type="curve" smooth="yes"/>
      <point x="865" y="755" type="line"/>
      <point x="103" y="755" type="line"/>
      <point x="103" y="737" type="line"/>
      <point x="845" y="737" type="line"/>
      <point x="845" y="664" type="line" smooth="yes"/>
      <point x="845" y="499"/>
      <point x="838" y="281"/>
      <point x="807" y="135" type="curve" smooth="yes"/>
      <point x="784" y="27"/>
      <point x="741" y="-7"/>
      <point x="595" y="-7" type="curve" smooth="yes"/>
      <point x="465" y="-7" type="line"/>
      <point x="470" y="-25" type="line"/>
    </contour>
    <contour>
      <point x="89" y="-35" type="line"/>
      <point x="336" y="136"/>
      <point x="437" y="306"/>
      <point x="437" y="642" type="curve" smooth="yes"/>
      <point x="437" y="744" type="line"/>
      <point x="417" y="744" type="line"/>
      <point x="417" y="643" type="line" smooth="yes"/>
      <point x="417" y="315"/>
      <point x="321" y="147"/>
      <point x="77" y="-19" type="curve"/>
    </contour>
  </outline>
</glyph>
<glyph name="uni529B" format="2">
  <advance width="1000"/>
  <unicode hex="2F12"/>
  <unicode hex="529B"/>
  <outline>
    <contour>
      <point x="639" y="-20" type="line" smooth="yes"/>
      <point x="738" y="-20"/>
      <point x="801" y="-6"/>
      <point x="829" y="101" type="curve" smooth="yes"/>
      <point x="860" y="221"/>
      <point x="865" y="405"/>
      <point x="865" y="551" type="curve" smooth="yes"/>
      <point x="865" y="616" type="line"/>
      <point x="92" y="616" type="line"/>
      <point x="92" y="596" type="line"/>
      <point x="845" y="596" type="line"/>
      <point x="845" y="556" type="line" smooth="yes"/>
      <point x="845" y="405"/>
      <point x="841" y="227"/>
      <point x="809" y="105" type="curve" smooth="yes"/>
      <point x="788" y="26"/>
      <point x="753" y="-2"/>
      <point x="632" y="-2" type="curve" smooth="yes"/>
      <point x="489" y="-2" type="line"/>
      <point x="493" y="-20" type="line"/>
    </contour>
    <contour>
      <point x="76" y="-53" type="line"/>
      <point x="378" y="106"/>
      <point x="456" y="327"/>
      <point x="456" y="656" type="curve" smooth="yes"/>
      <point x="456" y="830" type="line"/>
      <point x="436" y="830" type="line"/>
      <point x="436" y="661" type="line" smooth="yes"/>
      <point x="436" y="344"/>
      <point x="367" y="121"/>
      <point x="66" y="-36" type="curve"/>
    </contour>
  </outline>
</glyph>
<glyph name="uni52F9" format="2">
  <advance width="1000"/>
  <unicode hex="2F13"/>
  <unicode hex="52F9"/>
  <outline>
    <contour>
      <point x="664" y="-38" type="line" smooth="yes"/>
      <point x="764" y="-38"/>
      <point x="801" y="-8"/>
      <point x="823" y="66" type="curve" smooth="yes"/>
      <point x="852" y="165"/>
      <point x="869" y="388"/>
      <point x="869" y="662" type="curve" smooth="yes"/>
      <point x="869" y="689" type="line"/>
      <point x="271" y="689" type="line"/>
      <point x="271" y="671" type="line"/>
      <point x="864" y="671" type="line"/>
      <point x="849" y="679" type="line"/>
      <point x="849" y="396"/>
      <point x="833" y="174"/>
      <point x="804" y="72" type="curve" smooth="yes"/>
      <point x="785" y="6"/>
      <point x="754" y="-20"/>
      <point x="658" y="-20" type="curve" smooth="yes"/>
      <point x="519" y="-20" type="line"/>
      <point x="523" y="-38" type="line"/>
    </contour>
    <contour>
      <point x="71" y="399" type="line"/>
      <point x="204" y="519"/>
      <point x="292" y="673"/>
      <point x="339" y="836" type="curve"/>
      <point x="319" y="840" type="line"/>
      <point x="274" y="680"/>
      <point x="186" y="529"/>
      <point x="59" y="416" type="curve"/>
    </contour>
  </outline>
</glyph>
<glyph name="uni531A" format="2">
  <advance width="1000"/>
  <unicode hex="2F15"/>
  <unicode hex="531A"/>
  <outline>
    <contour>
      <point x="914" y="13" type="line"/>
      <point x="914" y="31" type="line"/>
      <point x="153" y="31" type="line"/>
      <point x="153" y="739" type="line"/>
      <point x="909" y="739" type="line"/>
      <point x="909" y="757" type="line"/>
      <point x="133" y="757" type="line"/>
      <point x="133" y="13" type="line"/>
    </contour>
  </outline>
</glyph>
<glyph name="uni5341" format="2">
  <advance width="1000"/>
  <unicode hex="2F17"/>
  <unicode hex="5341"/>
  <outline>
    <contour>
      <point x="503" y="-55" type="line"/>
      <point x="503" y="815" type="line"/>
      <point x="483" y="815" type="line"/>
      <point x="483" y="-55" type="line"/>
    </contour>
    <contour>
      <point x="940" y="421" type="line"/>
      <point x="940" y="439" type="line"/>
      <point x="60" y="439" type="line"/>
      <point x="60" y="421" type="line"/>
    </contour>
  </outline>
</glyph>
<glyph name="uni5369" format="2">
  <advance width="1000"/>
  <unicode hex="2F19"/>
  <unicode hex="5369"/>
  <outline>
    <contour>
      <point x="286" y="-60" type="line"/>
      <point x="286" y="752" type="line"/>
      <point x="715" y="752" type="line"/>
      <point x="715" y="153" type="line"/>
      <point x="460" y="153" type="line"/>
      <point x="465" y="135" type="line"/>
      <point x="707" y="135" type="line" smooth="yes"/>
      <point x="727" y="135"/>
      <point x="735" y="143"/>
      <point x="735" y="163" type="curve" smooth="yes"/>
      <point x="735" y="770" type="line"/>
      <point x="266" y="770" type="line"/>
      <point x="266" y="-60" type="line"/>
    </contour>
  </outline>
</glyph>
<glyph name="uni53B6" format="2">
  <advance width="1000"/>
  <unicode hex="2F1B"/>
  <unicode hex="53B6"/>
  <note>
测试效果
</note>
  <outline>
    <contour>
      <point x="126" y="41" type="line"/>
      <point x="221" y="113"/>
      <point x="388" y="450"/>
      <point x="485" y="816" type="curve"/>
      <point x="466" y="822" type="line"/>
      <point x="371" y="460"/>
      <point x="198" y="109"/>
      <point x="102" y="37" type="curve"/>
      <point x="127" y="32" type="line"/>
    </contour>
    <contour>
      <point x="104" y="20" type="line"/>
      <point x="353" y="40"/>
      <point x="664" y="70"/>
      <point x="852" y="97" type="curve"/>
      <point x="848" y="116" type="line"/>
      <point x="659" y="89"/>
      <point x="346" y="57"/>
      <point x="102" y="37" type="curve"/>
    </contour>
    <contour>
      <point x="937" y="-40" type="line"/>
      <point x="875" y="98"/>
      <point x="734" y="358"/>
      <point x="655" y="466" type="curve"/>
      <point x="639" y="456" type="line"/>
      <point x="716" y="351"/>
      <point x="858" y="89"/>
      <point x="920" y="-50" type="curve"/>
    </contour>
  </outline>
</glyph>
<glyph name="uni53C8" format="2">
  <advance width="1000"/>
  <unicode hex="2F1C"/>
  <unicode hex="53C8"/>
  <outline>
    <contour>
      <point x="69" y="-35" type="line"/>
      <point x="494" y="119"/>
      <point x="728" y="374"/>
      <point x="826" y="739" type="curve"/>
      <point x="826" y="755" type="line"/>
      <point x="95" y="755" type="line"/>
      <point x="95" y="737" type="line"/>
      <point x="821" y="737" type="line"/>
      <point x="809" y="745" type="line"/>
      <point x="708" y="384"/>
      <point x="485" y="137"/>
      <point x="60" y="-17" type="curve"/>
    </contour>
    <contour>
      <point x="940" y="-16" type="line"/>
      <point x="547" y="119"/>
      <point x="347" y="328"/>
      <point x="233" y="667" type="curve"/>
      <point x="215" y="662" type="line"/>
      <point x="328" y="319"/>
      <point x="538" y="98"/>
      <point x="934" y="-35" type="curve"/>
    </contour>
  </outline>
</glyph>
<glyph name="uni53E3" format="2">
  <advance width="1000"/>
  <unicode hex="2F1D"/>
  <unicode hex="53E3"/>
  <outline>
    <contour>
      <point x="160" y="-42" type="line"/>
      <point x="160" y="50" type="line"/>
      <point x="840" y="50" type="line"/>
      <point x="840" y="-42" type="line"/>
      <point x="860" y="-42" type="line"/>
      <point x="860" y="727" type="line"/>
      <point x="140" y="727" type="line"/>
      <point x="140" y="-42" type="line"/>
    </contour>
    <contour>
      <point x="160" y="709" type="line"/>
      <point x="840" y="709" type="line"/>
      <point x="840" y="68" type="line"/>
      <point x="160" y="68" type="line"/>
    </contour>
  </outline>
</glyph>
<glyph name="uni58EB" format="2">
  <advance width="1000"/>
  <unicode hex="2F20"/>
  <unicode hex="58EB"/>
  <outline>
    <contour>
      <point x="940" y="461" type="line"/>
      <point x="940" y="479" type="line"/>
      <point x="60" y="479" type="line"/>
      <point x="60" y="461" type="line"/>
    </contour>
    <contour>
      <point x="896" y="-4" type="line"/>
      <point x="896" y="14" type="line"/>
      <point x="105" y="14" type="line"/>
      <point x="105" y="-4" type="line"/>
    </contour>
    <contour>
      <point x="503" y="6" type="line"/>
      <point x="503" y="820" type="line"/>
      <point x="483" y="820" type="line"/>
      <point x="483" y="6" type="line"/>
    </contour>
  </outline>
</glyph>
<glyph name="uni5973" format="2">
  <advance width="1000"/>
  <unicode hex="2F25"/>
  <unicode hex="5973"/>
  <outline>
    <contour>
      <point x="950" y="565" type="line"/>
      <point x="950" y="583" type="line"/>
      <point x="50" y="583" type="line"/>
      <point x="50" y="565" type="line"/>
    </contour>
    <contour>
      <point x="740" y="577" type="line"/>
      <point x="685" y="222"/>
      <point x="486" y="56"/>
      <point x="65" y="-28" type="curve"/>
      <point x="70" y="-47" type="line"/>
      <point x="494" y="40"/>
      <point x="700" y="203"/>
      <point x="760" y="574" type="curve"/>
    </contour>
    <contour>
      <point x="215" y="310" type="line"/>
      <point x="325" y="461"/>
      <point x="409" y="650"/>
      <point x="463" y="819" type="curve"/>
      <point x="444" y="824" type="line"/>
      <point x="392" y="653"/>
      <point x="298" y="454"/>
      <point x="193" y="311" type="curve"/>
    </contour>
    <contour>
      <point x="193" y="311" type="line"/>
      <point x="447" y="216"/>
      <point x="693" y="85"/>
      <point x="903" y="-49" type="curve"/>
      <point x="915" y="-33" type="line"/>
      <point x="700" y="103"/>
      <point x="457" y="232"/>
      <point x="218" y="322" type="curve"/>
    </contour>
  </outline>
</glyph>
<glyph name="uni5B80" format="2">
  <advance width="1000"/>
  <unicode hex="2F27"/>
  <unicode hex="5B80"/>
  <outline>
    <contour>
      <point x="111" y="416" type="line"/>
      <point x="111" y="611" type="line"/>
      <point x="889" y="611" type="line"/>
      <point x="889" y="416" type="line"/>
      <point x="909" y="416" type="line"/>
      <point x="909" y="629" type="line"/>
      <point x="91" y="629" type="line"/>
      <point x="91" y="416" type="line"/>
    </contour>
    <contour>
      <point x="541" y="671" type="line"/>
      <point x="515" y="720"/>
      <point x="484" y="771"/>
      <point x="452" y="818" type="curve"/>
      <point x="436" y="808" type="line"/>
      <point x="468" y="761"/>
      <point x="499" y="710"/>
      <point x="525" y="661" type="curve"/>
    </contour>
  </outline>
</glyph>
<glyph name="uni5BF8" format="2">
  <advance width="1000"/>
  <unicode hex="2F28"/>
  <unicode hex="5BF8"/>
  <outline>
    <contour>
      <point x="447" y="187" type="line"/>
      <point x="397" y="266"/>
      <point x="301" y="385"/>
      <point x="235" y="456" type="curve"/>
      <point x="221" y="443" type="line"/>
      <point x="287" y="373"/>
      <point x="378" y="259"/>
      <point x="432" y="175" type="curve"/>
    </contour>
    <contour>
      <point x="940" y="618" type="line"/>
      <point x="60" y="618" type="line"/>
      <point x="60" y="600" type="line"/>
      <point x="940" y="600" type="line"/>
    </contour>
    <contour>
      <point x="648" y="-36" type="line" smooth="yes"/>
      <point x="668" y="-36"/>
      <point x="676" y="-28"/>
      <point x="676" y="-8" type="curve" smooth="yes"/>
      <point x="676" y="830" type="line"/>
      <point x="656" y="830" type="line"/>
      <point x="656" y="-18" type="line"/>
      <point x="375" y="-18" type="line"/>
      <point x="380" y="-36" type="line"/>
    </contour>
  </outline>
</glyph>
<glyph name="uni5C0F" format="2">
  <advance width="1000"/>
  <unicode hex="2F29"/>
  <unicode hex="5C0F"/>
  <outline>
    <contour>
      <point x="497" y="-33" type="line" smooth="yes"/>
      <point x="517" y="-33"/>
      <point x="525" y="-25"/>
      <point x="525" y="-5" type="curve" smooth="yes"/>
      <point x="525" y="830" type="line"/>
      <point x="505" y="830" type="line"/>
      <point x="505" y="-15" type="line"/>
      <point x="271" y="-15" type="line"/>
      <point x="276" y="-33" type="line"/>
    </contour>
    <contour>
      <point x="70" y="147" type="line"/>
      <point x="175" y="278"/>
      <point x="255" y="463"/>
      <point x="292" y="628" type="curve"/>
      <point x="273" y="631" type="line"/>
      <point x="238" y="471"/>
      <point x="159" y="288"/>
      <point x="55" y="159" type="curve"/>
    </contour>
    <contour>
      <point x="945" y="153" type="line"/>
      <point x="895" y="313"/>
      <point x="806" y="518"/>
      <point x="740" y="636" type="curve"/>
      <point x="722" y="628" type="line"/>
      <point x="789" y="511"/>
      <point x="880" y="301"/>
      <point x="928" y="144" type="curve"/>
    </contour>
  </outline>
</glyph>
<glyph name="uni5C38" format="2">
  <advance width="1000"/>
  <unicode hex="2F2B"/>
  <unicode hex="5C38"/>
  <outline>
    <contour>
      <point x="69" y="-62" type="line"/>
      <point x="158" y="78"/>
      <point x="188" y="224"/>
      <point x="188" y="460" type="curve" smooth="yes"/>
      <point x="188" y="473" type="line"/>
      <point x="854" y="473" type="line"/>
      <point x="854" y="386" type="line"/>
      <point x="874" y="386" type="line"/>
      <point x="874" y="780" type="line"/>
      <point x="168" y="780" type="line"/>
      <point x="168" y="460" type="line" smooth="yes"/>
      <point x="168" y="226"/>
      <point x="138" y="82"/>
      <point x="55" y="-48" type="curve"/>
    </contour>
    <contour>
      <point x="188" y="762" type="line"/>
      <point x="854" y="762" type="line"/>
      <point x="854" y="491" type="line"/>
      <point x="188" y="491" type="line"/>
    </contour>
  </outline>
</glyph>
<glyph name="uni5C71" format="2">
  <advance width="1000"/>
  <unicode hex="2F2D"/>
  <unicode hex="5C71"/>
  <outline>
    <contour>
      <point x="141" y="-55" type="line"/>
      <point x="141" y="35" type="line"/>
      <point x="860" y="35" type="line"/>
      <point x="860" y="-55" type="line"/>
      <point x="880" y="-55" type="line"/>
      <point x="880" y="645" type="line"/>
      <point x="860" y="645" type="line"/>
      <point x="860" y="53" type="line"/>
      <point x="141" y="53" type="line"/>
      <point x="141" y="645" type="line"/>
      <point x="121" y="645" type="line"/>
      <point x="121" y="-55" type="line"/>
    </contour>
    <contour>
      <point x="503" y="49" type="line"/>
      <point x="503" y="815" type="line"/>
      <point x="483" y="815" type="line"/>
      <point x="483" y="49" type="line"/>
    </contour>
  </outline>
</glyph>
<glyph name="uni5E7A" format="2">
  <advance width="1000"/>
  <unicode hex="2F33"/>
  <unicode hex="5E7A"/>
  <outline>
    <contour>
      <point x="681" y="326" type="line"/>
      <point x="778" y="200"/>
      <point x="862" y="74"/>
      <point x="937" y="-66" type="curve"/>
      <point x="953" y="-54" type="line"/>
      <point x="878" y="82"/>
      <point x="794" y="212"/>
      <point x="697" y="337" type="curve"/>
    </contour>
    <contour>
      <point x="130" y="-13" type="line"/>
      <point x="367" y="134"/>
      <point x="591" y="365"/>
      <point x="788" y="620" type="curve"/>
      <point x="773" y="632" type="line"/>
      <point x="578" y="377"/>
      <point x="347" y="140"/>
      <point x="108" y="-6" type="curve"/>
    </contour>
    <contour>
      <point x="872" y="85" type="line"/>
      <point x="645" y="55"/>
      <point x="388" y="24"/>
      <point x="108" y="-6" type="curve"/>
      <point x="114" y="-23" type="line"/>
      <point x="395" y="6"/>
      <point x="643" y="36"/>
      <point x="876" y="67" type="curve"/>
    </contour>
    <contour>
      <point x="127" y="394" type="line"/>
      <point x="266" y="494"/>
      <point x="414" y="681"/>
      <point x="499" y="826" type="curve"/>
      <point x="481" y="835" type="line"/>
      <point x="396" y="691"/>
      <point x="250" y="505"/>
      <point x="114" y="407" type="curve"/>
    </contour>
    <contour>
      <point x="619" y="438" type="line"/>
      <point x="475" y="428"/>
      <point x="296" y="417"/>
      <point x="114" y="407" type="curve"/>
      <point x="118" y="390" type="line"/>
      <point x="300" y="399"/>
      <point x="469" y="410"/>
      <point x="621" y="420" type="curve"/>
    </contour>
  </outline>
</glyph>
<glyph name="uni5F0B" format="2">
  <advance width="1000"/>
  <unicode hex="2F37"/>
  <unicode hex="5F0B"/>
  <outline>
    <contour>
      <point x="911" y="582" type="line"/>
      <point x="67" y="449" type="line"/>
      <point x="72" y="430" type="line"/>
      <point x="914" y="563" type="line"/>
    </contour>
    <contour>
      <point x="783" y="660" type="line"/>
      <point x="722" y="707"/>
      <point x="624" y="767"/>
      <point x="557" y="800" type="curve"/>
      <point x="546" y="784" type="line"/>
      <point x="611" y="752"/>
      <point x="708" y="694"/>
      <point x="771" y="645" type="curve"/>
    </contour>
    <contour>
      <point x="864" y="-35" type="curve" smooth="yes"/>
      <point x="880" y="-41"/>
      <point x="889" y="-38"/>
      <point x="893" y="-18" type="curve" smooth="yes"/>
      <point x="938" y="218" type="line"/>
      <point x="919" y="223" type="line"/>
      <point x="874" y="-18" type="line"/>
      <point x="589" y="90"/>
      <point x="406" y="435"/>
      <point x="406" y="777" type="curve" smooth="yes"/>
      <point x="406" y="824" type="line"/>
      <point x="386" y="824" type="line"/>
      <point x="386" y="776" type="line" smooth="yes"/>
      <point x="386" y="421"/>
      <point x="579" y="75"/>
    </contour>
  </outline>
</glyph>
<glyph name="uni5F13" format="2">
  <advance width="1000"/>
  <unicode hex="2F38"/>
  <unicode hex="5F13"/>
  <outline>
    <contour>
      <point x="134" y="276" type="line"/>
      <point x="159" y="368"/>
      <point x="176" y="459"/>
      <point x="187" y="531" type="curve"/>
      <point x="177" y="521" type="line"/>
      <point x="845" y="521" type="line"/>
      <point x="845" y="774" type="line"/>
      <point x="105" y="774" type="line"/>
      <point x="105" y="756" type="line"/>
      <point x="825" y="756" type="line"/>
      <point x="825" y="539" type="line"/>
      <point x="168" y="539" type="line"/>
      <point x="159" y="465"/>
      <point x="140" y="373"/>
      <point x="114" y="276" type="curve"/>
    </contour>
    <contour>
      <point x="693" y="-25" type="line" smooth="yes"/>
      <point x="808" y="-25"/>
      <point x="844" y="2"/>
      <point x="864" y="86" type="curve" smooth="yes"/>
      <point x="875" y="132"/>
      <point x="885" y="199"/>
      <point x="891" y="294" type="curve"/>
      <point x="126" y="294" type="line"/>
      <point x="126" y="276" type="line"/>
      <point x="871" y="276" type="line"/>
      <point x="865" y="204"/>
      <point x="859" y="146"/>
      <point x="845" y="88" type="curve" smooth="yes"/>
      <point x="829" y="21"/>
      <point x="802" y="-7"/>
      <point x="695" y="-7" type="curve" smooth="yes"/>
      <point x="482" y="-7" type="line"/>
      <point x="487" y="-25" type="line"/>
    </contour>
  </outline>
</glyph>
<glyph name="uni5F61" format="2">
  <advance width="1000"/>
  <unicode hex="2F3A"/>
  <unicode hex="5F61"/>
  <outline>
    <contour>
      <point x="127" y="-32" type="line"/>
      <point x="394" y="11"/>
      <point x="709" y="139"/>
      <point x="886" y="321" type="curve"/>
      <point x="871" y="333" type="line"/>
      <point x="693" y="155"/>
      <point x="393" y="30"/>
      <point x="121" y="-14" type="curve"/>
    </contour>
    <contour>
      <point x="147" y="274" type="line"/>
      <point x="396" y="320"/>
      <point x="650" y="431"/>
      <point x="803" y="578" type="curve"/>
      <point x="790" y="591" type="line"/>
      <point x="640" y="451"/>
      <point x="397" y="337"/>
      <point x="141" y="292" type="curve"/>
    </contour>
    <contour>
      <point x="143" y="543" type="line"/>
      <point x="377" y="588"/>
      <point x="600" y="687"/>
      <point x="739" y="810" type="curve"/>
      <point x="726" y="824" type="line"/>
      <point x="586" y="700"/>
      <point x="372" y="607"/>
      <point x="136" y="561" type="curve"/>
    </contour>
  </outline>
</glyph>
<glyph name="uni5F73" format="2">
  <advance width="1000"/>
  <unicode hex="2F3B"/>
  <unicode hex="5F73"/>
  <outline>
    <contour>
      <point x="524" y="-70" type="line"/>
      <point x="524" y="394" type="line"/>
      <point x="504" y="394" type="line"/>
      <point x="504" y="-70" type="line"/>
    </contour>
    <contour>
      <point x="789" y="605" type="line"/>
      <point x="671" y="484"/>
      <point x="363" y="308"/>
      <point x="149" y="256" type="curve"/>
      <point x="155" y="238" type="line"/>
      <point x="367" y="293"/>
      <point x="666" y="455"/>
      <point x="804" y="592" type="curve"/>
    </contour>
    <contour>
      <point x="178" y="504" type="line"/>
      <point x="384" y="560"/>
      <point x="587" y="667"/>
      <point x="725" y="804" type="curve"/>
      <point x="710" y="817" type="line"/>
      <point x="592" y="696"/>
      <point x="380" y="575"/>
      <point x="172" y="522" type="curve"/>
    </contour>
  </outline>
</glyph>
<glyph name="uni5FC3" format="2">
  <advance width="1000"/>
  <unicode hex="2F3C"/>
  <unicode hex="5FC3"/>
  <outline>
    <contour>
      <point x="699" y="637" type="line"/>
      <point x="599" y="696"/>
      <point x="443" y="773"/>
      <point x="305" y="812" type="curve"/>
      <point x="297" y="795" type="line"/>
      <point x="427" y="758"/>
      <point x="589" y="680"/>
      <point x="690" y="620" type="curve"/>
    </contour>
    <contour>
      <point x="77" y="64" type="line"/>
      <point x="139" y="197"/>
      <point x="187" y="381"/>
      <point x="196" y="529" type="curve"/>
      <point x="177" y="530" type="line"/>
      <point x="168" y="389"/>
      <point x="120" y="195"/>
      <point x="59" y="73" type="curve"/>
    </contour>
    <contour>
      <point x="941" y="103" type="line"/>
      <point x="907" y="247"/>
      <point x="850" y="418"/>
      <point x="791" y="537" type="curve"/>
      <point x="774" y="529" type="line"/>
      <point x="832" y="415"/>
      <point x="891" y="233"/>
      <point x="922" y="98" type="curve"/>
    </contour>
    <contour>
      <point x="696" y="-40" type="line" smooth="yes"/>
      <point x="716" y="-40"/>
      <point x="724" y="-32"/>
      <point x="724" y="-12" type="curve" smooth="yes"/>
      <point x="724" y="279" type="line"/>
      <point x="704" y="285" type="line"/>
      <point x="704" y="-22" type="line"/>
      <point x="466" y="-22" type="line" smooth="yes"/>
      <point x="388" y="-22"/>
      <point x="362" y="0"/>
      <point x="362" y="78" type="curve" smooth="yes"/>
      <point x="362" y="623" type="line"/>
      <point x="342" y="623" type="line"/>
      <point x="342" y="80" type="line" smooth="yes"/>
      <point x="342" y="-10"/>
      <point x="376" y="-40"/>
      <point x="466" y="-40" type="curve" smooth="yes"/>
    </contour>
  </outline>
</glyph>
<glyph name="uni6236" format="2">
  <advance width="1000"/>
  <unicode hex="2F3E"/>
  <unicode hex="6236"/>
  <outline>
    <contour>
      <point x="73" y="-39" type="line"/>
      <point x="181" y="95"/>
      <point x="205" y="299"/>
      <point x="205" y="511" type="curve" smooth="yes"/>
      <point x="205" y="707" type="line"/>
      <point x="448" y="713"/>
      <point x="692" y="736"/>
      <point x="905" y="783" type="curve"/>
      <point x="898" y="801" type="line"/>
      <point x="680" y="753"/>
      <point x="433" y="730"/>
      <point x="185" y="725" type="curve"/>
      <point x="185" y="511" type="line" smooth="yes"/>
      <point x="185" y="301"/>
      <point x="159" y="100"/>
      <point x="58" y="-27" type="curve"/>
    </contour>
    <contour>
      <point x="194" y="532" type="line"/>
      <point x="843" y="532" type="line"/>
      <point x="843" y="295" type="line"/>
      <point x="183" y="295" type="line"/>
      <point x="183" y="277" type="line"/>
      <point x="843" y="277" type="line"/>
      <point x="843" y="189" type="line"/>
      <point x="863" y="189" type="line"/>
      <point x="863" y="550" type="line"/>
      <point x="194" y="550" type="line"/>
    </contour>
  </outline>
</glyph>
<glyph name="uni6534" format="2">
  <advance width="1000"/>
  <unicode hex="2F41"/>
  <unicode hex="6534"/>
  <outline>
    <contour>
      <point x="486" y="649" type="line"/>
      <point x="908" y="649" type="line"/>
      <point x="908" y="667" type="line"/>
      <point x="486" y="667" type="line"/>
      <point x="486" y="830" type="line"/>
      <point x="466" y="830" type="line"/>
      <point x="466" y="445" type="line"/>
      <point x="486" y="445" type="line"/>
    </contour>
    <contour>
      <point x="221" y="377" type="line"/>
      <point x="400" y="156"/>
      <point x="599" y="50"/>
      <point x="937" y="-35" type="curve"/>
      <point x="944" y="-17" type="line"/>
      <point x="612" y="66"/>
      <point x="412" y="170"/>
      <point x="237" y="388" type="curve"/>
    </contour>
    <contour>
      <point x="801" y="438" type="line"/>
      <point x="686" y="235"/>
      <point x="456" y="56"/>
      <point x="60" y="-16" type="curve"/>
      <point x="67" y="-34" type="line"/>
      <point x="478" y="40"/>
      <point x="710" y="233"/>
      <point x="824" y="440" type="curve"/>
      <point x="824" y="456" type="line"/>
      <point x="107" y="456" type="line"/>
      <point x="107" y="438" type="line"/>
    </contour>
  </outline>
</glyph>
<glyph name="uni6597" format="2">
  <advance width="1000"/>
  <unicode hex="2F43"/>
  <unicode hex="6597"/>
  <outline>
    <contour>
      <point x="658" y="831" type="line"/>
      <point x="658" y="-69" type="line"/>
      <point x="678" y="-69" type="line"/>
      <point x="678" y="831" type="line"/>
    </contour>
    <contour>
      <point x="932" y="238" type="line"/>
      <point x="71" y="139" type="line"/>
      <point x="74" y="120" type="line"/>
      <point x="935" y="220" type="line"/>
    </contour>
    <contour>
      <point x="540" y="568" type="line"/>
      <point x="471" y="628"/>
      <point x="342" y="718"/>
      <point x="259" y="761" type="curve"/>
      <point x="250" y="744" type="line"/>
      <point x="331" y="703"/>
      <point x="462" y="611"/>
      <point x="529" y="551" type="curve"/>
    </contour>
    <contour>
      <point x="418" y="351" type="line"/>
      <point x="347" y="411"/>
      <point x="209" y="499"/>
      <point x="129" y="538" type="curve"/>
      <point x="120" y="521" type="line"/>
      <point x="199" y="482"/>
      <point x="336" y="395"/>
      <point x="407" y="335" type="curve"/>
    </contour>
  </outline>
</glyph>
<glyph name="uni65B9" format="2">
  <advance width="1000"/>
  <unicode hex="2F45"/>
  <unicode hex="65B9"/>
  <outline>
    <contour>
      <point x="85" y="-59" type="line"/>
      <point x="299" y="82"/>
      <point x="365" y="306"/>
      <point x="365" y="540" type="curve" smooth="yes"/>
      <point x="365" y="643" type="line"/>
      <point x="345" y="643" type="line"/>
      <point x="345" y="544" type="line" smooth="yes"/>
      <point x="345" y="307"/>
      <point x="281" y="96"/>
      <point x="73" y="-43" type="curve"/>
    </contour>
    <contour>
      <point x="627" y="-30" type="line" smooth="yes"/>
      <point x="743" y="-30"/>
      <point x="770" y="18"/>
      <point x="787" y="99" type="curve" smooth="yes"/>
      <point x="804" y="179"/>
      <point x="810" y="296"/>
      <point x="810" y="426" type="curve"/>
      <point x="350" y="426" type="line"/>
      <point x="350" y="408" type="line"/>
      <point x="790" y="408" type="line"/>
      <point x="790" y="282"/>
      <point x="783" y="170"/>
      <point x="767" y="99" type="curve" smooth="yes"/>
      <point x="752" y="29"/>
      <point x="728" y="-12"/>
      <point x="631" y="-12" type="curve" smooth="yes"/>
      <point x="446" y="-12" type="line"/>
      <point x="450" y="-30" type="line"/>
    </contour>
    <contour>
      <point x="940" y="634" type="line"/>
      <point x="940" y="652" type="line"/>
      <point x="60" y="652" type="line"/>
      <point x="60" y="634" type="line"/>
    </contour>
    <contour>
      <point x="532" y="679" type="line"/>
      <point x="507" y="730"/>
      <point x="478" y="780"/>
      <point x="444" y="831" type="curve"/>
      <point x="427" y="822" type="line"/>
      <point x="462" y="770"/>
      <point x="492" y="719"/>
      <point x="515" y="670" type="curve"/>
    </contour>
  </outline>
</glyph>
<glyph name="uni65E0" format="2">
  <advance width="1000"/>
  <unicode hex="2F46"/>
  <unicode hex="65E0"/>
  <outline>
    <contour>
      <point x="61" y="-56" type="line"/>
      <point x="372" y="80"/>
      <point x="491" y="274"/>
      <point x="491" y="553" type="curve" smooth="yes"/>
      <point x="491" y="755" type="line"/>
      <point x="471" y="755" type="line"/>
      <point x="471" y="552" type="line" smooth="yes"/>
      <point x="471" y="282"/>
      <point x="356" y="93"/>
      <point x="52" y="-38" type="curve"/>
    </contour>
    <contour>
      <point x="913" y="-35" type="line" smooth="yes"/>
      <point x="933" y="-35"/>
      <point x="941" y="-27"/>
      <point x="941" y="-7" type="curve" smooth="yes"/>
      <point x="941" y="206" type="line"/>
      <point x="921" y="213" type="line"/>
      <point x="921" y="-17" type="line"/>
      <point x="657" y="-17" type="line" smooth="yes"/>
      <point x="572" y="-17"/>
      <point x="552" y="2"/>
      <point x="552" y="78" type="curve" smooth="yes"/>
      <point x="552" y="348" type="line"/>
      <point x="532" y="348" type="line"/>
      <point x="532" y="80" type="line" smooth="yes"/>
      <point x="532" y="-10"/>
      <point x="559" y="-35"/>
      <point x="658" y="-35" type="curve" smooth="yes"/>
    </contour>
    <contour>
      <point x="935" y="434" type="line"/>
      <point x="935" y="452" type="line"/>
      <point x="65" y="452" type="line"/>
      <point x="65" y="434" type="line"/>
    </contour>
    <contour>
      <point x="895" y="746" type="line"/>
      <point x="895" y="764" type="line"/>
      <point x="105" y="764" type="line"/>
      <point x="105" y="746" type="line"/>
    </contour>
  </outline>
</glyph>
<glyph name="uni66F0" format="2">
  <advance width="1000"/>
  <unicode hex="2F48"/>
  <unicode hex="66F0"/>
  <outline>
    <contour>
      <point x="151" y="-65" type="line"/>
      <point x="151" y="31" type="line"/>
      <point x="850" y="31" type="line"/>
      <point x="850" y="-65" type="line"/>
      <point x="870" y="-65" type="line"/>
      <point x="870" y="747" type="line"/>
      <point x="131" y="747" type="line"/>
      <point x="131" y="-65" type="line"/>
    </contour>
    <contour>
      <point x="735" y="387" type="line"/>
      <point x="735" y="405" type="line"/>
      <point x="146" y="405" type="line"/>
      <point x="146" y="387" type="line"/>
    </contour>
    <contour>
      <point x="151" y="729" type="line"/>
      <point x="850" y="729" type="line"/>
      <point x="850" y="49" type="line"/>
      <point x="151" y="49" type="line"/>
    </contour>
  </outline>
</glyph>
<glyph name="uni6708" format="2">
  <advance width="1000"/>
  <unicode hex="2F49"/>
  <unicode hex="6708"/>
  <outline>
    <contour>
      <point x="93" y="-61" type="line"/>
      <point x="205" y="89"/>
      <point x="229" y="245"/>
      <point x="229" y="495" type="curve" smooth="yes"/>
      <point x="229" y="772" type="line"/>
      <point x="800" y="772" type="line"/>
      <point x="800" y="-22" type="line"/>
      <point x="540" y="-22" type="line"/>
      <point x="545" y="-40" type="line"/>
      <point x="792" y="-40" type="line" smooth="yes"/>
      <point x="812" y="-40"/>
      <point x="820" y="-32"/>
      <point x="820" y="-12" type="curve" smooth="yes"/>
      <point x="820" y="790" type="line"/>
      <point x="209" y="790" type="line"/>
      <point x="209" y="495" type="line" smooth="yes"/>
      <point x="209" y="243"/>
      <point x="182" y="86"/>
      <point x="77" y="-49" type="curve"/>
    </contour>
    <contour>
      <point x="810" y="272" type="line"/>
      <point x="810" y="290" type="line"/>
      <point x="202" y="290" type="line"/>
      <point x="202" y="272" type="line"/>
    </contour>
    <contour>
      <point x="810" y="523" type="line"/>
      <point x="810" y="541" type="line"/>
      <point x="222" y="541" type="line"/>
      <point x="222" y="523" type="line"/>
    </contour>
  </outline>
</glyph>
<glyph name="uni6B20" format="2">
  <advance width="1000"/>
  <unicode hex="2F4B"/>
  <unicode hex="6B20"/>
  <outline>
    <contour>
      <point x="82" y="351" type="line"/>
      <point x="208" y="487"/>
      <point x="303" y="661"/>
      <point x="332" y="821" type="curve"/>
      <point x="312" y="825" type="line"/>
      <point x="285" y="668"/>
      <point x="189" y="497"/>
      <point x="67" y="364" type="curve"/>
    </contour>
    <contour>
      <point x="69" y="-43" type="line"/>
      <point x="406" y="110"/>
      <point x="477" y="252"/>
      <point x="490" y="384" type="curve"/>
      <point x="494" y="384" type="line"/>
      <point x="509" y="252"/>
      <point x="599" y="109"/>
      <point x="940" y="-44" type="curve"/>
      <point x="949" y="-26" type="line"/>
      <point x="615" y="126"/>
      <point x="502" y="264"/>
      <point x="502" y="463" type="curve" smooth="yes"/>
      <point x="502" y="543" type="line"/>
      <point x="482" y="543" type="line"/>
      <point x="482" y="463" type="line" smooth="yes"/>
      <point x="482" y="264"/>
      <point x="388" y="126"/>
      <point x="59" y="-25" type="curve"/>
    </contour>
    <contour>
      <point x="874" y="632" type="line"/>
      <point x="847" y="542"/>
      <point x="786" y="435"/>
      <point x="715" y="358" type="curve"/>
      <point x="731" y="345" type="line"/>
      <point x="799" y="420"/>
      <point x="871" y="541"/>
      <point x="895" y="634" type="curve"/>
      <point x="895" y="650" type="line"/>
      <point x="271" y="650" type="line"/>
      <point x="271" y="632" type="line"/>
    </contour>
  </outline>
</glyph>
<glyph name="uni6B62" format="2">
  <advance width="1000"/>
  <unicode hex="2F4C"/>
  <unicode hex="6B62"/>
  <outline>
    <contour>
      <point x="944" y="-1" type="line"/>
      <point x="944" y="17" type="line"/>
      <point x="57" y="17" type="line"/>
      <point x="57" y="-1" type="line"/>
    </contour>
    <contour>
      <point x="253" y="12" type="line"/>
      <point x="253" y="667" type="line"/>
      <point x="233" y="667" type="line"/>
      <point x="233" y="12" type="line"/>
    </contour>
    <contour>
      <point x="557" y="12" type="line"/>
      <point x="557" y="820" type="line"/>
      <point x="537" y="820" type="line"/>
      <point x="537" y="12" type="line"/>
    </contour>
    <contour>
      <point x="899" y="460" type="line"/>
      <point x="899" y="478" type="line"/>
      <point x="552" y="478" type="line"/>
      <point x="552" y="460" type="line"/>
    </contour>
  </outline>
</glyph>
<glyph name="uni6B79" format="2">
  <advance width="1000"/>
  <unicode hex="2F4D"/>
  <unicode hex="6B79"/>
  <outline>
    <contour>
      <point x="135" y="-56" type="line"/>
      <point x="530" y="58"/>
      <point x="734" y="237"/>
      <point x="807" y="519" type="curve"/>
      <point x="807" y="535" type="line"/>
      <point x="341" y="535" type="line"/>
      <point x="341" y="517" type="line"/>
      <point x="787" y="517" type="line"/>
      <point x="714" y="244"/>
      <point x="518" y="77"/>
      <point x="127" y="-38" type="curve"/>
    </contour>
    <contour>
      <point x="598" y="182" type="line"/>
      <point x="520" y="247"/>
      <point x="400" y="335"/>
      <point x="321" y="379" type="curve"/>
      <point x="308" y="364" type="line"/>
      <point x="385" y="322"/>
      <point x="505" y="235"/>
      <point x="584" y="168" type="curve"/>
    </contour>
    <contour>
      <point x="95" y="305" type="line"/>
      <point x="266" y="411"/>
      <point x="398" y="543"/>
      <point x="467" y="751" type="curve"/>
      <point x="448" y="756" type="line"/>
      <point x="379" y="551"/>
      <point x="251" y="424"/>
      <point x="84" y="321" type="curve"/>
    </contour>
    <contour>
      <point x="935" y="746" type="line"/>
      <point x="935" y="764" type="line"/>
      <point x="70" y="764" type="line"/>
      <point x="70" y="746" type="line"/>
    </contour>
  </outline>
</glyph>
<glyph name="uni6BCB" format="2">
  <advance width="1000"/>
  <unicode hex="2F4F"/>
  <unicode hex="6BCB"/>
  <outline>
    <contour>
      <point x="650" y="-50" type="line" smooth="yes"/>
      <point x="742" y="-50"/>
      <point x="776" y="-12"/>
      <point x="789" y="61" type="curve" smooth="yes"/>
      <point x="814" y="201"/>
      <point x="828" y="511"/>
      <point x="828" y="740" type="curve" smooth="yes"/>
      <point x="828" y="780" type="line"/>
      <point x="203" y="780" type="line"/>
      <point x="201" y="627"/>
      <point x="170" y="332"/>
      <point x="136" y="166" type="curve"/>
      <point x="931" y="166" type="line"/>
      <point x="931" y="184" type="line"/>
      <point x="159" y="184" type="line"/>
      <point x="191" y="331"/>
      <point x="219" y="625"/>
      <point x="223" y="762" type="curve"/>
      <point x="808" y="762" type="line"/>
      <point x="808" y="732" type="line" smooth="yes"/>
      <point x="808" y="510"/>
      <point x="793" y="200"/>
      <point x="769" y="65" type="curve" smooth="yes"/>
      <point x="757" y="-1"/>
      <point x="732" y="-32"/>
      <point x="642" y="-32" type="curve" smooth="yes"/>
      <point x="527" y="-32" type="line"/>
      <point x="532" y="-50" type="line"/>
    </contour>
    <contour>
      <point x="950" y="468" type="line"/>
      <point x="950" y="486" type="line"/>
      <point x="50" y="486" type="line"/>
      <point x="50" y="468" type="line"/>
    </contour>
    <contour>
      <point x="110" y="-75" type="line"/>
      <point x="455" y="41"/>
      <point x="508" y="123"/>
      <point x="524" y="771" type="curve"/>
      <point x="504" y="771" type="line"/>
      <point x="488" y="134"/>
      <point x="441" y="56"/>
      <point x="103" y="-57" type="curve"/>
    </contour>
  </outline>
</glyph>
<glyph name="uni6C0F" format="2">
  <advance width="1000"/>
  <unicode hex="2F52"/>
  <unicode hex="6C0F"/>
  <outline>
    <contour>
      <point x="182" y="435" type="line"/>
      <point x="914" y="435" type="line"/>
      <point x="914" y="453" type="line"/>
      <point x="182" y="453" type="line"/>
    </contour>
    <contour>
      <point x="870" y="-46" type="curve" smooth="yes"/>
      <point x="886" y="-53"/>
      <point x="900" y="-49"/>
      <point x="903" y="-27" type="curve" smooth="yes"/>
      <point x="935" y="216" type="line"/>
      <point x="916" y="223" type="line"/>
      <point x="883" y="-31" type="line"/>
      <point x="665" y="68"/>
      <point x="571" y="318"/>
      <point x="571" y="695" type="curve" smooth="yes"/>
      <point x="571" y="745" type="line"/>
      <point x="551" y="745" type="line"/>
      <point x="551" y="685" type="line" smooth="yes"/>
      <point x="551" y="302"/>
      <point x="655" y="56"/>
    </contour>
    <contour>
      <point x="150" y="-33" type="line"/>
      <point x="277" y="-2"/>
      <point x="434" y="40"/>
      <point x="538" y="73" type="curve"/>
      <point x="533" y="91" type="line"/>
      <point x="431" y="58"/>
      <point x="267" y="14"/>
      <point x="146" y="-16" type="curve"/>
    </contour>
    <contour>
      <point x="190" y="-16" type="line"/>
      <point x="190" y="712" type="line"/>
      <point x="447" y="719"/>
      <point x="674" y="746"/>
      <point x="865" y="791" type="curve"/>
      <point x="858" y="808" type="line"/>
      <point x="667" y="764"/>
      <point x="434" y="735"/>
      <point x="170" y="730" type="curve"/>
      <point x="170" y="10" type="line" smooth="yes"/>
      <point x="170" y="-6"/>
      <point x="164" y="-11"/>
      <point x="146" y="-16" type="curve"/>
    </contour>
  </outline>
</glyph>
<glyph name="uni6C14" format="2">
  <advance width="1000"/>
  <unicode hex="2F53"/>
  <unicode hex="6C14"/>
  <outline>
    <contour>
      <point x="76" y="485" type="line"/>
      <point x="170" y="566"/>
      <point x="261" y="697"/>
      <point x="290" y="814" type="curve"/>
      <point x="271" y="820" type="line"/>
      <point x="239" y="697"/>
      <point x="152" y="579"/>
      <point x="63" y="500" type="curve"/>
    </contour>
    <contour>
      <point x="863" y="530" type="line"/>
      <point x="863" y="548" type="line"/>
      <point x="235" y="548" type="line"/>
      <point x="235" y="530" type="line"/>
    </contour>
    <contour>
      <point x="910" y="691" type="line"/>
      <point x="910" y="709" type="line"/>
      <point x="237" y="709" type="line"/>
      <point x="237" y="691" type="line"/>
    </contour>
    <contour>
      <point x="878" y="-38" type="line"/>
      <point x="771" y="62"/>
      <point x="756" y="191"/>
      <point x="756" y="310" type="curve" smooth="yes"/>
      <point x="756" y="383" type="line"/>
      <point x="97" y="383" type="line"/>
      <point x="97" y="365" type="line"/>
      <point x="736" y="365" type="line"/>
      <point x="736" y="300" type="line" smooth="yes"/>
      <point x="736" y="198"/>
      <point x="752" y="52"/>
      <point x="861" y="-50" type="curve" smooth="yes"/>
      <point x="878" y="-66"/>
      <point x="895" y="-61"/>
      <point x="898" y="-36" type="curve" smooth="yes"/>
      <point x="925" y="163" type="line"/>
      <point x="906" y="173" type="line"/>
    </contour>
  </outline>
</glyph>
<glyph name="uni722A" format="2">
  <advance width="1000"/>
  <unicode hex="2F56"/>
  <unicode hex="722A"/>
  <outline>
    <contour>
      <point x="503" y="-46" type="line"/>
      <point x="503" y="728" type="line"/>
      <point x="483" y="728" type="line"/>
      <point x="483" y="-46" type="line"/>
    </contour>
    <contour>
      <point x="785" y="772" type="line"/>
      <point x="785" y="717" type="line" smooth="yes"/>
      <point x="785" y="352"/>
      <point x="818" y="149"/>
      <point x="933" y="-60" type="curve"/>
      <point x="950" y="-49" type="line"/>
      <point x="832" y="161"/>
      <point x="805" y="359"/>
      <point x="805" y="717" type="curve" smooth="yes"/>
      <point x="805" y="772" type="line"/>
    </contour>
    <contour>
      <point x="66" y="-60" type="line"/>
      <point x="185" y="138"/>
      <point x="201" y="340"/>
      <point x="201" y="660" type="curve" smooth="yes"/>
      <point x="201" y="717" type="line"/>
      <point x="193" y="702" type="line"/>
      <point x="420" y="703"/>
      <point x="696" y="731"/>
      <point x="879" y="793" type="curve"/>
      <point x="869" y="810" type="line"/>
      <point x="684" y="748"/>
      <point x="410" y="721"/>
      <point x="181" y="720" type="curve"/>
      <point x="181" y="660" type="line" smooth="yes"/>
      <point x="181" y="338"/>
      <point x="163" y="136"/>
      <point x="50" y="-49" type="curve"/>
    </contour>
  </outline>
</glyph>
<glyph name="uni7236" format="2">
  <advance width="1000"/>
  <unicode hex="2F57"/>
  <unicode hex="7236"/>
  <outline>
    <contour>
      <point x="368" y="817" type="line"/>
      <point x="301" y="706"/>
      <point x="198" y="587"/>
      <point x="62" y="498" type="curve"/>
      <point x="73" y="482" type="line"/>
      <point x="214" y="575"/>
      <point x="311" y="689"/>
      <point x="385" y="807" type="curve"/>
    </contour>
    <contour>
      <point x="933" y="498" type="line"/>
      <point x="838" y="616"/>
      <point x="723" y="728"/>
      <point x="616" y="817" type="curve"/>
      <point x="602" y="805" type="line"/>
      <point x="705" y="716"/>
      <point x="823" y="607"/>
      <point x="918" y="486" type="curve"/>
    </contour>
    <contour>
      <point x="945" y="-46" type="line"/>
      <point x="635" y="33"/>
      <point x="408" y="214"/>
      <point x="285" y="531" type="curve"/>
      <point x="267" y="524" type="line"/>
      <point x="401" y="187"/>
      <point x="633" y="14"/>
      <point x="939" y="-64" type="curve"/>
    </contour>
    <contour>
      <point x="61" y="-64" type="line"/>
      <point x="360" y="14"/>
      <point x="586" y="187"/>
      <point x="716" y="524" type="curve"/>
      <point x="698" y="531" type="line"/>
      <point x="578" y="214"/>
      <point x="357" y="33"/>
      <point x="55" y="-46" type="curve"/>
    </contour>
  </outline>
</glyph>
<glyph name="uni723F" format="2">
  <advance width="1000"/>
  <unicode hex="2F59"/>
  <unicode hex="723F"/>
  <outline>
    <contour>
      <point x="788" y="325" type="line"/>
      <point x="788" y="343" type="line"/>
      <point x="108" y="343" type="line"/>
      <point x="108" y="325" type="line"/>
    </contour>
    <contour>
      <point x="783" y="830" type="line"/>
      <point x="783" y="-60" type="line"/>
      <point x="803" y="-60" type="line"/>
      <point x="803" y="830" type="line"/>
    </contour>
    <contour>
      <point x="126" y="-46" type="line"/>
      <point x="297" y="32"/>
      <point x="393" y="133"/>
      <point x="393" y="312" type="curve" smooth="yes"/>
      <point x="393" y="337" type="line"/>
      <point x="373" y="337" type="line"/>
      <point x="373" y="313" type="line" smooth="yes"/>
      <point x="373" y="135"/>
      <point x="279" y="47"/>
      <point x="116" y="-29" type="curve"/>
    </contour>
    <contour>
      <point x="796" y="531" type="line"/>
      <point x="796" y="549" type="line"/>
      <point x="259" y="549" type="line"/>
      <point x="259" y="790" type="line"/>
      <point x="239" y="790" type="line"/>
      <point x="239" y="531" type="line"/>
    </contour>
  </outline>
</glyph>
<glyph name="uni7259" format="2">
  <advance width="1000"/>
  <unicode hex="2F5B"/>
  <unicode hex="7259"/>
  <outline>
    <contour>
      <point x="634" y="-35" type="line" smooth="yes"/>
      <point x="654" y="-35"/>
      <point x="662" y="-27"/>
      <point x="662" y="-7" type="curve" smooth="yes"/>
      <point x="662" y="751" type="line"/>
      <point x="642" y="751" type="line"/>
      <point x="642" y="445" type="line"/>
      <point x="633" y="445" type="line"/>
      <point x="590" y="322"/>
      <point x="414" y="196"/>
      <point x="67" y="54" type="curve"/>
      <point x="76" y="36" type="line"/>
      <point x="429" y="182"/>
      <point x="611" y="314"/>
      <point x="638" y="429" type="curve"/>
      <point x="642" y="429" type="line"/>
      <point x="642" y="-17" type="line"/>
      <point x="444" y="-17" type="line"/>
      <point x="450" y="-35" type="line"/>
    </contour>
    <contour>
      <point x="940" y="441" type="line"/>
      <point x="940" y="459" type="line"/>
      <point x="149" y="459" type="line"/>
      <point x="164" y="509"/>
      <point x="187" y="590"/>
      <point x="203" y="651" type="curve"/>
      <point x="184" y="653" type="line"/>
      <point x="169" y="595"/>
      <point x="147" y="515"/>
      <point x="123" y="441" type="curve"/>
    </contour>
    <contour>
      <point x="900" y="746" type="line"/>
      <point x="900" y="764" type="line"/>
      <point x="105" y="764" type="line"/>
      <point x="105" y="746" type="line"/>
    </contour>
  </outline>
</glyph>
<glyph name="uni725B" format="2">
  <advance width="1000"/>
  <unicode hex="2F5C"/>
  <unicode hex="725B"/>
  <outline>
    <contour>
      <point x="491" y="830" type="line"/>
      <point x="491" y="-70" type="line"/>
      <point x="511" y="-70" type="line"/>
      <point x="511" y="830" type="line"/>
    </contour>
    <contour>
      <point x="945" y="289" type="line"/>
      <point x="52" y="289" type="line"/>
      <point x="52" y="271" type="line"/>
      <point x="945" y="271" type="line"/>
    </contour>
    <contour>
      <point x="895" y="608" type="line"/>
      <point x="204" y="608" type="line"/>
      <point x="204" y="590" type="line"/>
      <point x="895" y="590" type="line"/>
    </contour>
    <contour>
      <point x="72" y="423" type="line"/>
      <point x="172" y="513"/>
      <point x="252" y="658"/>
      <point x="287" y="791" type="curve"/>
      <point x="268" y="796" type="line"/>
      <point x="236" y="669"/>
      <point x="154" y="521"/>
      <point x="59" y="437" type="curve"/>
    </contour>
  </outline>
</glyph>
<glyph name="uni72AC" format="2">
  <advance width="1000"/>
  <unicode hex="2F5D"/>
  <unicode hex="72AC"/>
  <outline>
    <contour>
      <point x="66" y="-47" type="line"/>
      <point x="366" y="121"/>
      <point x="472" y="259"/>
      <point x="490" y="437" type="curve"/>
      <point x="494" y="437" type="line"/>
      <point x="512" y="259"/>
      <point x="633" y="121"/>
      <point x="934" y="-47" type="curve"/>
      <point x="945" y="-30" type="line"/>
      <point x="634" y="142"/>
      <point x="502" y="292"/>
      <point x="502" y="513" type="curve" smooth="yes"/>
      <point x="502" y="820" type="line"/>
      <point x="482" y="820" type="line"/>
      <point x="482" y="513" type="line" smooth="yes"/>
      <point x="482" y="292"/>
      <point x="363" y="142"/>
      <point x="55" y="-30" type="curve"/>
    </contour>
    <contour>
      <point x="934" y="511" type="line"/>
      <point x="934" y="529" type="line"/>
      <point x="67" y="529" type="line"/>
      <point x="67" y="511" type="line"/>
    </contour>
    <contour>
      <point x="860" y="628" type="line"/>
      <point x="810" y="675"/>
      <point x="721" y="743"/>
      <point x="657" y="782" type="curve"/>
      <point x="645" y="767" type="line"/>
      <point x="711" y="728"/>
      <point x="799" y="659"/>
      <point x="847" y="614" type="curve"/>
    </contour>
  </outline>
</glyph>
<glyph name="uni74DC" format="2">
  <advance width="1000"/>
  <unicode hex="2F60"/>
  <unicode hex="74DC"/>
  <outline>
    <contour>
      <point x="73" y="-60" type="line"/>
      <point x="191" y="148"/>
      <point x="196" y="317"/>
      <point x="196" y="640" type="curve" smooth="yes"/>
      <point x="196" y="717" type="line"/>
      <point x="187" y="704" type="line"/>
      <point x="408" y="705"/>
      <point x="709" y="735"/>
      <point x="877" y="790" type="curve"/>
      <point x="868" y="807" type="line"/>
      <point x="704" y="754"/>
      <point x="407" y="723"/>
      <point x="176" y="722" type="curve"/>
      <point x="176" y="640" type="line" smooth="yes"/>
      <point x="176" y="318"/>
      <point x="171" y="146"/>
      <point x="56" y="-49" type="curve"/>
    </contour>
    <contour>
      <point x="735" y="-46" type="line"/>
      <point x="700" y="39"/>
      <point x="623" y="182"/>
      <point x="584" y="241" type="curve"/>
      <point x="567" y="232" type="line"/>
      <point x="606" y="173"/>
      <point x="684" y="29"/>
      <point x="718" y="-55" type="curve"/>
    </contour>
    <contour>
      <point x="945" y="-49" type="line"/>
      <point x="829" y="168"/>
      <point x="808" y="319"/>
      <point x="808" y="657" type="curve" smooth="yes"/>
      <point x="808" y="777" type="line"/>
      <point x="788" y="777" type="line"/>
      <point x="788" y="657" type="line" smooth="yes"/>
      <point x="788" y="312"/>
      <point x="814" y="154"/>
      <point x="928" y="-60" type="curve"/>
    </contour>
    <contour>
      <point x="324" y="-25" type="line"/>
      <point x="437" y="-10"/>
      <point x="565" y="16"/>
      <point x="681" y="42" type="curve"/>
      <point x="675" y="59" type="line"/>
      <point x="566" y="35"/>
      <point x="443" y="10"/>
      <point x="344" y="-4" type="curve"/>
      <point x="342" y="-14" type="line"/>
      <point x="453" y="126"/>
      <point x="491" y="202"/>
      <point x="491" y="728" type="curve"/>
      <point x="471" y="728" type="line"/>
      <point x="471" y="222"/>
      <point x="441" y="134"/>
      <point x="319" y="-11" type="curve"/>
    </contour>
  </outline>
</glyph>
<glyph name="uni7528" format="2">
  <advance width="1000"/>
  <unicode hex="2F64"/>
  <unicode hex="7528"/>
  <outline>
    <contour>
      <point x="62" y="-62" type="line"/>
      <point x="152" y="73"/>
      <point x="171" y="213"/>
      <point x="171" y="531" type="curve" smooth="yes"/>
      <point x="171" y="772" type="line"/>
      <point x="868" y="772" type="line"/>
      <point x="868" y="-31" type="line"/>
      <point x="688" y="-31" type="line"/>
      <point x="693" y="-49" type="line"/>
      <point x="867" y="-49" type="line" smooth="yes"/>
      <point x="883" y="-49"/>
      <point x="888" y="-42"/>
      <point x="888" y="-28" type="curve" smooth="yes"/>
      <point x="888" y="790" type="line"/>
      <point x="151" y="790" type="line"/>
      <point x="151" y="531" type="line" smooth="yes"/>
      <point x="151" y="214"/>
      <point x="134" y="86"/>
      <point x="47" y="-48" type="curve"/>
    </contour>
    <contour>
      <point x="503" y="784" type="line"/>
      <point x="503" y="-49" type="line"/>
      <point x="523" y="-49" type="line"/>
      <point x="523" y="784" type="line"/>
    </contour>
    <contour>
      <point x="872" y="539" type="line"/>
      <point x="162" y="539" type="line"/>
      <point x="162" y="521" type="line"/>
      <point x="872" y="521" type="line"/>
    </contour>
    <contour>
      <point x="872" y="288" type="line"/>
      <point x="154" y="288" type="line"/>
      <point x="154" y="270" type="line"/>
      <point x="872" y="270" type="line"/>
    </contour>
  </outline>
</glyph>
<glyph name="uni767D" format="2">
  <advance width="1000"/>
  <unicode hex="2F69"/>
  <unicode hex="767D"/>
  <outline>
    <contour>
      <point x="167" y="-67" type="line"/>
      <point x="167" y="21" type="line"/>
      <point x="834" y="21" type="line"/>
      <point x="834" y="-67" type="line"/>
      <point x="854" y="-67" type="line"/>
      <point x="854" y="678" type="line"/>
      <point x="147" y="678" type="line"/>
      <point x="147" y="-67" type="line"/>
    </contour>
    <contour>
      <point x="167" y="660" type="line"/>
      <point x="834" y="660" type="line"/>
      <point x="834" y="39" type="line"/>
      <point x="167" y="39" type="line"/>
    </contour>
    <contour>
      <point x="840" y="345" type="line"/>
      <point x="840" y="363" type="line"/>
      <point x="162" y="363" type="line"/>
      <point x="162" y="345" type="line"/>
    </contour>
    <contour>
      <point x="435" y="670" type="line"/>
      <point x="473" y="717"/>
      <point x="503" y="776"/>
      <point x="525" y="830" type="curve"/>
      <point x="504" y="836" type="line"/>
      <point x="487" y="784"/>
      <point x="453" y="722"/>
      <point x="410" y="670" type="curve"/>
    </contour>
  </outline>
</glyph>
<glyph name="uni77E2" format="2">
  <advance width="1000"/>
  <unicode hex="2F6E"/>
  <unicode hex="77E2"/>
  <outline>
    <contour>
      <point x="938" y="389" type="line"/>
      <point x="62" y="389" type="line"/>
      <point x="62" y="371" type="line"/>
      <point x="938" y="371" type="line"/>
    </contour>
    <contour>
      <point x="895" y="669" type="line"/>
      <point x="221" y="669" type="line"/>
      <point x="221" y="651" type="line"/>
      <point x="895" y="651" type="line"/>
    </contour>
    <contour>
      <point x="81" y="476" type="line"/>
      <point x="182" y="567"/>
      <point x="265" y="706"/>
      <point x="294" y="820" type="curve"/>
      <point x="275" y="826" type="line"/>
      <point x="245" y="709"/>
      <point x="166" y="582"/>
      <point x="67" y="490" type="curve"/>
    </contour>
    <contour>
      <point x="65" y="-53" type="line"/>
      <point x="371" y="86"/>
      <point x="478" y="199"/>
      <point x="491" y="352" type="curve"/>
      <point x="495" y="352" type="line"/>
      <point x="508" y="199"/>
      <point x="630" y="86"/>
      <point x="935" y="-54" type="curve"/>
      <point x="944" y="-36" type="line"/>
      <point x="622" y="111"/>
      <point x="503" y="230"/>
      <point x="503" y="415" type="curve" smooth="yes"/>
      <point x="503" y="662" type="line"/>
      <point x="483" y="662" type="line"/>
      <point x="483" y="415" type="line" smooth="yes"/>
      <point x="483" y="230"/>
      <point x="378" y="111"/>
      <point x="57" y="-35" type="curve"/>
    </contour>
  </outline>
</glyph>
<glyph name="uni77F3" format="2">
  <advance width="1000"/>
  <unicode hex="2F6F"/>
  <unicode hex="77F3"/>
  <outline>
    <contour>
      <point x="285" y="-65" type="line"/>
      <point x="285" y="425" type="line"/>
      <point x="824" y="425" type="line"/>
      <point x="824" y="-65" type="line"/>
      <point x="844" y="-65" type="line"/>
      <point x="844" y="443" type="line"/>
      <point x="292" y="443" type="line"/>
      <point x="265" y="411" type="line"/>
      <point x="265" y="-65" type="line"/>
    </contour>
    <contour>
      <point x="834" y="25" type="line"/>
      <point x="834" y="43" type="line"/>
      <point x="269" y="43" type="line"/>
      <point x="269" y="25" type="line"/>
    </contour>
    <contour>
      <point x="59" y="236" type="line"/>
      <point x="271" y="355"/>
      <point x="416" y="548"/>
      <point x="484" y="749" type="curve"/>
      <point x="464" y="749" type="line"/>
      <point x="394" y="552"/>
      <point x="255" y="369"/>
      <point x="49" y="253" type="curve"/>
    </contour>
    <contour>
      <point x="935" y="742" type="line"/>
      <point x="935" y="760" type="line"/>
      <point x="80" y="760" type="line"/>
      <point x="80" y="742" type="line"/>
    </contour>
  </outline>
</glyph>
<glyph name="uni793A" format="2">
  <advance width="1000"/>
  <unicode hex="2F70"/>
  <unicode hex="793A"/>
  <outline>
    <contour>
      <point x="73" y="23" type="line"/>
      <point x="182" y="123"/>
      <point x="252" y="218"/>
      <point x="299" y="331" type="curve"/>
      <point x="281" y="338" type="line"/>
      <point x="236" y="228"/>
      <point x="166" y="135"/>
      <point x="61" y="38" type="curve"/>
    </contour>
    <contour>
      <point x="68" y="470" type="line"/>
      <point x="932" y="470" type="line"/>
      <point x="932" y="488" type="line"/>
      <point x="68" y="488" type="line"/>
    </contour>
    <contour>
      <point x="165" y="743" type="line"/>
      <point x="835" y="743" type="line"/>
      <point x="835" y="761" type="line"/>
      <point x="165" y="761" type="line"/>
    </contour>
    <contour>
      <point x="485" y="-48" type="line" smooth="yes"/>
      <point x="505" y="-48"/>
      <point x="513" y="-40"/>
      <point x="513" y="-20" type="curve" smooth="yes"/>
      <point x="513" y="478" type="line"/>
      <point x="493" y="478" type="line"/>
      <point x="493" y="-30" type="line"/>
      <point x="281" y="-30" type="line"/>
      <point x="287" y="-48" type="line"/>
    </contour>
    <contour>
      <point x="699" y="327" type="line"/>
      <point x="768" y="255"/>
      <point x="850" y="136"/>
      <point x="918" y="24" type="curve"/>
      <point x="934" y="35" type="line"/>
      <point x="866" y="147"/>
      <point x="786" y="263"/>
      <point x="715" y="338" type="curve"/>
    </contour>
  </outline>
</glyph>
<glyph name="uni7A74" format="2">
  <advance width="1000"/>
  <unicode hex="2F73"/>
  <unicode hex="7A74"/>
  <outline>
    <contour>
      <point x="949" y="-31" type="line"/>
      <point x="789" y="110"/>
      <point x="685" y="280"/>
      <point x="628" y="469" type="curve"/>
      <point x="609" y="464" type="line"/>
      <point x="668" y="273"/>
      <point x="773" y="97"/>
      <point x="936" y="-45" type="curve"/>
    </contour>
    <contour>
      <point x="62" y="-45" type="line"/>
      <point x="219" y="94"/>
      <point x="320" y="267"/>
      <point x="377" y="454" type="curve"/>
      <point x="358" y="459" type="line"/>
      <point x="303" y="274"/>
      <point x="203" y="108"/>
      <point x="49" y="-31" type="curve"/>
    </contour>
    <contour>
      <point x="104" y="425" type="line"/>
      <point x="104" y="623" type="line"/>
      <point x="896" y="623" type="line"/>
      <point x="896" y="425" type="line"/>
      <point x="916" y="425" type="line"/>
      <point x="916" y="641" type="line"/>
      <point x="84" y="641" type="line"/>
      <point x="84" y="425" type="line"/>
    </contour>
    <contour>
      <point x="535" y="681" type="line"/>
      <point x="502" y="733"/>
      <point x="463" y="785"/>
      <point x="422" y="833" type="curve"/>
      <point x="406" y="823" type="line"/>
      <point x="447" y="774"/>
      <point x="487" y="722"/>
      <point x="519" y="670" type="curve"/>
    </contour>
  </outline>
</glyph>
<glyph name="uni7CF8" format="2">
  <advance width="1000"/>
  <unicode hex="2F77"/>
  <unicode hex="7CF8"/>
  <outline>
    <contour>
      <point x="936" y="261" type="line"/>
      <point x="857" y="360"/>
      <point x="779" y="441"/>
      <point x="687" y="522" type="curve"/>
      <point x="673" y="509" type="line"/>
      <point x="760" y="432"/>
      <point x="844" y="345"/>
      <point x="922" y="248" type="curve"/>
    </contour>
    <contour>
      <point x="157" y="301" type="line"/>
      <point x="380" y="415"/>
      <point x="580" y="543"/>
      <point x="757" y="696" type="curve"/>
      <point x="742" y="709" type="line"/>
      <point x="559" y="552"/>
      <point x="364" y="426"/>
      <point x="123" y="304" type="curve"/>
    </contour>
    <contour>
      <point x="125" y="287" type="line"/>
      <point x="368" y="303"/>
      <point x="663" y="328"/>
      <point x="851" y="344" type="curve"/>
      <point x="846" y="362" type="line"/>
      <point x="666" y="346"/>
      <point x="359" y="321"/>
      <point x="123" y="304" type="curve"/>
    </contour>
    <contour>
      <point x="161" y="549" type="line"/>
      <point x="305" y="551"/>
      <point x="448" y="561"/>
      <point x="603" y="578" type="curve"/>
      <point x="602" y="596" type="line"/>
      <point x="447" y="579"/>
      <point x="294" y="568"/>
      <point x="158" y="566" type="curve"/>
    </contour>
    <contour>
      <point x="172" y="554" type="line"/>
      <point x="301" y="629"/>
      <point x="420" y="731"/>
      <point x="503" y="822" type="curve"/>
      <point x="486" y="833" type="line"/>
      <point x="407" y="744"/>
      <point x="278" y="637"/>
      <point x="158" y="566" type="curve"/>
    </contour>
    <contour>
      <point x="327" y="-48" type="line"/>
      <point x="485" y="-48" type="line" smooth="yes"/>
      <point x="505" y="-48"/>
      <point x="513" y="-40"/>
      <point x="513" y="-20" type="curve" smooth="yes"/>
      <point x="513" y="325" type="line"/>
      <point x="493" y="325" type="line"/>
      <point x="493" y="-30" type="line"/>
      <point x="321" y="-30" type="line"/>
    </contour>
    <contour>
      <point x="67" y="-25" type="line"/>
      <point x="174" y="38"/>
      <point x="268" y="118"/>
      <point x="335" y="203" type="curve"/>
      <point x="319" y="213" type="line"/>
      <point x="256" y="135"/>
      <point x="162" y="50"/>
      <point x="55" y="-9" type="curve"/>
    </contour>
    <contour>
      <point x="947" y="-8" type="line"/>
      <point x="859" y="78"/>
      <point x="767" y="155"/>
      <point x="674" y="218" type="curve"/>
      <point x="661" y="204" type="line"/>
      <point x="754" y="141"/>
      <point x="849" y="62"/>
      <point x="934" y="-22" type="curve"/>
    </contour>
  </outline>
</glyph>
<glyph name="uni7F51" format="2">
  <advance width="1000"/>
  <unicode hex="2F79"/>
  <unicode hex="7F51"/>
  <outline>
    <contour>
      <point x="877" y="-32" type="line"/>
      <point x="684" y="-32" type="line"/>
      <point x="688" y="-50" type="line"/>
      <point x="869" y="-50" type="line" smooth="yes"/>
      <point x="889" y="-50"/>
      <point x="897" y="-42"/>
      <point x="897" y="-22" type="curve" smooth="yes"/>
      <point x="897" y="778" type="line"/>
      <point x="103" y="778" type="line"/>
      <point x="103" y="-70" type="line"/>
      <point x="123" y="-70" type="line"/>
      <point x="123" y="760" type="line"/>
      <point x="877" y="760" type="line"/>
    </contour>
    <contour>
      <point x="483" y="155" type="line"/>
      <point x="422" y="303"/>
      <point x="305" y="516"/>
      <point x="225" y="630" type="curve"/>
      <point x="210" y="617" type="line"/>
      <point x="291" y="506"/>
      <point x="409" y="286"/>
      <point x="467" y="146" type="curve"/>
    </contour>
    <contour>
      <point x="201" y="65" type="line"/>
      <point x="315" y="228"/>
      <point x="399" y="414"/>
      <point x="456" y="654" type="curve"/>
      <point x="437" y="659" type="line"/>
      <point x="387" y="433"/>
      <point x="290" y="220"/>
      <point x="185" y="77" type="curve"/>
    </contour>
    <contour>
      <point x="789" y="105" type="line"/>
      <point x="728" y="260"/>
      <point x="615" y="495"/>
      <point x="525" y="629" type="curve"/>
      <point x="511" y="616" type="line"/>
      <point x="598" y="487"/>
      <point x="714" y="249"/>
      <point x="772" y="95" type="curve"/>
    </contour>
    <contour>
      <point x="490" y="45" type="line"/>
      <point x="616" y="213"/>
      <point x="706" y="389"/>
      <point x="762" y="657" type="curve"/>
      <point x="743" y="661" type="line"/>
      <point x="694" y="407"/>
      <point x="591" y="209"/>
      <point x="475" y="57" type="curve"/>
    </contour>
  </outline>
</glyph>
<glyph name="uni7F8A" format="2">
  <advance width="1000"/>
  <unicode hex="2F7A"/>
  <unicode hex="7F8A"/>
  <outline>
    <contour>
      <point x="940" y="191" type="line"/>
      <point x="940" y="209" type="line"/>
      <point x="60" y="209" type="line"/>
      <point x="60" y="191" type="line"/>
    </contour>
    <contour>
      <point x="501" y="-70" type="line"/>
      <point x="502" y="637" type="line"/>
      <point x="483" y="637" type="line"/>
      <point x="482" y="-70" type="line"/>
    </contour>
    <contour>
      <point x="868" y="414" type="line"/>
      <point x="868" y="432" type="line"/>
      <point x="132" y="432" type="line"/>
      <point x="132" y="414" type="line"/>
    </contour>
    <contour>
      <point x="356" y="686" type="line"/>
      <point x="331" y="731"/>
      <point x="293" y="791"/>
      <point x="258" y="833" type="curve"/>
      <point x="242" y="822" type="line"/>
      <point x="275" y="783"/>
      <point x="315" y="721"/>
      <point x="339" y="676" type="curve"/>
    </contour>
    <contour>
      <point x="906" y="626" type="line"/>
      <point x="906" y="644" type="line"/>
      <point x="94" y="644" type="line"/>
      <point x="94" y="626" type="line"/>
    </contour>
    <contour>
      <point x="636" y="636" type="line"/>
      <point x="681" y="687"/>
      <point x="734" y="781"/>
      <point x="756" y="827" type="curve"/>
      <point x="738" y="835" type="line"/>
      <point x="718" y="788"/>
      <point x="662" y="692"/>
      <point x="612" y="636" type="curve"/>
    </contour>
  </outline>
</glyph>
<glyph name="uni800C" format="2">
  <advance width="1000"/>
  <unicode hex="2F7D"/>
  <unicode hex="800C"/>
  <outline>
    <contour>
      <point x="136" y="-60" type="line"/>
      <point x="136" y="557" type="line"/>
      <point x="865" y="557" type="line"/>
      <point x="865" y="-27" type="line"/>
      <point x="710" y="-27" type="line"/>
      <point x="715" y="-45" type="line"/>
      <point x="857" y="-45" type="line" smooth="yes"/>
      <point x="877" y="-45"/>
      <point x="885" y="-37"/>
      <point x="885" y="-17" type="curve" smooth="yes"/>
      <point x="885" y="575" type="line"/>
      <point x="116" y="575" type="line"/>
      <point x="116" y="-60" type="line"/>
    </contour>
    <contour>
      <point x="381" y="-40" type="line"/>
      <point x="381" y="561" type="line"/>
      <point x="361" y="561" type="line"/>
      <point x="361" y="-40" type="line"/>
    </contour>
    <contour>
      <point x="626" y="-40" type="line"/>
      <point x="626" y="561" type="line"/>
      <point x="606" y="561" type="line"/>
      <point x="606" y="-40" type="line"/>
    </contour>
    <contour>
      <point x="458" y="569" type="line"/>
      <point x="483" y="619"/>
      <point x="510" y="694"/>
      <point x="523" y="757" type="curve"/>
      <point x="504" y="757" type="line"/>
      <point x="493" y="701"/>
      <point x="464" y="621"/>
      <point x="437" y="569" type="curve"/>
    </contour>
    <contour>
      <point x="950" y="751" type="line"/>
      <point x="950" y="769" type="line"/>
      <point x="50" y="769" type="line"/>
      <point x="50" y="751" type="line"/>
    </contour>
  </outline>
</glyph>
<glyph name="uni8012" format="2">
  <advance width="1000"/>
  <unicode hex="2F7E"/>
  <unicode hex="8012"/>
  <outline>
    <contour>
      <point x="501" y="-70" type="line"/>
      <point x="501" y="302" type="line"/>
      <point x="505" y="302" type="line"/>
      <point x="537" y="176"/>
      <point x="711" y="77"/>
      <point x="950" y="-22" type="curve"/>
      <point x="959" y="-4" type="line"/>
      <point x="709" y="96"/>
      <point x="551" y="198"/>
      <point x="514" y="313" type="curve"/>
      <point x="502" y="313" type="line"/>
      <point x="501" y="830" type="line"/>
      <point x="481" y="830" type="line"/>
      <point x="481" y="313" type="line"/>
      <point x="469" y="313" type="line"/>
      <point x="428" y="198"/>
      <point x="292" y="96"/>
      <point x="41" y="-5" type="curve"/>
      <point x="50" y="-22" type="line"/>
      <point x="291" y="77"/>
      <point x="445" y="176"/>
      <point x="477" y="302" type="curve"/>
      <point x="481" y="302" type="line"/>
      <point x="481" y="-70" type="line"/>
    </contour>
    <contour>
      <point x="945" y="309" type="line"/>
      <point x="945" y="327" type="line"/>
      <point x="55" y="327" type="line"/>
      <point x="55" y="309" type="line"/>
    </contour>
    <contour>
      <point x="875" y="511" type="line"/>
      <point x="875" y="529" type="line"/>
      <point x="125" y="529" type="line"/>
      <point x="125" y="511" type="line"/>
    </contour>
    <contour>
      <point x="915" y="709" type="line"/>
      <point x="915" y="727" type="line"/>
      <point x="85" y="727" type="line"/>
      <point x="85" y="709" type="line"/>
    </contour>
  </outline>
</glyph>
<glyph name="uni807F" format="2">
  <advance width="1000"/>
  <unicode hex="2F80"/>
  <unicode hex="807F"/>
  <outline>
    <contour>
      <point x="483" y="830" type="line"/>
      <point x="483" y="-70" type="line"/>
      <point x="503" y="-70" type="line"/>
      <point x="503" y="830" type="line"/>
    </contour>
    <contour>
      <point x="945" y="89" type="line"/>
      <point x="945" y="107" type="line"/>
      <point x="55" y="107" type="line"/>
      <point x="55" y="89" type="line"/>
    </contour>
    <contour>
      <point x="902" y="249" type="line"/>
      <point x="902" y="267" type="line"/>
      <point x="96" y="267" type="line"/>
      <point x="96" y="249" type="line"/>
    </contour>
    <contour>
      <point x="950" y="579" type="line"/>
      <point x="50" y="579" type="line"/>
      <point x="50" y="561" type="line"/>
      <point x="950" y="561" type="line"/>
    </contour>
    <contour>
      <point x="853" y="405" type="line"/>
      <point x="853" y="735" type="line"/>
      <point x="120" y="735" type="line"/>
      <point x="120" y="717" type="line"/>
      <point x="833" y="717" type="line"/>
      <point x="833" y="423" type="line"/>
      <point x="114" y="423" type="line"/>
      <point x="114" y="405" type="line"/>
    </contour>
  </outline>
</glyph>
<glyph name="uni81E3" format="2">
  <advance width="1000"/>
  <unicode hex="2F82"/>
  <unicode hex="81E3"/>
  <outline>
    <contour>
      <point x="937" y="-13" type="line"/>
      <point x="937" y="5" type="line"/>
      <point x="148" y="5" type="line"/>
      <point x="148" y="759" type="line"/>
      <point x="920" y="759" type="line"/>
      <point x="920" y="777" type="line"/>
      <point x="128" y="777" type="line"/>
      <point x="128" y="-13" type="line"/>
    </contour>
    <contour>
      <point x="530" y="-1" type="line"/>
      <point x="530" y="256" type="line"/>
      <point x="510" y="256" type="line"/>
      <point x="510" y="-1" type="line"/>
    </contour>
    <contour>
      <point x="850" y="249" type="line"/>
      <point x="850" y="535" type="line"/>
      <point x="141" y="535" type="line"/>
      <point x="141" y="517" type="line"/>
      <point x="830" y="517" type="line"/>
      <point x="830" y="267" type="line"/>
      <point x="141" y="267" type="line"/>
      <point x="141" y="249" type="line"/>
    </contour>
    <contour>
      <point x="530" y="524" type="line"/>
      <point x="530" y="766" type="line"/>
      <point x="510" y="766" type="line"/>
      <point x="510" y="524" type="line"/>
    </contour>
  </outline>
</glyph>
<glyph name="uni81F3" format="2">
  <advance width="1000"/>
  <unicode hex="2F84"/>
  <unicode hex="81F3"/>
  <outline>
    <contour>
      <point x="124" y="453" type="line"/>
      <point x="387" y="461"/>
      <point x="624" y="469"/>
      <point x="828" y="477" type="curve"/>
      <point x="823" y="495" type="line"/>
      <point x="629" y="487"/>
      <point x="386" y="477"/>
      <point x="124" y="471" type="curve"/>
      <point x="137" y="459" type="line"/>
      <point x="244" y="522"/>
      <point x="359" y="643"/>
      <point x="467" y="777" type="curve"/>
      <point x="450" y="786" type="line"/>
      <point x="339" y="651"/>
      <point x="234" y="538"/>
      <point x="122" y="471" type="curve"/>
    </contour>
    <contour>
      <point x="943" y="-27" type="line"/>
      <point x="943" y="-9" type="line"/>
      <point x="58" y="-9" type="line"/>
      <point x="58" y="-27" type="line"/>
    </contour>
    <contour>
      <point x="502" y="-17" type="line"/>
      <point x="502" y="407" type="line"/>
      <point x="482" y="407" type="line"/>
      <point x="482" y="-17" type="line"/>
    </contour>
    <contour>
      <point x="873" y="224" type="line"/>
      <point x="873" y="242" type="line"/>
      <point x="128" y="242" type="line"/>
      <point x="128" y="224" type="line"/>
    </contour>
    <contour>
      <point x="912" y="772" type="line"/>
      <point x="912" y="790" type="line"/>
      <point x="90" y="790" type="line"/>
      <point x="90" y="772" type="line"/>
    </contour>
    <contour>
      <point x="910" y="413" type="line"/>
      <point x="817" y="516"/>
      <point x="717" y="609"/>
      <point x="608" y="697" type="curve"/>
      <point x="594" y="684" type="line"/>
      <point x="703" y="596"/>
      <point x="800" y="506"/>
      <point x="896" y="400" type="curve"/>
    </contour>
  </outline>
</glyph>
<glyph name="uni81FC" format="2">
  <advance width="1000"/>
  <unicode hex="2F85"/>
  <unicode hex="81FC"/>
  <outline>
    <contour>
      <point x="151" y="-59" type="line"/>
      <point x="151" y="25" type="line"/>
      <point x="850" y="25" type="line"/>
      <point x="850" y="-59" type="line"/>
      <point x="870" y="-59" type="line"/>
      <point x="870" y="722" type="line"/>
      <point x="544" y="722" type="line"/>
      <point x="544" y="704" type="line"/>
      <point x="850" y="704" type="line"/>
      <point x="850" y="43" type="line"/>
      <point x="151" y="43" type="line"/>
      <point x="151" y="694" type="line"/>
      <point x="279" y="712"/>
      <point x="388" y="739"/>
      <point x="493" y="790" type="curve"/>
      <point x="482" y="805" type="line"/>
      <point x="374" y="754"/>
      <point x="269" y="729"/>
      <point x="131" y="710" type="curve"/>
      <point x="131" y="-59" type="line"/>
    </contour>
    <contour>
      <point x="441" y="370" type="line"/>
      <point x="441" y="388" type="line"/>
      <point x="146" y="388" type="line"/>
      <point x="146" y="370" type="line"/>
    </contour>
    <contour>
      <point x="857" y="370" type="line"/>
      <point x="857" y="388" type="line"/>
      <point x="544" y="388" type="line"/>
      <point x="544" y="370" type="line"/>
    </contour>
  </outline>
</glyph>
<glyph name="uni820C" format="2">
  <advance width="1000"/>
  <unicode hex="2F86"/>
  <unicode hex="820C"/>
  <outline>
    <contour>
      <point x="212" y="-70" type="line"/>
      <point x="212" y="279" type="line"/>
      <point x="795" y="279" type="line"/>
      <point x="795" y="-70" type="line"/>
      <point x="815" y="-70" type="line"/>
      <point x="815" y="297" type="line"/>
      <point x="192" y="297" type="line"/>
      <point x="192" y="-70" type="line"/>
    </contour>
    <contour>
      <point x="799" y="0" type="line"/>
      <point x="799" y="18" type="line"/>
      <point x="197" y="18" type="line"/>
      <point x="197" y="0" type="line"/>
    </contour>
    <contour>
      <point x="502" y="290" type="line"/>
      <point x="502" y="739" type="line"/>
      <point x="482" y="739" type="line"/>
      <point x="482" y="290" type="line"/>
    </contour>
    <contour>
      <point x="944" y="495" type="line"/>
      <point x="944" y="513" type="line"/>
      <point x="56" y="513" type="line"/>
      <point x="56" y="495" type="line"/>
    </contour>
    <contour>
      <point x="131" y="703" type="line"/>
      <point x="380" y="714"/>
      <point x="642" y="732"/>
      <point x="864" y="807" type="curve"/>
      <point x="854" y="823" type="line"/>
      <point x="647" y="754"/>
      <point x="388" y="730"/>
      <point x="128" y="722" type="curve"/>
    </contour>
  </outline>
</glyph>
<glyph name="uni821B" format="2">
  <advance width="1000"/>
  <unicode hex="2F87"/>
  <unicode hex="821B"/>
  <outline>
    <contour>
      <point x="768" y="830" type="line"/>
      <point x="768" y="-70" type="line"/>
      <point x="788" y="-70" type="line"/>
      <point x="788" y="830" type="line"/>
    </contour>
    <contour>
      <point x="956" y="217" type="line"/>
      <point x="496" y="217" type="line"/>
      <point x="496" y="199" type="line"/>
      <point x="956" y="199" type="line"/>
    </contour>
    <contour>
      <point x="944" y="633" type="line"/>
      <point x="516" y="633" type="line"/>
      <point x="516" y="615" type="line"/>
      <point x="944" y="615" type="line"/>
    </contour>
    <contour>
      <point x="505" y="199" type="line"/>
      <point x="532" y="288"/>
      <point x="559" y="437"/>
      <point x="570" y="523" type="curve"/>
      <point x="551" y="525" type="line"/>
      <point x="542" y="448"/>
      <point x="515" y="293"/>
      <point x="485" y="199" type="curve"/>
    </contour>
    <contour>
      <point x="56" y="342" type="line"/>
      <point x="170" y="476"/>
      <point x="224" y="634"/>
      <point x="250" y="822" type="curve"/>
      <point x="230" y="825" type="line"/>
      <point x="204" y="640"/>
      <point x="154" y="490"/>
      <point x="44" y="357" type="curve"/>
    </contour>
    <contour>
      <point x="360" y="281" type="line"/>
      <point x="311" y="333"/>
      <point x="247" y="390"/>
      <point x="189" y="434" type="curve"/>
      <point x="177" y="419" type="line"/>
      <point x="235" y="374"/>
      <point x="301" y="317"/>
      <point x="350" y="264" type="curve"/>
    </contour>
    <contour>
      <point x="99" y="-62" type="line"/>
      <point x="338" y="136"/>
      <point x="436" y="361"/>
      <point x="465" y="657" type="curve"/>
      <point x="465" y="673" type="line"/>
      <point x="210" y="673" type="line"/>
      <point x="210" y="655" type="line"/>
      <point x="445" y="655" type="line"/>
      <point x="416" y="370"/>
      <point x="326" y="151"/>
      <point x="88" y="-47" type="curve"/>
    </contour>
  </outline>
</glyph>
<glyph name="uni884C" format="2">
  <advance width="1000"/>
  <unicode hex="2F8F"/>
  <unicode hex="884C"/>
  <outline>
    <contour>
      <point x="435" y="754" type="line"/>
      <point x="920" y="754" type="line"/>
      <point x="920" y="772" type="line"/>
      <point x="435" y="772" type="line"/>
    </contour>
    <contour>
      <point x="403" y="482" type="line"/>
      <point x="944" y="482" type="line"/>
      <point x="944" y="500" type="line"/>
      <point x="403" y="500" type="line"/>
    </contour>
    <contour>
      <point x="722" y="-40" type="line" smooth="yes"/>
      <point x="742" y="-40"/>
      <point x="750" y="-32"/>
      <point x="750" y="-12" type="curve" smooth="yes"/>
      <point x="750" y="489" type="line"/>
      <point x="730" y="489" type="line"/>
      <point x="730" y="-22" type="line"/>
      <point x="518" y="-22" type="line"/>
      <point x="523" y="-40" type="line"/>
    </contour>
    <contour>
      <point x="54" y="274" type="line"/>
      <point x="143" y="328"/>
      <point x="200" y="376"/>
      <point x="241" y="423" type="curve"/>
      <point x="246" y="427" type="line"/>
      <point x="288" y="472"/>
      <point x="330" y="522"/>
      <point x="376" y="585" type="curve"/>
      <point x="360" y="596" type="line"/>
      <point x="285" y="485"/>
      <point x="176" y="368"/>
      <point x="44" y="291" type="curve"/>
    </contour>
    <contour>
      <point x="252" y="-70" type="line"/>
      <point x="252" y="447" type="line"/>
      <point x="232" y="424" type="line"/>
      <point x="232" y="-70" type="line"/>
    </contour>
    <contour>
      <point x="62" y="546" type="line"/>
      <point x="185" y="620"/>
      <point x="282" y="710"/>
      <point x="358" y="822" type="curve"/>
      <point x="341" y="833" type="line"/>
      <point x="268" y="724"/>
      <point x="172" y="632"/>
      <point x="53" y="563" type="curve"/>
    </contour>
  </outline>
</glyph>
<glyph name="uni8A00" format="2">
  <advance width="1000"/>
  <unicode hex="2F94"/>
  <unicode hex="8A00"/>
  <outline>
    <contour>
      <point x="62" y="685" type="line"/>
      <point x="938" y="685" type="line"/>
      <point x="938" y="703" type="line"/>
      <point x="62" y="703" type="line"/>
    </contour>
    <contour>
      <point x="174" y="550" type="line"/>
      <point x="174" y="532" type="line"/>
      <point x="826" y="532" type="line"/>
      <point x="826" y="550" type="line"/>
    </contour>
    <contour>
      <point x="826" y="379" type="line"/>
      <point x="826" y="397" type="line"/>
      <point x="174" y="397" type="line"/>
      <point x="174" y="379" type="line"/>
    </contour>
    <contour>
      <point x="196" y="-68" type="line"/>
      <point x="196" y="3" type="line"/>
      <point x="804" y="3" type="line"/>
      <point x="804" y="-68" type="line"/>
      <point x="824" y="-68" type="line"/>
      <point x="824" y="235" type="line"/>
      <point x="176" y="235" type="line"/>
      <point x="176" y="-68" type="line"/>
    </contour>
    <contour>
      <point x="804" y="21" type="line"/>
      <point x="196" y="21" type="line"/>
      <point x="196" y="217" type="line"/>
      <point x="804" y="217" type="line"/>
    </contour>
    <contour>
      <point x="540" y="696" type="line"/>
      <point x="513" y="746"/>
      <point x="481" y="795"/>
      <point x="447" y="840" type="curve"/>
      <point x="430" y="830" type="line"/>
      <point x="463" y="787"/>
      <point x="493" y="740"/>
      <point x="518" y="697" type="curve"/>
    </contour>
  </outline>
</glyph>
<glyph name="uni8C55" format="2">
  <advance width="1000"/>
  <unicode hex="2F97"/>
  <unicode hex="8C55"/>
  <outline>
    <contour>
      <point x="403" y="-46" type="line" smooth="yes"/>
      <point x="530" y="-46"/>
      <point x="573" y="13"/>
      <point x="573" y="142" type="curve" smooth="yes"/>
      <point x="573" y="331"/>
      <point x="512" y="489"/>
      <point x="370" y="625" type="curve"/>
      <point x="356" y="612" type="line"/>
      <point x="494" y="483"/>
      <point x="553" y="324"/>
      <point x="553" y="145" type="curve" smooth="yes"/>
      <point x="553" y="15"/>
      <point x="511" y="-28"/>
      <point x="404" y="-28" type="curve" smooth="yes"/>
      <point x="306" y="-28" type="line"/>
      <point x="312" y="-46" type="line"/>
    </contour>
    <contour>
      <point x="59" y="30" type="line"/>
      <point x="261" y="101"/>
      <point x="437" y="205"/>
      <point x="537" y="332" type="curve"/>
      <point x="527" y="347" type="line"/>
      <point x="419" y="218"/>
      <point x="255" y="118"/>
      <point x="51" y="48" type="curve"/>
    </contour>
    <contour>
      <point x="58" y="259" type="line"/>
      <point x="222" y="313"/>
      <point x="372" y="395"/>
      <point x="467" y="488" type="curve"/>
      <point x="457" y="505" type="line"/>
      <point x="363" y="411"/>
      <point x="216" y="329"/>
      <point x="51" y="277" type="curve"/>
    </contour>
    <contour>
      <point x="77" y="491" type="line"/>
      <point x="263" y="541"/>
      <point x="441" y="629"/>
      <point x="539" y="770" type="curve"/>
      <point x="521" y="777" type="line"/>
      <point x="426" y="644"/>
      <point x="253" y="556"/>
      <point x="70" y="509" type="curve"/>
    </contour>
    <contour>
      <point x="950" y="47" type="line"/>
      <point x="805" y="169"/>
      <point x="722" y="332"/>
      <point x="676" y="494" type="curve"/>
      <point x="658" y="487" type="line"/>
      <point x="704" y="325"/>
      <point x="789" y="155"/>
      <point x="938" y="32" type="curve"/>
    </contour>
    <contour>
      <point x="520" y="400" type="line"/>
      <point x="657" y="459"/>
      <point x="792" y="544"/>
      <point x="891" y="632" type="curve"/>
      <point x="877" y="646" type="line"/>
      <point x="779" y="557"/>
      <point x="639" y="472"/>
      <point x="513" y="418" type="curve"/>
    </contour>
    <contour>
      <point x="930" y="766" type="line"/>
      <point x="930" y="784" type="line"/>
      <point x="70" y="784" type="line"/>
      <point x="70" y="766" type="line"/>
    </contour>
  </outline>
</glyph>
<glyph name="uni8D64" format="2">
  <advance width="1000"/>
  <unicode hex="2F9A"/>
  <unicode hex="8D64"/>
  <outline>
    <contour>
      <point x="123" y="-67" type="line"/>
      <point x="333" y="58"/>
      <point x="398" y="168"/>
      <point x="398" y="416" type="curve" smooth="yes"/>
      <point x="398" y="475" type="line"/>
      <point x="378" y="475" type="line"/>
      <point x="378" y="417" type="line" smooth="yes"/>
      <point x="378" y="183"/>
      <point x="321" y="70"/>
      <point x="112" y="-50" type="curve"/>
    </contour>
    <contour>
      <point x="59" y="102" type="line"/>
      <point x="144" y="178"/>
      <point x="204" y="270"/>
      <point x="233" y="363" type="curve"/>
      <point x="215" y="368" type="line"/>
      <point x="185" y="278"/>
      <point x="130" y="191"/>
      <point x="45" y="115" type="curve"/>
    </contour>
    <contour>
      <point x="947" y="87" type="line"/>
      <point x="901" y="187"/>
      <point x="842" y="285"/>
      <point x="786" y="360" type="curve"/>
      <point x="770" y="350" type="line"/>
      <point x="829" y="272"/>
      <point x="884" y="177"/>
      <point x="930" y="78" type="curve"/>
    </contour>
    <contour>
      <point x="950" y="466" type="line"/>
      <point x="950" y="484" type="line"/>
      <point x="50" y="484" type="line"/>
      <point x="50" y="466" type="line"/>
    </contour>
    <contour>
      <point x="502" y="475" type="line"/>
      <point x="502" y="830" type="line"/>
      <point x="482" y="830" type="line"/>
      <point x="482" y="475" type="line"/>
    </contour>
    <contour>
      <point x="602" y="-48" type="line" smooth="yes"/>
      <point x="622" y="-48"/>
      <point x="630" y="-40"/>
      <point x="630" y="-20" type="curve" smooth="yes"/>
      <point x="630" y="475" type="line"/>
      <point x="610" y="475" type="line"/>
      <point x="610" y="-30" type="line"/>
      <point x="417" y="-30" type="line"/>
      <point x="424" y="-48" type="line"/>
    </contour>
    <contour>
      <point x="878" y="670" type="line"/>
      <point x="878" y="688" type="line"/>
      <point x="123" y="688" type="line"/>
      <point x="123" y="670" type="line"/>
    </contour>
  </outline>
</glyph>
<glyph name="uni8DB3" format="2">
  <advance width="1000"/>
  <unicode hex="2F9C"/>
  <unicode hex="8DB3"/>
  <outline>
    <contour>
      <point x="64" y="-62" type="line"/>
      <point x="183" y="16"/>
      <point x="224" y="79"/>
      <point x="235" y="162" type="curve"/>
      <point x="239" y="162" type="line"/>
      <point x="260" y="26"/>
      <point x="389" y="-30"/>
      <point x="532" y="-30" type="curve" smooth="yes"/>
      <point x="938" y="-30" type="line"/>
      <point x="942" y="-12" type="line"/>
      <point x="529" y="-12" type="line" smooth="yes"/>
      <point x="364" y="-12"/>
      <point x="247" y="65"/>
      <point x="247" y="209" type="curve" smooth="yes"/>
      <point x="247" y="386" type="line"/>
      <point x="227" y="386" type="line"/>
      <point x="227" y="219" type="line" smooth="yes"/>
      <point x="227" y="105"/>
      <point x="179" y="33"/>
      <point x="53" y="-46" type="curve"/>
    </contour>
    <contour>
      <point x="521" y="-23" type="line"/>
      <point x="521" y="503" type="line"/>
      <point x="501" y="503" type="line"/>
      <point x="501" y="-23" type="line"/>
    </contour>
    <contour>
      <point x="881" y="261" type="line"/>
      <point x="881" y="279" type="line"/>
      <point x="519" y="279" type="line"/>
      <point x="519" y="261" type="line"/>
    </contour>
    <contour>
      <point x="837" y="492" type="line"/>
      <point x="837" y="790" type="line"/>
      <point x="166" y="790" type="line"/>
      <point x="166" y="492" type="line"/>
    </contour>
    <contour>
      <point x="186" y="772" type="line"/>
      <point x="817" y="772" type="line"/>
      <point x="817" y="510" type="line"/>
      <point x="186" y="510" type="line"/>
    </contour>
  </outline>
</glyph>
<glyph name="uni8F9B" format="2">
  <advance width="1000"/>
  <unicode hex="2F9F"/>
  <unicode hex="8F9B"/>
  <outline>
    <contour>
      <point x="950" y="385" type="line"/>
      <point x="950" y="403" type="line"/>
      <point x="50" y="403" type="line"/>
      <point x="50" y="385" type="line"/>
    </contour>
    <contour>
      <point x="502" y="-70" type="line"/>
      <point x="502" y="395" type="line"/>
      <point x="482" y="395" type="line"/>
      <point x="482" y="-70" type="line"/>
    </contour>
    <contour>
      <point x="910" y="159" type="line"/>
      <point x="910" y="177" type="line"/>
      <point x="90" y="177" type="line"/>
      <point x="90" y="159" type="line"/>
    </contour>
    <contour>
      <point x="365" y="457" type="line"/>
      <point x="345" y="513"/>
      <point x="304" y="595"/>
      <point x="278" y="636" type="curve"/>
      <point x="261" y="628" type="line"/>
      <point x="287" y="588"/>
      <point x="328" y="506"/>
      <point x="347" y="451" type="curve"/>
    </contour>
    <contour>
      <point x="900" y="685" type="line"/>
      <point x="900" y="703" type="line"/>
      <point x="100" y="703" type="line"/>
      <point x="100" y="685" type="line"/>
    </contour>
    <contour>
      <point x="615" y="395" type="line"/>
      <point x="660" y="458"/>
      <point x="709" y="552"/>
      <point x="738" y="630" type="curve"/>
      <point x="720" y="637" type="line"/>
      <point x="691" y="558"/>
      <point x="644" y="466"/>
      <point x="591" y="395" type="curve"/>
    </contour>
    <contour>
      <point x="534" y="697" type="line"/>
      <point x="513" y="744"/>
      <point x="490" y="790"/>
      <point x="465" y="833" type="curve"/>
      <point x="447" y="825" type="line"/>
      <point x="473" y="782"/>
      <point x="496" y="735"/>
      <point x="516" y="691" type="curve"/>
    </contour>
  </outline>
</glyph>
<glyph name="uni9091" format="2">
  <advance width="1000"/>
  <unicode hex="2FA2"/>
  <unicode hex="9091"/>
  <outline>
    <contour>
      <point x="167" y="790" type="line"/>
      <point x="167" y="583" type="line"/>
      <point x="833" y="583" type="line"/>
      <point x="833" y="790" type="line"/>
    </contour>
    <contour>
      <point x="187" y="772" type="line"/>
      <point x="813" y="772" type="line"/>
      <point x="813" y="601" type="line"/>
      <point x="187" y="601" type="line"/>
    </contour>
    <contour>
      <point x="483" y="454" type="line"/>
      <point x="483" y="242" type="line"/>
      <point x="137" y="242" type="line"/>
      <point x="137" y="224" type="line"/>
      <point x="861" y="224" type="line"/>
      <point x="861" y="472" type="line"/>
      <point x="129" y="472" type="line"/>
      <point x="129" y="454" type="line"/>
    </contour>
    <contour>
      <point x="503" y="454" type="line"/>
      <point x="841" y="454" type="line"/>
      <point x="841" y="242" type="line"/>
      <point x="503" y="242" type="line"/>
    </contour>
    <contour>
      <point x="893" y="-42" type="line" smooth="yes"/>
      <point x="913" y="-42"/>
      <point x="921" y="-34"/>
      <point x="921" y="-14" type="curve" smooth="yes"/>
      <point x="921" y="125" type="line"/>
      <point x="901" y="133" type="line"/>
      <point x="901" y="-24" type="line"/>
      <point x="253" y="-24" type="line" smooth="yes"/>
      <point x="174" y="-24"/>
      <point x="149" y="-10"/>
      <point x="149" y="76" type="curve" smooth="yes"/>
      <point x="149" y="466" type="line"/>
      <point x="129" y="466" type="line"/>
      <point x="129" y="78" type="line" smooth="yes"/>
      <point x="129" y="-17"/>
      <point x="158" y="-42"/>
      <point x="253" y="-42" type="curve" smooth="yes"/>
    </contour>
  </outline>
</glyph>
<glyph name="uni91D1" format="2">
  <advance width="1000"/>
  <unicode hex="2FA6"/>
  <unicode hex="91D1"/>
  <outline>
    <contour>
      <point x="892" y="331" type="line"/>
      <point x="892" y="349" type="line"/>
      <point x="107" y="349" type="line"/>
      <point x="107" y="331" type="line"/>
    </contour>
    <contour>
      <point x="733" y="524" type="line"/>
      <point x="733" y="542" type="line"/>
      <point x="265" y="542" type="line"/>
      <point x="265" y="524" type="line"/>
    </contour>
    <contour>
      <point x="502" y="537" type="line"/>
      <point x="482" y="537" type="line"/>
      <point x="482" y="-12" type="line"/>
      <point x="502" y="-12" type="line"/>
    </contour>
    <contour>
      <point x="929" y="-20" type="line"/>
      <point x="929" y="-2" type="line"/>
      <point x="70" y="-2" type="line"/>
      <point x="70" y="-20" type="line"/>
    </contour>
    <contour>
      <point x="336" y="81" type="line"/>
      <point x="304" y="142"/>
      <point x="256" y="211"/>
      <point x="219" y="258" type="curve"/>
      <point x="203" y="249" type="line"/>
      <point x="245" y="194"/>
      <point x="286" y="135"/>
      <point x="319" y="73" type="curve"/>
    </contour>
    <contour>
      <point x="678" y="72" type="line"/>
      <point x="721" y="122"/>
      <point x="766" y="193"/>
      <point x="794" y="250" type="curve"/>
      <point x="777" y="258" type="line"/>
      <point x="749" y="200"/>
      <point x="704" y="133"/>
      <point x="662" y="83" type="curve"/>
    </contour>
    <contour>
      <point x="49" y="475" type="line"/>
      <point x="313" y="589"/>
      <point x="444" y="700"/>
      <point x="490" y="816" type="curve"/>
      <point x="494" y="816" type="line"/>
      <point x="539" y="700"/>
      <point x="680" y="589"/>
      <point x="951" y="475" type="curve"/>
      <point x="959" y="492" type="line"/>
      <point x="691" y="603"/>
      <point x="555" y="713"/>
      <point x="502" y="829" type="curve"/>
      <point x="482" y="829" type="line"/>
      <point x="427" y="712"/>
      <point x="302" y="603"/>
      <point x="41" y="492" type="curve"/>
    </contour>
  </outline>
</glyph>
<glyph name="uni961C" format="2">
  <advance width="1000"/>
  <unicode hex="2FA9"/>
  <unicode hex="961C"/>
  <outline>
    <contour>
      <point x="871" y="269" type="line"/>
      <point x="871" y="457" type="line"/>
      <point x="176" y="457" type="line"/>
      <point x="176" y="558" type="line"/>
      <point x="833" y="558" type="line"/>
      <point x="833" y="741" type="line"/>
      <point x="156" y="741" type="line"/>
      <point x="156" y="269" type="line"/>
    </contour>
    <contour>
      <point x="502" y="-70" type="line"/>
      <point x="502" y="274" type="line"/>
      <point x="482" y="274" type="line"/>
      <point x="482" y="-70" type="line"/>
    </contour>
    <contour>
      <point x="950" y="124" type="line"/>
      <point x="950" y="142" type="line"/>
      <point x="50" y="142" type="line"/>
      <point x="50" y="124" type="line"/>
    </contour>
    <contour>
      <point x="176" y="439" type="line"/>
      <point x="851" y="439" type="line"/>
      <point x="851" y="287" type="line"/>
      <point x="176" y="287" type="line"/>
    </contour>
    <contour>
      <point x="176" y="723" type="line"/>
      <point x="813" y="723" type="line"/>
      <point x="813" y="576" type="line"/>
      <point x="176" y="576" type="line"/>
    </contour>
    <contour>
      <point x="461" y="734" type="line"/>
      <point x="482" y="767"/>
      <point x="499" y="807"/>
      <point x="508" y="835" type="curve"/>
      <point x="488" y="837" type="line"/>
      <point x="479" y="807"/>
      <point x="462" y="770"/>
      <point x="441" y="737" type="curve"/>
    </contour>
  </outline>
</glyph>
<glyph name="uni96B9" format="2">
  <advance width="1000"/>
  <unicode hex="2FAB"/>
  <unicode hex="96B9"/>
  <outline>
    <contour>
      <point x="52" y="400" type="line"/>
      <point x="176" y="502"/>
      <point x="268" y="651"/>
      <point x="320" y="820" type="curve"/>
      <point x="301" y="826" type="line"/>
      <point x="251" y="660"/>
      <point x="160" y="516"/>
      <point x="40" y="416" type="curve"/>
    </contour>
    <contour>
      <point x="221" y="-72" type="line"/>
      <point x="221" y="603" type="line"/>
      <point x="201" y="603" type="line"/>
      <point x="201" y="-72" type="line"/>
    </contour>
    <contour>
      <point x="960" y="7" type="line"/>
      <point x="960" y="25" type="line"/>
      <point x="214" y="25" type="line"/>
      <point x="214" y="7" type="line"/>
    </contour>
    <contour>
      <point x="898" y="228" type="line"/>
      <point x="898" y="246" type="line"/>
      <point x="214" y="246" type="line"/>
      <point x="214" y="228" type="line"/>
    </contour>
    <contour>
      <point x="577" y="17" type="line"/>
      <point x="577" y="642" type="line"/>
      <point x="557" y="642" type="line"/>
      <point x="557" y="17" type="line"/>
    </contour>
    <contour>
      <point x="896" y="430" type="line"/>
      <point x="896" y="448" type="line"/>
      <point x="214" y="448" type="line"/>
      <point x="214" y="430" type="line"/>
    </contour>
    <contour>
      <point x="941" y="631" type="line"/>
      <point x="941" y="649" type="line"/>
      <point x="232" y="649" type="line"/>
      <point x="232" y="631" type="line"/>
    </contour>
    <contour>
      <point x="650" y="647" type="line"/>
      <point x="623" y="708"/>
      <point x="585" y="773"/>
      <point x="548" y="827" type="curve"/>
      <point x="531" y="817" type="line"/>
      <point x="564" y="772"/>
      <point x="607" y="700"/>
      <point x="632" y="642" type="curve"/>
    </contour>
  </outline>
</glyph>
<glyph name="uni975E" format="2">
  <advance width="1000"/>
  <unicode hex="2FAE"/>
  <unicode hex="975E"/>
  <outline>
    <contour>
      <point x="607" y="-66" type="line"/>
      <point x="607" y="830" type="line"/>
      <point x="587" y="830" type="line"/>
      <point x="587" y="-66" type="line"/>
    </contour>
    <contour>
      <point x="383" y="162" type="line"/>
      <point x="383" y="180" type="line"/>
      <point x="54" y="180" type="line"/>
      <point x="54" y="162" type="line"/>
    </contour>
    <contour>
      <point x="387" y="404" type="line"/>
      <point x="387" y="422" type="line"/>
      <point x="90" y="422" type="line"/>
      <point x="90" y="404" type="line"/>
    </contour>
    <contour>
      <point x="396" y="-66" type="line"/>
      <point x="396" y="830" type="line"/>
      <point x="376" y="830" type="line"/>
      <point x="376" y="-66" type="line"/>
    </contour>
    <contour>
      <point x="391" y="632" type="line"/>
      <point x="391" y="650" type="line"/>
      <point x="66" y="650" type="line"/>
      <point x="66" y="632" type="line"/>
    </contour>
    <contour>
      <point x="947" y="162" type="line"/>
      <point x="947" y="180" type="line"/>
      <point x="597" y="180" type="line"/>
      <point x="597" y="162" type="line"/>
    </contour>
    <contour>
      <point x="910" y="404" type="line"/>
      <point x="910" y="422" type="line"/>
      <point x="597" y="422" type="line"/>
      <point x="597" y="404" type="line"/>
    </contour>
    <contour>
      <point x="933" y="632" type="line"/>
      <point x="933" y="650" type="line"/>
      <point x="597" y="650" type="line"/>
      <point x="597" y="632" type="line"/>
    </contour>
  </outline>
</glyph>
<glyph name="uni9762" format="2">
  <advance width="1000"/>
  <unicode hex="2FAF"/>
  <unicode hex="9762"/>
  <outline>
    <contour>
      <point x="133" y="-70" type="line"/>
      <point x="133" y="580" type="line"/>
      <point x="868" y="580" type="line"/>
      <point x="868" y="-70" type="line"/>
      <point x="888" y="-70" type="line"/>
      <point x="888" y="598" type="line"/>
      <point x="113" y="598" type="line"/>
      <point x="113" y="-70" type="line"/>
    </contour>
    <contour>
      <point x="877" y="6" type="line"/>
      <point x="877" y="24" type="line"/>
      <point x="125" y="24" type="line"/>
      <point x="125" y="6" type="line"/>
    </contour>
    <contour>
      <point x="358" y="16" type="line"/>
      <point x="358" y="591" type="line"/>
      <point x="338" y="591" type="line"/>
      <point x="338" y="16" type="line"/>
    </contour>
    <contour>
      <point x="648" y="200" type="line"/>
      <point x="648" y="218" type="line"/>
      <point x="347" y="218" type="line"/>
      <point x="347" y="200" type="line"/>
    </contour>
    <contour>
      <point x="649" y="392" type="line"/>
      <point x="649" y="410" type="line"/>
      <point x="348" y="410" type="line"/>
      <point x="348" y="392" type="line"/>
    </contour>
    <contour>
      <point x="660" y="16" type="line"/>
      <point x="660" y="591" type="line"/>
      <point x="640" y="591" type="line"/>
      <point x="640" y="16" type="line"/>
    </contour>
    <contour>
      <point x="467" y="594" type="line"/>
      <point x="492" y="638"/>
      <point x="519" y="719"/>
      <point x="534" y="768" type="curve"/>
      <point x="514" y="768" type="line"/>
      <point x="500" y="718"/>
      <point x="472" y="640"/>
      <point x="445" y="594" type="curve"/>
    </contour>
    <contour>
      <point x="950" y="762" type="line"/>
      <point x="950" y="780" type="line"/>
      <point x="50" y="780" type="line"/>
      <point x="50" y="762" type="line"/>
    </contour>
  </outline>
</glyph>
<glyph name="uni97ED" format="2">
  <advance width="1000"/>
  <unicode hex="2FB2"/>
  <unicode hex="97ED"/>
  <outline>
    <contour>
      <point x="604" y="-22" type="line"/>
      <point x="604" y="830" type="line"/>
      <point x="584" y="830" type="line"/>
      <point x="584" y="-22" type="line"/>
    </contour>
    <contour>
      <point x="908" y="656" type="line"/>
      <point x="595" y="656" type="line"/>
      <point x="595" y="638" type="line"/>
      <point x="908" y="638" type="line"/>
    </contour>
    <contour>
      <point x="897" y="438" type="line"/>
      <point x="595" y="438" type="line"/>
      <point x="595" y="420" type="line"/>
      <point x="897" y="420" type="line"/>
    </contour>
    <contour>
      <point x="914" y="220" type="line"/>
      <point x="595" y="220" type="line"/>
      <point x="595" y="202" type="line"/>
      <point x="914" y="202" type="line"/>
    </contour>
    <contour>
      <point x="399" y="830" type="line"/>
      <point x="379" y="830" type="line"/>
      <point x="379" y="-22" type="line"/>
      <point x="399" y="-22" type="line"/>
    </contour>
    <contour>
      <point x="389" y="638" type="line"/>
      <point x="389" y="656" type="line"/>
      <point x="92" y="656" type="line"/>
      <point x="92" y="638" type="line"/>
    </contour>
    <contour>
      <point x="389" y="420" type="line"/>
      <point x="389" y="438" type="line"/>
      <point x="103" y="438" type="line"/>
      <point x="103" y="420" type="line"/>
    </contour>
    <contour>
      <point x="389" y="202" type="line"/>
      <point x="389" y="220" type="line"/>
      <point x="86" y="220" type="line"/>
      <point x="86" y="202" type="line"/>
    </contour>
    <contour>
      <point x="950" y="-30" type="line"/>
      <point x="950" y="-12" type="line"/>
      <point x="50" y="-12" type="line"/>
      <point x="50" y="-30" type="line"/>
    </contour>
  </outline>
</glyph>
<glyph name="uni97F3" format="2">
  <advance width="1000"/>
  <unicode hex="2FB3"/>
  <unicode hex="97F3"/>
  <outline>
    <contour>
      <point x="353" y="537" type="line"/>
      <point x="332" y="580"/>
      <point x="297" y="639"/>
      <point x="271" y="674" type="curve"/>
      <point x="254" y="665" type="line"/>
      <point x="279" y="631"/>
      <point x="315" y="572"/>
      <point x="336" y="528" type="curve"/>
    </contour>
    <contour>
      <point x="939" y="475" type="line"/>
      <point x="939" y="493" type="line"/>
      <point x="61" y="493" type="line"/>
      <point x="61" y="475" type="line"/>
    </contour>
    <contour>
      <point x="909" y="714" type="line"/>
      <point x="909" y="732" type="line"/>
      <point x="91" y="732" type="line"/>
      <point x="91" y="714" type="line"/>
    </contour>
    <contour>
      <point x="643" y="483" type="line"/>
      <point x="682" y="537"/>
      <point x="718" y="601"/>
      <point x="749" y="664" type="curve"/>
      <point x="731" y="671" type="line"/>
      <point x="702" y="610"/>
      <point x="665" y="545"/>
      <point x="622" y="486" type="curve"/>
    </contour>
    <contour>
      <point x="537" y="729" type="line"/>
      <point x="513" y="768"/>
      <point x="487" y="806"/>
      <point x="461" y="840" type="curve"/>
      <point x="445" y="829" type="line"/>
      <point x="471" y="796"/>
      <point x="497" y="759"/>
      <point x="520" y="721" type="curve"/>
    </contour>
    <contour>
      <point x="807" y="187" type="line"/>
      <point x="188" y="187" type="line"/>
      <point x="188" y="169" type="line"/>
      <point x="807" y="169" type="line"/>
    </contour>
    <contour>
      <point x="178" y="359" type="line"/>
      <point x="178" y="-70" type="line"/>
      <point x="198" y="-70" type="line"/>
      <point x="198" y="-5" type="line"/>
      <point x="802" y="-5" type="line"/>
      <point x="802" y="-70" type="line"/>
      <point x="822" y="-70" type="line"/>
      <point x="822" y="359" type="line"/>
    </contour>
    <contour>
      <point x="198" y="341" type="line"/>
      <point x="802" y="341" type="line"/>
      <point x="802" y="13" type="line"/>
      <point x="198" y="13" type="line"/>
    </contour>
  </outline>
</glyph>
<glyph name="uni9996" format="2">
  <advance width="1000"/>
  <unicode hex="2FB8"/>
  <unicode hex="9996"/>
  <outline>
    <contour>
      <point x="194" y="-70" type="line"/>
      <point x="194" y="4" type="line"/>
      <point x="808" y="4" type="line"/>
      <point x="808" y="-70" type="line"/>
      <point x="828" y="-70" type="line"/>
      <point x="828" y="527" type="line"/>
      <point x="174" y="527" type="line"/>
      <point x="174" y="-70" type="line"/>
    </contour>
    <contour>
      <point x="194" y="179" type="line"/>
      <point x="808" y="179" type="line"/>
      <point x="808" y="22" type="line"/>
      <point x="194" y="22" type="line"/>
    </contour>
    <contour>
      <point x="194" y="344" type="line"/>
      <point x="808" y="344" type="line"/>
      <point x="808" y="197" type="line"/>
      <point x="194" y="197" type="line"/>
    </contour>
    <contour>
      <point x="194" y="509" type="line"/>
      <point x="808" y="509" type="line"/>
      <point x="808" y="362" type="line"/>
      <point x="194" y="362" type="line"/>
    </contour>
    <contour>
      <point x="449" y="523" type="line"/>
      <point x="473" y="576"/>
      <point x="489" y="629"/>
      <point x="502" y="669" type="curve"/>
      <point x="482" y="669" type="line"/>
      <point x="470" y="628"/>
      <point x="453" y="575"/>
      <point x="428" y="523" type="curve"/>
    </contour>
    <contour>
      <point x="357" y="714" type="line"/>
      <point x="331" y="753"/>
      <point x="301" y="792"/>
      <point x="263" y="832" type="curve"/>
      <point x="247" y="821" type="line"/>
      <point x="285" y="782"/>
      <point x="315" y="742"/>
      <point x="340" y="705" type="curve"/>
    </contour>
    <contour>
      <point x="945" y="661" type="line"/>
      <point x="945" y="679" type="line"/>
      <point x="55" y="679" type="line"/>
      <point x="55" y="661" type="line"/>
    </contour>
    <contour>
      <point x="635" y="669" type="line"/>
      <point x="680" y="720"/>
      <point x="717" y="773"/>
      <point x="751" y="825" type="curve"/>
      <point x="733" y="833" type="line"/>
      <point x="704" y="785"/>
      <point x="662" y="727"/>
      <point x="612" y="671" type="curve"/>
    </contour>
  </outline>
</glyph>
<glyph name="uni9999" format="2">
  <advance width="1000"/>
  <unicode hex="2FB9"/>
  <unicode hex="9999"/>
  <outline>
    <contour>
      <point x="784" y="178" type="line"/>
      <point x="215" y="178" type="line"/>
      <point x="215" y="160" type="line"/>
      <point x="784" y="160" type="line"/>
    </contour>
    <contour>
      <point x="54" y="335" type="line"/>
      <point x="315" y="422"/>
      <point x="432" y="500"/>
      <point x="478" y="591" type="curve"/>
      <point x="482" y="591" type="line"/>
      <point x="482" y="374" type="line"/>
      <point x="502" y="374" type="line"/>
      <point x="502" y="591" type="line"/>
      <point x="506" y="591" type="line"/>
      <point x="552" y="500"/>
      <point x="682" y="422"/>
      <point x="946" y="335" type="curve"/>
      <point x="954" y="352" type="line"/>
      <point x="716" y="430"/>
      <point x="579" y="502"/>
      <point x="510" y="606" type="curve"/>
      <point x="502" y="606" type="line"/>
      <point x="502" y="769" type="line"/>
      <point x="482" y="769" type="line"/>
      <point x="482" y="606" type="line"/>
      <point x="474" y="606" type="line"/>
      <point x="405" y="502"/>
      <point x="282" y="430"/>
      <point x="46" y="352" type="curve"/>
    </contour>
    <contour>
      <point x="938" y="593" type="line"/>
      <point x="938" y="611" type="line"/>
      <point x="61" y="611" type="line"/>
      <point x="61" y="593" type="line"/>
    </contour>
    <contour>
      <point x="118" y="749" type="line"/>
      <point x="358" y="747"/>
      <point x="647" y="760"/>
      <point x="862" y="807" type="curve"/>
      <point x="852" y="823" type="line"/>
      <point x="627" y="775"/>
      <point x="349" y="766"/>
      <point x="113" y="767" type="curve"/>
    </contour>
    <contour>
      <point x="198" y="340" type="line"/>
      <point x="198" y="-70" type="line"/>
      <point x="218" y="-70" type="line"/>
      <point x="218" y="-7" type="line"/>
      <point x="782" y="-7" type="line"/>
      <point x="782" y="-70" type="line"/>
      <point x="802" y="-70" type="line"/>
      <point x="802" y="340" type="line"/>
    </contour>
    <contour>
      <point x="218" y="322" type="line"/>
      <point x="782" y="322" type="line"/>
      <point x="782" y="11" type="line"/>
      <point x="218" y="11" type="line"/>
    </contour>
  </outline>
</glyph>
<glyph name="uni9AA8" format="2">
  <advance width="1000"/>
  <unicode hex="2FBB"/>
  <unicode hex="9AA8"/>
  <outline>
    <contour>
      <point x="92" y="363" type="line"/>
      <point x="112" y="363" type="line"/>
      <point x="112" y="512" type="line"/>
      <point x="889" y="512" type="line"/>
      <point x="889" y="363" type="line"/>
      <point x="909" y="363" type="line"/>
      <point x="909" y="530" type="line"/>
      <point x="92" y="530" type="line"/>
    </contour>
    <contour>
      <point x="198" y="523" type="line"/>
      <point x="218" y="523" type="line"/>
      <point x="218" y="772" type="line"/>
      <point x="782" y="772" type="line"/>
      <point x="782" y="523" type="line"/>
      <point x="802" y="523" type="line"/>
      <point x="802" y="790" type="line"/>
      <point x="198" y="790" type="line"/>
    </contour>
    <contour>
      <point x="575" y="671" type="line"/>
      <point x="210" y="671" type="line"/>
      <point x="210" y="653" type="line"/>
      <point x="555" y="653" type="line"/>
      <point x="555" y="517" type="line"/>
      <point x="575" y="517" type="line"/>
    </contour>
    <contour>
      <point x="213" y="-71" type="line"/>
      <point x="233" y="-71" type="line"/>
      <point x="233" y="383" type="line"/>
      <point x="768" y="383" type="line"/>
      <point x="768" y="-40" type="line"/>
      <point x="560" y="-40" type="line"/>
      <point x="567" y="-58" type="line"/>
      <point x="760" y="-58" type="line" smooth="yes"/>
      <point x="780" y="-58"/>
      <point x="788" y="-50"/>
      <point x="788" y="-30" type="curve" smooth="yes"/>
      <point x="788" y="401" type="line"/>
      <point x="213" y="401" type="line"/>
    </contour>
    <contour>
      <point x="779" y="264" type="line"/>
      <point x="227" y="264" type="line"/>
      <point x="227" y="246" type="line"/>
      <point x="779" y="246" type="line"/>
    </contour>
    <contour>
      <point x="779" y="128" type="line"/>
      <point x="227" y="128" type="line"/>
      <point x="227" y="110" type="line"/>
      <point x="779" y="110" type="line"/>
    </contour>
  </outline>
</glyph>
<glyph name="uni9AD8" format="2">
  <advance width="1000"/>
  <unicode hex="2FBC"/>
  <unicode hex="9AD8"/>
  <outline>
    <contour>
      <point x="298" y="84" type="line"/>
      <point x="298" y="229" type="line"/>
      <point x="695" y="229" type="line"/>
      <point x="695" y="84" type="line"/>
    </contour>
    <contour>
      <point x="278" y="247" type="line"/>
      <point x="278" y="4" type="line"/>
      <point x="298" y="4" type="line"/>
      <point x="298" y="66" type="line"/>
      <point x="715" y="66" type="line"/>
      <point x="715" y="247" type="line"/>
    </contour>
    <contour>
      <point x="218" y="451" type="line"/>
      <point x="782" y="451" type="line"/>
      <point x="782" y="623" type="line"/>
      <point x="218" y="623" type="line"/>
    </contour>
    <contour>
      <point x="238" y="605" type="line"/>
      <point x="762" y="605" type="line"/>
      <point x="762" y="469" type="line"/>
      <point x="238" y="469" type="line"/>
    </contour>
    <contour>
      <point x="99" y="-70" type="line"/>
      <point x="119" y="-70" type="line"/>
      <point x="119" y="342" type="line"/>
      <point x="880" y="342" type="line"/>
      <point x="880" y="-38" type="line"/>
      <point x="685" y="-38" type="line"/>
      <point x="691" y="-56" type="line"/>
      <point x="872" y="-56" type="line" smooth="yes"/>
      <point x="892" y="-56"/>
      <point x="900" y="-48"/>
      <point x="900" y="-28" type="curve" smooth="yes"/>
      <point x="900" y="360" type="line"/>
      <point x="99" y="360" type="line"/>
    </contour>
    <contour>
      <point x="934" y="700" type="line"/>
      <point x="934" y="718" type="line"/>
      <point x="66" y="718" type="line"/>
      <point x="66" y="700" type="line"/>
    </contour>
    <contour>
      <point x="538" y="715" type="line"/>
      <point x="515" y="758"/>
      <point x="489" y="800"/>
      <point x="460" y="840" type="curve"/>
      <point x="443" y="829" type="line"/>
      <point x="474" y="789"/>
      <point x="498" y="750"/>
      <point x="521" y="706" type="curve"/>
    </contour>
  </outline>
</glyph>
<glyph name="uni9ADF" format="2">
  <advance width="1000"/>
  <unicode hex="2FBD"/>
  <unicode hex="9ADF"/>
  <outline>
    <contour>
      <point x="881" y="820" type="line"/>
      <point x="806" y="723"/>
      <point x="692" y="634"/>
      <point x="564" y="578" type="curve"/>
      <point x="571" y="560" type="line"/>
      <point x="696" y="614"/>
      <point x="821" y="709"/>
      <point x="897" y="808" type="curve"/>
    </contour>
    <contour>
      <point x="901" y="556" type="line"/>
      <point x="824" y="459"/>
      <point x="696" y="353"/>
      <point x="565" y="289" type="curve"/>
      <point x="572" y="271" type="line"/>
      <point x="706" y="337"/>
      <point x="838" y="445"/>
      <point x="917" y="545" type="curve"/>
    </contour>
    <contour>
      <point x="932" y="285" type="line"/>
      <point x="846" y="161"/>
      <point x="691" y="21"/>
      <point x="541" y="-52" type="curve"/>
      <point x="549" y="-70" type="line"/>
      <point x="701" y="7"/>
      <point x="859" y="146"/>
      <point x="948" y="274" type="curve"/>
    </contour>
    <contour>
      <point x="50" y="307" type="line"/>
      <point x="513" y="307" type="line"/>
      <point x="513" y="325" type="line"/>
      <point x="50" y="325" type="line"/>
    </contour>
    <contour>
      <point x="477" y="638" type="line"/>
      <point x="145" y="638" type="line"/>
      <point x="145" y="620" type="line"/>
      <point x="477" y="620" type="line"/>
    </contour>
    <contour>
      <point x="477" y="485" type="line"/>
      <point x="145" y="485" type="line"/>
      <point x="145" y="467" type="line"/>
      <point x="477" y="467" type="line"/>
    </contour>
    <contour>
      <point x="469" y="51" type="line"/>
      <point x="352" y="32"/>
      <point x="225" y="15"/>
      <point x="83" y="-1" type="curve"/>
      <point x="87" y="-19" type="line"/>
      <point x="230" y="-3"/>
      <point x="359" y="14"/>
      <point x="472" y="32" type="curve"/>
    </contour>
    <contour>
      <point x="523" y="-44" type="line"/>
      <point x="475" y="52"/>
      <point x="413" y="154"/>
      <point x="356" y="230" type="curve"/>
      <point x="340" y="219" type="line"/>
      <point x="395" y="143"/>
      <point x="459" y="39"/>
      <point x="507" y="-54" type="curve"/>
    </contour>
    <contour>
      <point x="104" y="-3" type="line"/>
      <point x="163" y="70"/>
      <point x="220" y="193"/>
      <point x="259" y="314" type="curve"/>
      <point x="239" y="316" type="line"/>
      <point x="200" y="195"/>
      <point x="143" y="74"/>
      <point x="83" y="-1" type="curve"/>
    </contour>
    <contour>
      <point x="155" y="315" type="line"/>
      <point x="155" y="772" type="line"/>
      <point x="500" y="772" type="line"/>
      <point x="500" y="790" type="line"/>
      <point x="135" y="790" type="line"/>
      <point x="135" y="315" type="line"/>
    </contour>
  </outline>
</glyph>
<glyph name="uni9B3C" format="2">
  <advance width="1000"/>
  <unicode hex="2FC1"/>
  <unicode hex="9B3C"/>
  <outline>
    <contour>
      <point x="59" y="-62" type="line"/>
      <point x="397" y="64"/>
      <point x="502" y="200"/>
      <point x="502" y="546" type="curve" smooth="yes"/>
      <point x="502" y="718" type="line"/>
      <point x="482" y="718" type="line"/>
      <point x="482" y="546" type="line" smooth="yes"/>
      <point x="482" y="210"/>
      <point x="384" y="78"/>
      <point x="50" y="-45" type="curve"/>
    </contour>
    <contour>
      <point x="914" y="-39" type="line" smooth="yes"/>
      <point x="934" y="-39"/>
      <point x="942" y="-31"/>
      <point x="942" y="-11" type="curve" smooth="yes"/>
      <point x="942" y="62" type="line"/>
      <point x="922" y="67" type="line"/>
      <point x="922" y="-21" type="line"/>
      <point x="625" y="-21" type="line" smooth="yes"/>
      <point x="568" y="-21"/>
      <point x="551" y="-4"/>
      <point x="551" y="49" type="curve" smooth="yes"/>
      <point x="551" y="283" type="line"/>
      <point x="531" y="283" type="line"/>
      <point x="531" y="51" type="line" smooth="yes"/>
      <point x="531" y="-15"/>
      <point x="554" y="-39"/>
      <point x="625" y="-39" type="curve" smooth="yes"/>
    </contour>
    <contour>
      <point x="611" y="96" type="line"/>
      <point x="710" y="103"/>
      <point x="791" y="111"/>
      <point x="870" y="125" type="curve"/>
      <point x="867" y="143" type="line"/>
      <point x="785" y="128"/>
      <point x="708" y="119"/>
      <point x="606" y="113" type="curve"/>
    </contour>
    <contour>
      <point x="626" y="108" type="line"/>
      <point x="672" y="156"/>
      <point x="712" y="220"/>
      <point x="746" y="295" type="curve"/>
      <point x="728" y="302" type="line"/>
      <point x="693" y="225"/>
      <point x="652" y="159"/>
      <point x="606" y="113" type="curve"/>
    </contour>
    <contour>
      <point x="831" y="534" type="line"/>
      <point x="831" y="552" type="line"/>
      <point x="160" y="552" type="line"/>
      <point x="160" y="534" type="line"/>
    </contour>
    <contour>
      <point x="902" y="92" type="line"/>
      <point x="872" y="142"/>
      <point x="825" y="208"/>
      <point x="792" y="244" type="curve"/>
      <point x="777" y="232" type="line"/>
      <point x="810" y="196"/>
      <point x="857" y="129"/>
      <point x="886" y="81" type="curve"/>
    </contour>
    <contour>
      <point x="845" y="353" type="line"/>
      <point x="845" y="731" type="line"/>
      <point x="148" y="731" type="line"/>
      <point x="148" y="353" type="line"/>
    </contour>
    <contour>
      <point x="168" y="713" type="line"/>
      <point x="825" y="713" type="line"/>
      <point x="825" y="371" type="line"/>
      <point x="168" y="371" type="line"/>
    </contour>
    <contour>
      <point x="438" y="722" type="line"/>
      <point x="465" y="759"/>
      <point x="485" y="800"/>
      <point x="497" y="836" type="curve"/>
      <point x="477" y="840" type="line"/>
      <point x="467" y="806"/>
      <point x="446" y="764"/>
      <point x="415" y="722" type="curve"/>
    </contour>
  </outline>
</glyph>
<glyph name="uni9ECD" format="2">
  <advance width="1000"/>
  <unicode hex="2FC9"/>
  <unicode hex="9ECD"/>
  <outline>
    <contour>
      <point x="58" y="385" type="line"/>
      <point x="317" y="459"/>
      <point x="433" y="529"/>
      <point x="478" y="609" type="curve"/>
      <point x="482" y="609" type="line"/>
      <point x="482" y="457" type="line"/>
      <point x="502" y="457" type="line"/>
      <point x="502" y="541" type="line" smooth="yes"/>
      <point x="502" y="546"/>
      <point x="505" y="549"/>
      <point x="510" y="547" type="curve" smooth="yes"/>
      <point x="930" y="389" type="line"/>
      <point x="938" y="407" type="line"/>
      <point x="522" y="563" type="line" smooth="yes"/>
      <point x="515" y="566"/>
      <point x="511" y="564"/>
      <point x="508" y="559" type="curve" smooth="yes"/>
      <point x="505" y="554" type="line"/>
      <point x="502" y="554" type="line"/>
      <point x="502" y="771" type="line"/>
      <point x="482" y="771" type="line"/>
      <point x="482" y="623" type="line"/>
      <point x="474" y="623" type="line"/>
      <point x="407" y="532"/>
      <point x="287" y="471"/>
      <point x="50" y="403" type="curve"/>
    </contour>
    <contour>
      <point x="90" y="-11" type="line"/>
      <point x="247" y="39"/>
      <point x="374" y="89"/>
      <point x="497" y="145" type="curve"/>
      <point x="491" y="163" type="line"/>
      <point x="367" y="107"/>
      <point x="234" y="54"/>
      <point x="83" y="8" type="curve"/>
    </contour>
    <contour>
      <point x="358" y="164" type="line"/>
      <point x="317" y="203"/>
      <point x="267" y="241"/>
      <point x="224" y="272" type="curve"/>
      <point x="210" y="258" type="line"/>
      <point x="253" y="229"/>
      <point x="302" y="190"/>
      <point x="345" y="150" type="curve"/>
    </contour>
    <contour>
      <point x="479" y="-56" type="line" smooth="yes"/>
      <point x="499" y="-56"/>
      <point x="507" y="-48"/>
      <point x="507" y="-28" type="curve" smooth="yes"/>
      <point x="507" y="141" type="line" smooth="yes"/>
      <point x="507" y="146"/>
      <point x="510" y="149"/>
      <point x="515" y="147" type="curve" smooth="yes"/>
      <point x="905" y="-21" type="line"/>
      <point x="913" y="-3" type="line"/>
      <point x="527" y="163" type="line" smooth="yes"/>
      <point x="520" y="166"/>
      <point x="516" y="164"/>
      <point x="513" y="159" type="curve" smooth="yes"/>
      <point x="510" y="154" type="line"/>
      <point x="507" y="154" type="line"/>
      <point x="507" y="342" type="line"/>
      <point x="487" y="342" type="line"/>
      <point x="487" y="-38" type="line"/>
      <point x="334" y="-38" type="line"/>
      <point x="339" y="-56" type="line"/>
    </contour>
    <contour>
      <point x="653" y="153" type="line"/>
      <point x="699" y="182"/>
      <point x="748" y="218"/>
      <point x="786" y="257" type="curve"/>
      <point x="772" y="270" type="line"/>
      <point x="735" y="232"/>
      <point x="687" y="196"/>
      <point x="641" y="168" type="curve"/>
    </contour>
    <contour>
      <point x="928" y="613" type="line"/>
      <point x="928" y="631" type="line"/>
      <point x="71" y="631" type="line"/>
      <point x="71" y="613" type="line"/>
    </contour>
    <contour>
      <point x="128" y="744" type="line"/>
      <point x="363" y="745"/>
      <point x="641" y="764"/>
      <point x="849" y="806" type="curve"/>
      <point x="842" y="824" type="line"/>
      <point x="627" y="781"/>
      <point x="359" y="764"/>
      <point x="123" y="762" type="curve"/>
    </contour>
    <contour>
      <point x="43" y="203" type="line"/>
      <point x="304" y="275"/>
      <point x="435" y="352"/>
      <point x="490" y="451" type="curve"/>
      <point x="494" y="451" type="line"/>
      <point x="548" y="352"/>
      <point x="690" y="275"/>
      <point x="957" y="203" type="curve"/>
      <point x="963" y="221" type="line"/>
      <point x="698" y="290"/>
      <point x="560" y="367"/>
      <point x="502" y="464" type="curve"/>
      <point x="482" y="464" type="line"/>
      <point x="423" y="367"/>
      <point x="296" y="290"/>
      <point x="37" y="221" type="curve"/>
    </contour>
  </outline>
</glyph>
<glyph name="uni9ED1" format="2">
  <advance width="1000"/>
  <unicode hex="2FCA"/>
  <unicode hex="9ED1"/>
  <outline>
    <contour>
      <point x="833" y="479" type="line"/>
      <point x="833" y="792" type="line"/>
      <point x="166" y="792" type="line"/>
      <point x="166" y="479" type="line"/>
    </contour>
    <contour>
      <point x="73" y="-70" type="line"/>
      <point x="138" y="-15"/>
      <point x="186" y="41"/>
      <point x="220" y="100" type="curve"/>
      <point x="203" y="108" type="line"/>
      <point x="170" y="52"/>
      <point x="123" y="-5"/>
      <point x="60" y="-56" type="curve"/>
    </contour>
    <contour>
      <point x="421" y="-62" type="line"/>
      <point x="413" y="-4"/>
      <point x="402" y="48"/>
      <point x="387" y="96" type="curve"/>
      <point x="369" y="91" type="line"/>
      <point x="383" y="42"/>
      <point x="395" y="-10"/>
      <point x="403" y="-68" type="curve"/>
    </contour>
    <contour>
      <point x="672" y="-59" type="line"/>
      <point x="651" y="0"/>
      <point x="626" y="54"/>
      <point x="597" y="101" type="curve"/>
      <point x="581" y="93" type="line"/>
      <point x="610" y="43"/>
      <point x="635" y="-10"/>
      <point x="654" y="-67" type="curve"/>
    </contour>
    <contour>
      <point x="940" y="-60" type="line"/>
      <point x="901" y="6"/>
      <point x="851" y="65"/>
      <point x="804" y="113" type="curve"/>
      <point x="790" y="101" type="line"/>
      <point x="839" y="49"/>
      <point x="888" y="-8"/>
      <point x="925" y="-72" type="curve"/>
    </contour>
    <contour>
      <point x="945" y="170" type="line"/>
      <point x="945" y="188" type="line"/>
      <point x="55" y="188" type="line"/>
      <point x="55" y="170" type="line"/>
    </contour>
    <contour>
      <point x="891" y="334" type="line"/>
      <point x="891" y="352" type="line"/>
      <point x="109" y="352" type="line"/>
      <point x="109" y="334" type="line"/>
    </contour>
    <contour>
      <point x="396" y="559" type="line"/>
      <point x="365" y="618"/>
      <point x="329" y="671"/>
      <point x="285" y="722" type="curve"/>
      <point x="270" y="711" type="line"/>
      <point x="314" y="658"/>
      <point x="346" y="612"/>
      <point x="379" y="550" type="curve"/>
    </contour>
    <contour>
      <point x="502" y="180" type="line"/>
      <point x="502" y="784" type="line"/>
      <point x="482" y="784" type="line"/>
      <point x="482" y="180" type="line"/>
    </contour>
    <contour>
      <point x="186" y="774" type="line"/>
      <point x="813" y="774" type="line"/>
      <point x="813" y="497" type="line"/>
      <point x="186" y="497" type="line"/>
    </contour>
    <contour>
      <point x="615" y="549" type="line"/>
      <point x="664" y="601"/>
      <point x="700" y="656"/>
      <point x="728" y="714" type="curve"/>
      <point x="711" y="722" type="line"/>
      <point x="683" y="665"/>
      <point x="647" y="611"/>
      <point x="600" y="561" type="curve"/>
    </contour>
  </outline>
</glyph>
<glyph name="uni9EF9" format="2">
  <advance width="1000"/>
  <unicode hex="2FCB"/>
  <unicode hex="9EF9"/>
  <outline>
    <contour>
      <point x="153" y="-71" type="line"/>
      <point x="153" y="406" type="line"/>
      <point x="862" y="406" type="line"/>
      <point x="862" y="-43" type="line"/>
      <point x="642" y="-43" type="line"/>
      <point x="647" y="-61" type="line"/>
      <point x="854" y="-61" type="line" smooth="yes"/>
      <point x="874" y="-61"/>
      <point x="882" y="-53"/>
      <point x="882" y="-33" type="curve" smooth="yes"/>
      <point x="882" y="424" type="line"/>
      <point x="133" y="424" type="line"/>
      <point x="133" y="-71" type="line"/>
    </contour>
    <contour>
      <point x="250" y="50" type="line"/>
      <point x="332" y="136"/>
      <point x="375" y="230"/>
      <point x="399" y="321" type="curve"/>
      <point x="380" y="325" type="line"/>
      <point x="358" y="238"/>
      <point x="312" y="143"/>
      <point x="235" y="63" type="curve"/>
    </contour>
    <contour>
      <point x="338" y="457" type="line"/>
      <point x="306" y="507"/>
      <point x="265" y="554"/>
      <point x="229" y="590" type="curve"/>
      <point x="214" y="578" type="line"/>
      <point x="255" y="538"/>
      <point x="291" y="492"/>
      <point x="322" y="447" type="curve"/>
    </contour>
    <contour>
      <point x="503" y="-59" type="line"/>
      <point x="503" y="623" type="line"/>
      <point x="483" y="623" type="line"/>
      <point x="483" y="-59" type="line"/>
    </contour>
    <contour>
      <point x="773" y="64" type="line"/>
      <point x="735" y="153"/>
      <point x="675" y="251"/>
      <point x="614" y="327" type="curve"/>
      <point x="598" y="317" type="line"/>
      <point x="664" y="232"/>
      <point x="721" y="140"/>
      <point x="755" y="56" type="curve"/>
    </contour>
    <contour>
      <point x="293" y="682" type="line"/>
      <point x="259" y="735"/>
      <point x="214" y="786"/>
      <point x="174" y="825" type="curve"/>
      <point x="159" y="813" type="line"/>
      <point x="204" y="769"/>
      <point x="244" y="721"/>
      <point x="277" y="672" type="curve"/>
    </contour>
    <contour>
      <point x="945" y="612" type="line"/>
      <point x="945" y="630" type="line"/>
      <point x="53" y="630" type="line"/>
      <point x="53" y="612" type="line"/>
    </contour>
    <contour>
      <point x="406" y="623" type="line"/>
      <point x="406" y="841" type="line"/>
      <point x="386" y="841" type="line"/>
      <point x="386" y="623" type="line"/>
    </contour>
    <contour>
      <point x="662" y="442" type="line"/>
      <point x="710" y="483"/>
      <point x="750" y="534"/>
      <point x="781" y="585" type="curve"/>
      <point x="765" y="595" type="line"/>
      <point x="732" y="541"/>
      <point x="698" y="499"/>
      <point x="648" y="454" type="curve"/>
    </contour>
    <contour>
      <point x="598" y="623" type="line"/>
      <point x="598" y="841" type="line"/>
      <point x="578" y="841" type="line"/>
      <point x="578" y="623" type="line"/>
    </contour>
    <contour>
      <point x="714" y="667" type="line"/>
      <point x="766" y="711"/>
      <point x="809" y="767"/>
      <point x="843" y="820" type="curve"/>
      <point x="827" y="830" type="line"/>
      <point x="791" y="772"/>
      <point x="755" y="727"/>
      <point x="700" y="679" type="curve"/>
    </contour>
  </outline>
</glyph>
<glyph name="uni9F20" format="2">
  <advance width="1000"/>
  <unicode hex="2FCF"/>
  <unicode hex="9F20"/>
  <outline>
    <contour>
      <point x="872" y="462" type="line"/>
      <point x="872" y="780" type="line"/>
      <point x="531" y="780" type="line"/>
      <point x="531" y="762" type="line"/>
      <point x="852" y="762" type="line"/>
      <point x="852" y="480" type="line"/>
      <point x="149" y="480" type="line"/>
      <point x="149" y="746" type="line"/>
      <point x="237" y="760"/>
      <point x="368" y="784"/>
      <point x="452" y="814" type="curve"/>
      <point x="442" y="831" type="line"/>
      <point x="357" y="800"/>
      <point x="235" y="777"/>
      <point x="129" y="767" type="curve"/>
      <point x="129" y="462" type="line"/>
    </contour>
    <contour>
      <point x="121" y="-64" type="line"/>
      <point x="216" y="-46"/>
      <point x="351" y="-8"/>
      <point x="423" y="15" type="curve"/>
      <point x="417" y="33" type="line"/>
      <point x="345" y="10"/>
      <point x="206" y="-30"/>
      <point x="115" y="-46" type="curve"/>
    </contour>
    <contour>
      <point x="171" y="418" type="line"/>
      <point x="151" y="418" type="line"/>
      <point x="151" y="-13" type="line" smooth="yes"/>
      <point x="151" y="-34"/>
      <point x="145" y="-39"/>
      <point x="115" y="-46" type="curve"/>
      <point x="171" y="-42" type="line"/>
    </contour>
    <contour>
      <point x="409" y="127" type="line"/>
      <point x="353" y="164"/>
      <point x="293" y="198"/>
      <point x="227" y="232" type="curve"/>
      <point x="216" y="217" type="line"/>
      <point x="283" y="183"/>
      <point x="343" y="148"/>
      <point x="397" y="112" type="curve"/>
    </contour>
    <contour>
      <point x="456" y="-62" type="line"/>
      <point x="552" y="-44"/>
      <point x="709" y="-8"/>
      <point x="798" y="15" type="curve"/>
      <point x="793" y="33" type="line"/>
      <point x="709" y="10"/>
      <point x="541" y="-29"/>
      <point x="451" y="-45" type="curve"/>
    </contour>
    <contour>
      <point x="420" y="284" type="line"/>
      <point x="368" y="317"/>
      <point x="313" y="348"/>
      <point x="251" y="378" type="curve"/>
      <point x="240" y="363" type="line"/>
      <point x="302" y="333"/>
      <point x="358" y="301"/>
      <point x="409" y="269" type="curve"/>
    </contour>
    <contour>
      <point x="503" y="406" type="line"/>
      <point x="483" y="406" type="line"/>
      <point x="483" y="-14" type="line" smooth="yes"/>
      <point x="483" y="-34"/>
      <point x="476" y="-39"/>
      <point x="451" y="-45" type="curve"/>
      <point x="503" y="-42" type="line"/>
    </contour>
    <contour>
      <point x="763" y="117" type="line"/>
      <point x="705" y="154"/>
      <point x="641" y="188"/>
      <point x="573" y="222" type="curve"/>
      <point x="560" y="208" type="line"/>
      <point x="630" y="173"/>
      <point x="695" y="138"/>
      <point x="752" y="102" type="curve"/>
    </contour>
    <contour>
      <point x="447" y="615" type="line"/>
      <point x="447" y="633" type="line"/>
      <point x="136" y="633" type="line"/>
      <point x="136" y="615" type="line"/>
    </contour>
    <contour>
      <point x="769" y="281" type="line"/>
      <point x="713" y="313"/>
      <point x="653" y="343"/>
      <point x="589" y="373" type="curve"/>
      <point x="578" y="358" type="line"/>
      <point x="644" y="327"/>
      <point x="704" y="297"/>
      <point x="758" y="265" type="curve"/>
    </contour>
    <contour>
      <point x="905" y="-47" type="curve" smooth="yes"/>
      <point x="920" y="-60"/>
      <point x="936" y="-53"/>
      <point x="938" y="-35" type="curve" smooth="yes"/>
      <point x="960" y="153" type="line"/>
      <point x="942" y="163" type="line"/>
      <point x="919" y="-34" type="line"/>
      <point x="863" y="12"/>
      <point x="837" y="133"/>
      <point x="837" y="353" type="curve" smooth="yes"/>
      <point x="837" y="418" type="line"/>
      <point x="817" y="418" type="line"/>
      <point x="817" y="353" type="line" smooth="yes"/>
      <point x="817" y="127"/>
      <point x="843" y="6"/>
    </contour>
    <contour>
      <point x="857" y="615" type="line"/>
      <point x="857" y="633" type="line"/>
      <point x="539" y="633" type="line"/>
      <point x="539" y="615" type="line"/>
    </contour>
  </outline>
</glyph>
<glyph name="uni9FA0" format="2">
  <advance width="1000"/>
  <unicode hex="2FD5"/>
  <unicode hex="9FA0"/>
  <outline>
    <contour>
      <point x="395" y="551" type="line"/>
      <point x="395" y="376" type="line"/>
      <point x="600" y="376" type="line"/>
      <point x="600" y="551" type="line"/>
    </contour>
    <contour>
      <point x="415" y="533" type="line"/>
      <point x="580" y="533" type="line"/>
      <point x="580" y="394" type="line"/>
      <point x="415" y="394" type="line"/>
    </contour>
    <contour>
      <point x="117" y="551" type="line"/>
      <point x="117" y="376" type="line"/>
      <point x="318" y="376" type="line"/>
      <point x="318" y="551" type="line"/>
    </contour>
    <contour>
      <point x="137" y="533" type="line"/>
      <point x="298" y="533" type="line"/>
      <point x="298" y="394" type="line"/>
      <point x="137" y="394" type="line"/>
    </contour>
    <contour>
      <point x="677" y="551" type="line"/>
      <point x="677" y="376" type="line"/>
      <point x="883" y="376" type="line"/>
      <point x="883" y="551" type="line"/>
    </contour>
    <contour>
      <point x="697" y="533" type="line"/>
      <point x="863" y="533" type="line"/>
      <point x="863" y="394" type="line"/>
      <point x="697" y="394" type="line"/>
    </contour>
    <contour>
      <point x="692" y="626" type="line"/>
      <point x="692" y="644" type="line"/>
      <point x="302" y="644" type="line"/>
      <point x="302" y="626" type="line"/>
    </contour>
    <contour>
      <point x="139" y="-74" type="line"/>
      <point x="159" y="-74" type="line"/>
      <point x="159" y="283" type="line"/>
      <point x="848" y="283" type="line"/>
      <point x="848" y="-40" type="line"/>
      <point x="706" y="-40" type="line"/>
      <point x="713" y="-58" type="line"/>
      <point x="840" y="-58" type="line" smooth="yes"/>
      <point x="860" y="-58"/>
      <point x="868" y="-50"/>
      <point x="868" y="-30" type="curve" smooth="yes"/>
      <point x="868" y="301" type="line"/>
      <point x="139" y="301" type="line"/>
    </contour>
    <contour>
      <point x="856" y="124" type="line"/>
      <point x="856" y="142" type="line"/>
      <point x="153" y="142" type="line"/>
      <point x="153" y="124" type="line"/>
    </contour>
    <contour>
      <point x="391" y="-52" type="line"/>
      <point x="391" y="293" type="line"/>
      <point x="371" y="293" type="line"/>
      <point x="371" y="-52" type="line"/>
    </contour>
    <contour>
      <point x="627" y="-52" type="line"/>
      <point x="627" y="293" type="line"/>
      <point x="607" y="293" type="line"/>
      <point x="607" y="-52" type="line"/>
    </contour>
    <contour>
      <point x="46" y="585" type="line"/>
      <point x="303" y="655"/>
      <point x="435" y="729"/>
      <point x="490" y="828" type="curve"/>
      <point x="494" y="828" type="line"/>
      <point x="548" y="729"/>
      <point x="690" y="655"/>
      <point x="953" y="585" type="curve"/>
      <point x="960" y="603" type="line"/>
      <point x="698" y="669"/>
      <point x="561" y="745"/>
      <point x="502" y="841" type="curve"/>
      <point x="482" y="841" type="line"/>
      <point x="422" y="745"/>
      <point x="295" y="669"/>
      <point x="40" y="603" type="curve"/>
    </contour>
  </outline>
</glyph>
<glyph name="uni3447" format="2">
  <advance width="1000"/>
  <unicode hex="3447"/>
  <outline>
    <contour>
      <point x="221" y="-70" type="line"/>
      <point x="221" y="622" type="line"/>
      <point x="201" y="579" type="line"/>
      <point x="201" y="-70" type="line"/>
    </contour>
    <contour>
      <point x="284" y="835" type="line"/>
      <point x="227" y="634"/>
      <point x="151" y="494"/>
      <point x="26" y="375" type="curve"/>
      <point x="38" y="358" type="line"/>
      <point x="167" y="484"/>
      <point x="245" y="628"/>
      <point x="303" y="829" type="curve"/>
    </contour>
    <contour>
      <point x="909" y="-70" type="line"/>
      <point x="909" y="477" type="line"/>
      <point x="342" y="477" type="line"/>
      <point x="342" y="459" type="line"/>
      <point x="889" y="459" type="line"/>
      <point x="889" y="29" type="line"/>
      <point x="326" y="29" type="line"/>
      <point x="326" y="11" type="line"/>
      <point x="889" y="11" type="line"/>
      <point x="889" y="-70" type="line"/>
    </contour>
    <contour>
      <point x="899" y="239" type="line"/>
      <point x="899" y="257" type="line"/>
      <point x="365" y="257" type="line"/>
      <point x="365" y="239" type="line"/>
    </contour>
    <contour>
      <point x="310" y="500" type="line"/>
      <point x="442" y="594"/>
      <point x="528" y="702"/>
      <point x="585" y="826" type="curve"/>
      <point x="567" y="834" type="line"/>
      <point x="510" y="712"/>
      <point x="429" y="608"/>
      <point x="298" y="516" type="curve"/>
    </contour>
    <contour>
      <point x="656" y="465" type="line"/>
      <point x="738" y="530"/>
      <point x="812" y="619"/>
      <point x="853" y="699" type="curve"/>
      <point x="853" y="715" type="line"/>
      <point x="504" y="715" type="line"/>
      <point x="504" y="697" type="line"/>
      <point x="830" y="697" type="line"/>
      <point x="789" y="621"/>
      <point x="718" y="538"/>
      <point x="634" y="470" type="curve"/>
    </contour>
  </outline>
</glyph>
<glyph name="uni356E" format="2">
  <advance width="1000"/>
  <unicode hex="356E"/>
  <outline>
    <contour>
      <point x="402" y="500" type="line"/>
      <point x="482" y="577"/>
      <point x="545" y="674"/>
      <point x="587" y="785" type="curve"/>
      <point x="570" y="793" type="line"/>
      <point x="529" y="687"/>
      <point x="473" y="595"/>
      <point x="390" y="515" type="curve"/>
    </contour>
    <contour>
      <point x="914" y="504" type="line"/>
      <point x="862" y="610"/>
      <point x="803" y="707"/>
      <point x="737" y="791" type="curve"/>
      <point x="723" y="780" type="line"/>
      <point x="787" y="697"/>
      <point x="847" y="601"/>
      <point x="900" y="493" type="curve"/>
    </contour>
    <contour>
      <point x="920" y="-9" type="line"/>
      <point x="739" y="87"/>
      <point x="580" y="266"/>
      <point x="517" y="523" type="curve"/>
      <point x="499" y="515" type="line"/>
      <point x="561" y="258"/>
      <point x="729" y="72"/>
      <point x="911" y="-25" type="curve"/>
    </contour>
    <contour>
      <point x="385" y="-25" type="line"/>
      <point x="578" y="71"/>
      <point x="745" y="256"/>
      <point x="809" y="515" type="curve"/>
      <point x="791" y="524" type="line"/>
      <point x="729" y="267"/>
      <point x="567" y="86"/>
      <point x="376" y="-9" type="curve"/>
    </contour>
    <contour>
      <point x="115" y="30" type="line"/>
      <point x="115" y="738" type="line"/>
      <point x="322" y="738" type="line"/>
      <point x="322" y="141" type="line"/>
      <point x="342" y="141" type="line"/>
      <point x="342" y="756" type="line"/>
      <point x="95" y="756" type="line"/>
      <point x="95" y="30" type="line"/>
    </contour>
    <contour>
      <point x="328" y="141" type="line"/>
      <point x="328" y="159" type="line"/>
      <point x="109" y="159" type="line"/>
      <point x="109" y="141" type="line"/>
    </contour>
  </outline>
</glyph>
<glyph name="uni360E" format="2">
  <advance width="1000"/>
  <unicode hex="360E"/>
  <outline>
    <contour>
      <point x="890" y="-50" type="line" smooth="yes"/>
      <point x="907" y="-50"/>
      <point x="910" y="-43"/>
      <point x="910" y="-25" type="curve" smooth="yes"/>
      <point x="910" y="785" type="line"/>
      <point x="498" y="785" type="line"/>
      <point x="498" y="767" type="line"/>
      <point x="890" y="767" type="line"/>
      <point x="890" y="-32" type="line"/>
      <point x="799" y="-32" type="line"/>
      <point x="803" y="-50" type="line"/>
    </contour>
    <contour>
      <point x="257" y="120" type="line"/>
      <point x="257" y="138" type="line"/>
      <point x="104" y="138" type="line"/>
      <point x="104" y="120" type="line"/>
    </contour>
    <contour>
      <point x="110" y="9" type="line"/>
      <point x="110" y="756" type="line"/>
      <point x="251" y="756" type="line"/>
      <point x="251" y="120" type="line"/>
      <point x="271" y="120" type="line"/>
      <point x="271" y="774" type="line"/>
      <point x="90" y="774" type="line"/>
      <point x="90" y="9" type="line"/>
    </contour>
    <contour>
      <point x="360" y="-70" type="line"/>
      <point x="360" y="629" type="line"/>
      <point x="340" y="629" type="line"/>
      <point x="340" y="-70" type="line"/>
    </contour>
    <contour>
      <point x="407" y="74" type="line"/>
      <point x="490" y="91"/>
      <point x="579" y="114"/>
      <point x="660" y="138" type="curve"/>
      <point x="656" y="156" type="line"/>
      <point x="575" y="132"/>
      <point x="483" y="108"/>
      <point x="401" y="92" type="curve"/>
    </contour>
    <contour>
      <point x="471" y="102" type="line"/>
      <point x="471" y="528" type="line"/>
      <point x="451" y="528" type="line"/>
      <point x="451" y="102" type="line"/>
    </contour>
    <contour>
      <point x="598" y="252" type="line"/>
      <point x="598" y="270" type="line"/>
      <point x="461" y="270" type="line"/>
      <point x="461" y="252" type="line"/>
    </contour>
    <contour>
      <point x="604" y="-2" type="line"/>
      <point x="604" y="525" type="line"/>
      <point x="584" y="525" type="line"/>
      <point x="584" y="-2" type="line"/>
    </contour>
    <contour>
      <point x="598" y="383" type="line"/>
      <point x="598" y="401" type="line"/>
      <point x="461" y="401" type="line"/>
      <point x="461" y="383" type="line"/>
    </contour>
    <contour>
      <point x="844" y="50" type="line"/>
      <point x="804" y="153"/>
      <point x="742" y="282"/>
      <point x="688" y="383" type="curve"/>
      <point x="673" y="371" type="line"/>
      <point x="726" y="274"/>
      <point x="789" y="139"/>
      <point x="828" y="39" type="curve"/>
    </contour>
    <contour>
      <point x="641" y="6" type="line"/>
      <point x="777" y="157"/>
      <point x="809" y="340"/>
      <point x="809" y="538" type="curve"/>
      <point x="789" y="538" type="line"/>
      <point x="789" y="347"/>
      <point x="760" y="168"/>
      <point x="630" y="21" type="curve"/>
    </contour>
    <contour>
      <point x="653" y="513" type="line"/>
      <point x="653" y="531" type="line"/>
      <point x="407" y="531" type="line"/>
      <point x="407" y="513" type="line"/>
    </contour>
    <contour>
      <point x="578" y="523" type="line"/>
      <point x="601" y="651" type="line"/>
      <point x="440" y="651" type="line"/>
      <point x="440" y="633" type="line"/>
      <point x="577" y="633" type="line"/>
      <point x="558" y="523" type="line"/>
    </contour>
    <contour>
      <point x="466" y="695" type="line"/>
      <point x="435" y="737"/>
      <point x="396" y="784"/>
      <point x="360" y="819" type="curve"/>
      <point x="346" y="807" type="line"/>
      <point x="381" y="771"/>
      <point x="420" y="726"/>
      <point x="452" y="682" type="curve"/>
    </contour>
    <contour>
      <point x="644" y="357" type="line"/>
      <point x="687" y="452"/>
      <point x="710" y="557"/>
      <point x="726" y="681" type="curve"/>
      <point x="707" y="684" type="line"/>
      <point x="694" y="569"/>
      <point x="671" y="469"/>
      <point x="630" y="370" type="curve"/>
    </contour>
    <contour>
      <point x="852" y="526" type="line"/>
      <point x="852" y="544" type="line"/>
      <point x="692" y="544" type="line"/>
      <point x="692" y="526" type="line"/>
    </contour>
  </outline>
</glyph>
<glyph name="uni36DA" format="2">
  <advance width="1000"/>
  <unicode hex="36DA"/>
  <outline>
    <contour>
      <point x="392" y="68" type="line"/>
      <point x="296" y="173"/>
      <point x="193" y="257"/>
      <point x="104" y="323" type="curve"/>
      <point x="132" y="401"/>
      <point x="162" y="510"/>
      <point x="186" y="622" type="curve"/>
      <point x="188" y="630" type="line"/>
      <point x="203" y="703"/>
      <point x="216" y="776"/>
      <point x="224" y="838" type="curve"/>
      <point x="204" y="840" type="line"/>
      <point x="186" y="693"/>
      <point x="137" y="462"/>
      <point x="80" y="317" type="curve"/>
      <point x="176" y="247"/>
      <point x="283" y="157"/>
      <point x="379" y="54" type="curve"/>
    </contour>
    <contour>
      <point x="62" y="-67" type="line"/>
      <point x="254" y="106"/>
      <point x="331" y="342"/>
      <point x="353" y="618" type="curve"/>
      <point x="353" y="634" type="line"/>
      <point x="50" y="634" type="line"/>
      <point x="50" y="616" type="line"/>
      <point x="333" y="616" type="line"/>
      <point x="312" y="356"/>
      <point x="237" y="118"/>
      <point x="50" y="-51" type="curve"/>
    </contour>
    <contour>
      <point x="653" y="542" type="line"/>
      <point x="653" y="-56" type="line"/>
      <point x="673" y="-56" type="line"/>
      <point x="673" y="542" type="line"/>
    </contour>
    <contour>
      <point x="448" y="-70" type="line"/>
      <point x="448" y="535" type="line"/>
      <point x="890" y="535" type="line"/>
      <point x="891" y="-37" type="line"/>
      <point x="762" y="-37" type="line"/>
      <point x="769" y="-55" type="line"/>
      <point x="883" y="-55" type="line" smooth="yes"/>
      <point x="903" y="-55"/>
      <point x="911" y="-47"/>
      <point x="911" y="-27" type="curve" smooth="yes"/>
      <point x="910" y="553" type="line"/>
      <point x="428" y="553" type="line"/>
      <point x="428" y="-70" type="line"/>
    </contour>
    <contour>
      <point x="439" y="366" type="line"/>
      <point x="897" y="366" type="line"/>
      <point x="897" y="384" type="line"/>
      <point x="439" y="384" type="line"/>
    </contour>
    <contour>
      <point x="439" y="188" type="line"/>
      <point x="897" y="188" type="line"/>
      <point x="897" y="206" type="line"/>
      <point x="439" y="206" type="line"/>
    </contour>
    <contour>
      <point x="750" y="551" type="line"/>
      <point x="677" y="608"/>
      <point x="592" y="665"/>
      <point x="512" y="707" type="curve"/>
      <point x="500" y="691" type="line"/>
      <point x="581" y="649"/>
      <point x="665" y="593"/>
      <point x="737" y="538" type="curve"/>
    </contour>
    <contour>
      <point x="658" y="604" type="line"/>
      <point x="754" y="652"/>
      <point x="837" y="711"/>
      <point x="894" y="770" type="curve"/>
      <point x="894" y="786" type="line"/>
      <point x="424" y="786" type="line"/>
      <point x="424" y="768" type="line"/>
      <point x="878" y="768" type="line"/>
      <point x="873" y="777" type="line"/>
      <point x="824" y="726"/>
      <point x="742" y="668"/>
      <point x="641" y="616" type="curve"/>
    </contour>
  </outline>
</glyph>
<glyph name="uni36F9" format="2">
  <advance width="1000"/>
  <unicode hex="36F9"/>
  <outline>
    <contour>
      <point x="938" y="772" type="line"/>
      <point x="938" y="790" type="line"/>
      <point x="530" y="790" type="line"/>
      <point x="530" y="772" type="line"/>
    </contour>
    <contour>
      <point x="911" y="296" type="line"/>
      <point x="911" y="632" type="line"/>
      <point x="556" y="632" type="line"/>
      <point x="556" y="296" type="line"/>
    </contour>
    <contour>
      <point x="576" y="614" type="line"/>
      <point x="891" y="614" type="line"/>
      <point x="891" y="314" type="line"/>
      <point x="576" y="314" type="line"/>
    </contour>
    <contour>
      <point x="897" y="458" type="line"/>
      <point x="897" y="476" type="line"/>
      <point x="564" y="476" type="line"/>
      <point x="564" y="458" type="line"/>
    </contour>
    <contour>
      <point x="523" y="-70" type="line"/>
      <point x="694" y="20"/>
      <point x="748" y="115"/>
      <point x="748" y="368" type="curve" smooth="yes"/>
      <point x="748" y="777" type="line"/>
      <point x="728" y="777" type="line"/>
      <point x="728" y="368" type="line" smooth="yes"/>
      <point x="728" y="100"/>
      <point x="664" y="26"/>
      <point x="513" y="-53" type="curve"/>
    </contour>
    <contour>
      <point x="943" y="-52" type="line"/>
      <point x="766" y="-17"/>
      <point x="622" y="112"/>
      <point x="569" y="233" type="curve"/>
      <point x="552" y="223" type="line"/>
      <point x="618" y="80"/>
      <point x="771" y="-36"/>
      <point x="937" y="-70" type="curve"/>
    </contour>
    <contour>
      <point x="463" y="-70" type="line"/>
      <point x="463" y="637" type="line"/>
      <point x="443" y="579" type="line"/>
      <point x="443" y="-70" type="line"/>
    </contour>
    <contour>
      <point x="486" y="836" type="line"/>
      <point x="453" y="643"/>
      <point x="405" y="489"/>
      <point x="328" y="370" type="curve"/>
      <point x="342" y="354" type="line"/>
      <point x="423" y="482"/>
      <point x="471" y="638"/>
      <point x="506" y="832" type="curve"/>
    </contour>
    <contour>
      <point x="371" y="68" type="line"/>
      <point x="279" y="172"/>
      <point x="183" y="256"/>
      <point x="100" y="323" type="curve"/>
      <point x="126" y="400"/>
      <point x="154" y="510"/>
      <point x="177" y="621" type="curve"/>
      <point x="178" y="630" type="line"/>
      <point x="193" y="703"/>
      <point x="204" y="777"/>
      <point x="212" y="838" type="curve"/>
      <point x="192" y="840" type="line"/>
      <point x="176" y="693"/>
      <point x="130" y="462"/>
      <point x="76" y="317" type="curve"/>
      <point x="167" y="246"/>
      <point x="267" y="157"/>
      <point x="358" y="53" type="curve"/>
    </contour>
    <contour>
      <point x="61" y="-67" type="line"/>
      <point x="243" y="106"/>
      <point x="312" y="348"/>
      <point x="332" y="618" type="curve"/>
      <point x="332" y="634" type="line"/>
      <point x="49" y="634" type="line"/>
      <point x="49" y="616" type="line"/>
      <point x="311" y="616" type="line"/>
      <point x="293" y="362"/>
      <point x="226" y="118"/>
      <point x="49" y="-52" type="curve"/>
    </contour>
  </outline>
</glyph>
<glyph name="uni3749" format="2">
  <advance width="1000"/>
  <unicode hex="3749"/>
  <outline>
    <contour>
      <point x="910" y="-10" type="line"/>
      <point x="910" y="8" type="line"/>
      <point x="90" y="8" type="line"/>
      <point x="90" y="-10" type="line"/>
    </contour>
    <contour>
      <point x="889" y="630" type="line"/>
      <point x="889" y="648" type="line"/>
      <point x="112" y="648" type="line"/>
      <point x="112" y="630" type="line"/>
    </contour>
    <contour>
      <point x="132" y="420" type="line"/>
      <point x="132" y="637" type="line"/>
      <point x="112" y="637" type="line"/>
      <point x="112" y="420" type="line"/>
    </contour>
    <contour>
      <point x="555" y="645" type="line"/>
      <point x="518" y="709"/>
      <point x="479" y="771"/>
      <point x="438" y="830" type="curve"/>
      <point x="422" y="819" type="line"/>
      <point x="463" y="760"/>
      <point x="503" y="698"/>
      <point x="539" y="634" type="curve"/>
    </contour>
    <contour>
      <point x="889" y="420" type="line"/>
      <point x="889" y="637" type="line"/>
      <point x="869" y="637" type="line"/>
      <point x="869" y="420" type="line"/>
    </contour>
  </outline>
</glyph>
<glyph name="uni39D0" format="2">
  <advance width="1000"/>
  <unicode hex="39D0"/>
  <outline>
    <contour>
      <point x="597" y="-54" type="line"/>
      <point x="811" y="157"/>
      <point x="889" y="394"/>
      <point x="911" y="749" type="curve"/>
      <point x="911" y="765" type="line"/>
      <point x="637" y="765" type="line"/>
      <point x="637" y="747" type="line"/>
      <point x="891" y="747" type="line"/>
      <point x="869" y="408"/>
      <point x="798" y="174"/>
      <point x="587" y="-38" type="curve"/>
    </contour>
    <contour>
      <point x="953" y="-38" type="line"/>
      <point x="772" y="169"/>
      <point x="706" y="412"/>
      <point x="682" y="694" type="curve"/>
      <point x="663" y="688" type="line"/>
      <point x="690" y="396"/>
      <point x="759" y="155"/>
      <point x="941" y="-54" type="curve"/>
    </contour>
    <contour>
      <point x="360" y="599" type="line"/>
      <point x="444" y="467"/>
      <point x="536" y="292"/>
      <point x="616" y="123" type="curve"/>
      <point x="632" y="135" type="line"/>
      <point x="551" y="305"/>
      <point x="462" y="475"/>
      <point x="374" y="611" type="curve"/>
    </contour>
    <contour>
      <point x="589" y="762" type="line"/>
      <point x="338" y="762" type="line"/>
      <point x="338" y="744" type="line"/>
      <point x="582" y="744" type="line"/>
      <point x="570" y="748" type="line"/>
      <point x="550" y="446"/>
      <point x="435" y="132"/>
      <point x="318" y="-34" type="curve"/>
      <point x="330" y="-50" type="line"/>
      <point x="455" y="128"/>
      <point x="568" y="436"/>
      <point x="589" y="746" type="curve"/>
    </contour>
    <contour>
      <point x="70" y="-33" type="line"/>
      <point x="74" y="-51" type="line"/>
      <point x="188" y="-51" type="line" smooth="yes"/>
      <point x="208" y="-51"/>
      <point x="216" y="-43"/>
      <point x="216" y="-23" type="curve" smooth="yes"/>
      <point x="216" y="830" type="line"/>
      <point x="196" y="830" type="line"/>
      <point x="196" y="-33" type="line"/>
    </contour>
    <contour>
      <point x="329" y="610" type="line"/>
      <point x="329" y="628" type="line"/>
      <point x="53" y="628" type="line"/>
      <point x="53" y="610" type="line"/>
    </contour>
    <contour>
      <point x="50" y="256" type="line"/>
      <point x="144" y="286"/>
      <point x="253" y="331"/>
      <point x="346" y="381" type="curve"/>
      <point x="338" y="397" type="line"/>
      <point x="247" y="348"/>
      <point x="137" y="303"/>
      <point x="43" y="273" type="curve"/>
    </contour>
  </outline>
</glyph>
<glyph name="uni39D1" format="2">
  <advance width="1000"/>
  <unicode hex="39D1"/>
  <outline>
    <contour>
      <point x="72" y="-32" type="line"/>
      <point x="77" y="-50" type="line"/>
      <point x="200" y="-50" type="line" smooth="yes"/>
      <point x="220" y="-50"/>
      <point x="228" y="-42"/>
      <point x="228" y="-22" type="curve" smooth="yes"/>
      <point x="228" y="830" type="line"/>
      <point x="208" y="830" type="line"/>
      <point x="208" y="-32" type="line"/>
    </contour>
    <contour>
      <point x="343" y="611" type="line"/>
      <point x="343" y="629" type="line"/>
      <point x="54" y="629" type="line"/>
      <point x="54" y="611" type="line"/>
    </contour>
    <contour>
      <point x="50" y="257" type="line"/>
      <point x="152" y="287"/>
      <point x="271" y="333"/>
      <point x="371" y="384" type="curve"/>
      <point x="363" y="401" type="line"/>
      <point x="264" y="349"/>
      <point x="145" y="303"/>
      <point x="44" y="274" type="curve"/>
    </contour>
    <contour>
      <point x="772" y="-54" type="line" smooth="yes"/>
      <point x="848" y="-54"/>
      <point x="879" y="-24"/>
      <point x="889" y="63" type="curve" smooth="yes"/>
      <point x="902" y="178"/>
      <point x="909" y="374"/>
      <point x="909" y="583" type="curve"/>
      <point x="377" y="583" type="line"/>
      <point x="377" y="565" type="line"/>
      <point x="889" y="565" type="line"/>
      <point x="889" y="379"/>
      <point x="882" y="188"/>
      <point x="870" y="69" type="curve" smooth="yes"/>
      <point x="861" y="-9"/>
      <point x="841" y="-36"/>
      <point x="767" y="-36" type="curve" smooth="yes"/>
      <point x="632" y="-36" type="line"/>
      <point x="636" y="-54" type="line"/>
    </contour>
    <contour>
      <point x="358" y="-70" type="line"/>
      <point x="532" y="94"/>
      <point x="594" y="290"/>
      <point x="594" y="656" type="curve" smooth="yes"/>
      <point x="594" y="828" type="line"/>
      <point x="574" y="828" type="line"/>
      <point x="574" y="656" type="line" smooth="yes"/>
      <point x="574" y="293"/>
      <point x="512" y="108"/>
      <point x="345" y="-55" type="curve"/>
    </contour>
    <contour>
      <point x="794" y="187" type="line"/>
      <point x="761" y="266"/>
      <point x="716" y="352"/>
      <point x="673" y="417" type="curve"/>
      <point x="658" y="406" type="line"/>
      <point x="700" y="340"/>
      <point x="747" y="253"/>
      <point x="777" y="178" type="curve"/>
    </contour>
    <contour>
      <point x="505" y="643" type="line"/>
      <point x="479" y="689"/>
      <point x="435" y="748"/>
      <point x="396" y="791" type="curve"/>
      <point x="382" y="778" type="line"/>
      <point x="420" y="736"/>
      <point x="465" y="677"/>
      <point x="492" y="630" type="curve"/>
    </contour>
  </outline>
</glyph>
<glyph name="uni3B1A" format="2">
  <advance width="1000"/>
  <unicode hex="3B1A"/>
  <outline>
    <contour>
      <point x="286" y="462" type="line"/>
      <point x="98" y="462" type="line"/>
      <point x="98" y="444" type="line"/>
      <point x="286" y="444" type="line"/>
    </contour>
    <contour>
      <point x="91" y="780" type="line"/>
      <point x="91" y="-11" type="line"/>
      <point x="111" y="-11" type="line"/>
      <point x="111" y="89" type="line"/>
      <point x="296" y="89" type="line"/>
      <point x="296" y="780" type="line"/>
    </contour>
    <contour>
      <point x="111" y="762" type="line"/>
      <point x="276" y="762" type="line"/>
      <point x="276" y="107" type="line"/>
      <point x="111" y="107" type="line"/>
    </contour>
    <contour>
      <point x="666" y="-70" type="line"/>
      <point x="848" y="133"/>
      <point x="899" y="386"/>
      <point x="909" y="650" type="curve"/>
      <point x="889" y="650" type="line"/>
      <point x="879" y="396"/>
      <point x="830" y="144"/>
      <point x="654" y="-54" type="curve"/>
    </contour>
    <contour>
      <point x="615" y="143" type="line"/>
      <point x="614" y="161" type="line"/>
      <point x="384" y="161" type="line"/>
      <point x="384" y="143" type="line"/>
    </contour>
    <contour>
      <point x="394" y="-70" type="line"/>
      <point x="394" y="425" type="line"/>
      <point x="604" y="425" type="line"/>
      <point x="604" y="-38" type="line"/>
      <point x="492" y="-38" type="line"/>
      <point x="495" y="-56" type="line"/>
      <point x="596" y="-56" type="line" smooth="yes"/>
      <point x="616" y="-56"/>
      <point x="624" y="-48"/>
      <point x="624" y="-28" type="curve" smooth="yes"/>
      <point x="624" y="443" type="line"/>
      <point x="374" y="443" type="line"/>
      <point x="374" y="-70" type="line"/>
    </contour>
    <contour>
      <point x="614" y="285" type="line"/>
      <point x="614" y="303" type="line"/>
      <point x="384" y="303" type="line"/>
      <point x="384" y="285" type="line"/>
    </contour>
    <contour>
      <point x="350" y="513" type="line"/>
      <point x="443" y="520"/>
      <point x="532" y="527"/>
      <point x="618" y="537" type="curve"/>
      <point x="611" y="555" type="line"/>
      <point x="536" y="546"/>
      <point x="454" y="539"/>
      <point x="369" y="533" type="curve"/>
      <point x="411" y="581"/>
      <point x="458" y="649"/>
      <point x="487" y="717" type="curve"/>
      <point x="468" y="724" type="line"/>
      <point x="439" y="655"/>
      <point x="388" y="579"/>
      <point x="344" y="531" type="curve"/>
    </contour>
    <contour>
      <point x="961" y="-55" type="line"/>
      <point x="802" y="143"/>
      <point x="741" y="394"/>
      <point x="735" y="644" type="curve"/>
      <point x="717" y="641" type="line"/>
      <point x="722" y="392"/>
      <point x="783" y="132"/>
      <point x="947" y="-70" type="curve"/>
    </contour>
    <contour>
      <point x="649" y="513" type="line"/>
      <point x="613" y="573"/>
      <point x="581" y="618"/>
      <point x="541" y="664" type="curve"/>
      <point x="526" y="652" type="line"/>
      <point x="566" y="608"/>
      <point x="598" y="560"/>
      <point x="634" y="501" type="curve"/>
    </contour>
    <contour>
      <point x="665" y="711" type="line"/>
      <point x="665" y="729" type="line"/>
      <point x="336" y="729" type="line"/>
      <point x="336" y="711" type="line"/>
    </contour>
    <contour>
      <point x="532" y="727" type="line"/>
      <point x="516" y="762"/>
      <point x="498" y="797"/>
      <point x="478" y="831" type="curve"/>
      <point x="462" y="822" type="line"/>
      <point x="482" y="788"/>
      <point x="500" y="753"/>
      <point x="515" y="719" type="curve"/>
    </contour>
    <contour>
      <point x="657" y="444" type="line"/>
      <point x="688" y="506"/>
      <point x="715" y="573"/>
      <point x="730" y="637" type="curve"/>
      <point x="734" y="648" type="line"/>
      <point x="748" y="701"/>
      <point x="760" y="766"/>
      <point x="768" y="831" type="curve"/>
      <point x="749" y="834" type="line"/>
      <point x="732" y="695"/>
      <point x="703" y="580"/>
      <point x="645" y="462" type="curve"/>
    </contour>
    <contour>
      <point x="953" y="640" type="line"/>
      <point x="953" y="658" type="line"/>
      <point x="728" y="658" type="line"/>
      <point x="728" y="640" type="line"/>
    </contour>
  </outline>
</glyph>
<glyph name="uni3B55" format="2">
  <advance width="1000"/>
  <unicode hex="3B55"/>
  <outline>
    <contour>
      <point x="242" y="-70" type="line"/>
      <point x="242" y="492" type="line" smooth="yes"/>
      <point x="242" y="496"/>
      <point x="244" y="496"/>
      <point x="247" y="493" type="curve" smooth="yes"/>
      <point x="366" y="338" type="line"/>
      <point x="379" y="352" type="line"/>
      <point x="262" y="505" type="line"/>
      <point x="258" y="509"/>
      <point x="255" y="510"/>
      <point x="250" y="506" type="curve"/>
      <point x="245" y="503" type="line"/>
      <point x="242" y="503" type="line"/>
      <point x="242" y="830" type="line"/>
      <point x="222" y="830" type="line"/>
      <point x="222" y="622" type="line"/>
      <point x="218" y="622" type="line"/>
      <point x="201" y="480"/>
      <point x="148" y="302"/>
      <point x="40" y="162" type="curve"/>
      <point x="53" y="147" type="line"/>
      <point x="164" y="293"/>
      <point x="214" y="457"/>
      <point x="218" y="562" type="curve"/>
      <point x="222" y="562" type="line"/>
      <point x="222" y="-70" type="line"/>
    </contour>
    <contour>
      <point x="382" y="609" type="line"/>
      <point x="382" y="627" type="line"/>
      <point x="50" y="627" type="line"/>
      <point x="50" y="609" type="line"/>
    </contour>
    <contour>
      <point x="397" y="367" type="line"/>
      <point x="950" y="367" type="line"/>
      <point x="950" y="385" type="line"/>
      <point x="397" y="385" type="line"/>
    </contour>
    <contour>
      <point x="889" y="46" type="line"/>
      <point x="771" y="26"/>
      <point x="572" y="1"/>
      <point x="418" y="-11" type="curve"/>
      <point x="421" y="-29" type="line"/>
      <point x="574" y="-17"/>
      <point x="778" y="9"/>
      <point x="897" y="29" type="curve"/>
    </contour>
    <contour>
      <point x="955" y="-56" type="line"/>
      <point x="892" y="58"/>
      <point x="820" y="176"/>
      <point x="753" y="267" type="curve"/>
      <point x="736" y="256" type="line"/>
      <point x="804" y="164"/>
      <point x="876" y="47"/>
      <point x="938" y="-66" type="curve"/>
    </contour>
    <contour>
      <point x="437" y="-17" type="line"/>
      <point x="521" y="82"/>
      <point x="603" y="231"/>
      <point x="657" y="371" type="curve"/>
      <point x="638" y="376" type="line"/>
      <point x="586" y="239"/>
      <point x="508" y="96"/>
      <point x="418" y="-11" type="curve"/>
    </contour>
    <contour>
      <point x="423" y="618" type="line"/>
      <point x="924" y="618" type="line"/>
      <point x="924" y="636" type="line"/>
      <point x="423" y="636" type="line"/>
    </contour>
    <contour>
      <point x="674" y="379" type="line"/>
      <point x="674" y="830" type="line"/>
      <point x="654" y="830" type="line"/>
      <point x="654" y="379" type="line"/>
    </contour>
  </outline>
</glyph>
<glyph name="uni3BBE" format="2">
  <advance width="1000"/>
  <unicode hex="3BBE"/>
  <outline>
    <contour>
      <point x="520" y="337" type="line"/>
      <point x="590" y="430"/>
      <point x="613" y="542"/>
      <point x="613" y="653" type="curve" smooth="yes"/>
      <point x="613" y="770" type="line"/>
      <point x="890" y="770" type="line"/>
      <point x="890" y="361" type="line"/>
      <point x="720" y="361" type="line"/>
      <point x="725" y="343" type="line"/>
      <point x="882" y="343" type="line" smooth="yes"/>
      <point x="902" y="343"/>
      <point x="910" y="351"/>
      <point x="910" y="371" type="curve" smooth="yes"/>
      <point x="910" y="788" type="line"/>
      <point x="593" y="788" type="line"/>
      <point x="593" y="653" type="line" smooth="yes"/>
      <point x="593" y="547"/>
      <point x="573" y="441"/>
      <point x="506" y="350" type="curve"/>
    </contour>
    <contour>
      <point x="79" y="310" type="line"/>
      <point x="191" y="325"/>
      <point x="332" y="353"/>
      <point x="428" y="382" type="curve"/>
      <point x="417" y="398" type="line"/>
      <point x="322" y="369"/>
      <point x="174" y="340"/>
      <point x="76" y="329" type="curve"/>
    </contour>
    <contour>
      <point x="137" y="501" type="line"/>
      <point x="457" y="501" type="line"/>
      <point x="457" y="766" type="line"/>
      <point x="117" y="766" type="line"/>
      <point x="117" y="365" type="line" smooth="yes"/>
      <point x="117" y="344"/>
      <point x="111" y="335"/>
      <point x="76" y="329" type="curve"/>
      <point x="137" y="330" type="line"/>
    </contour>
    <contour>
      <point x="462" y="337" type="line"/>
      <point x="439" y="384"/>
      <point x="406" y="444"/>
      <point x="381" y="484" type="curve"/>
      <point x="364" y="475" type="line"/>
      <point x="392" y="433"/>
      <point x="424" y="374"/>
      <point x="445" y="328" type="curve"/>
    </contour>
    <contour>
      <point x="137" y="624" type="line"/>
      <point x="437" y="624" type="line"/>
      <point x="437" y="519" type="line"/>
      <point x="137" y="519" type="line"/>
    </contour>
    <contour>
      <point x="137" y="748" type="line"/>
      <point x="437" y="748" type="line"/>
      <point x="437" y="642" type="line"/>
      <point x="137" y="642" type="line"/>
    </contour>
    <contour>
      <point x="305" y="758" type="line"/>
      <point x="298" y="785"/>
      <point x="287" y="810"/>
      <point x="272" y="837" type="curve"/>
      <point x="254" y="830" type="line"/>
      <point x="269" y="803"/>
      <point x="280" y="778"/>
      <point x="287" y="751" type="curve"/>
    </contour>
    <contour>
      <point x="903" y="475" type="line"/>
      <point x="903" y="493" type="line"/>
      <point x="579" y="493" type="line"/>
      <point x="579" y="475" type="line"/>
    </contour>
    <contour>
      <point x="903" y="622" type="line"/>
      <point x="903" y="640" type="line"/>
      <point x="598" y="640" type="line"/>
      <point x="598" y="622" type="line"/>
    </contour>
    <contour>
      <point x="502" y="-71" type="line"/>
      <point x="502" y="206" type="line"/>
      <point x="506" y="206" type="line"/>
      <point x="549" y="119"/>
      <point x="670" y="50"/>
      <point x="940" y="-25" type="curve"/>
      <point x="948" y="-7" type="line"/>
      <point x="678" y="67"/>
      <point x="564" y="134"/>
      <point x="509" y="223" type="curve"/>
      <point x="502" y="223" type="line"/>
      <point x="502" y="328" type="line"/>
      <point x="482" y="328" type="line"/>
      <point x="482" y="223" type="line"/>
      <point x="475" y="223" type="line"/>
      <point x="420" y="134"/>
      <point x="322" y="67"/>
      <point x="53" y="-7" type="curve"/>
      <point x="62" y="-25" type="line"/>
      <point x="331" y="50"/>
      <point x="435" y="119"/>
      <point x="478" y="206" type="curve"/>
      <point x="482" y="206" type="line"/>
      <point x="482" y="-71" type="line"/>
    </contour>
    <contour>
      <point x="930" y="217" type="line"/>
      <point x="930" y="235" type="line"/>
      <point x="70" y="235" type="line"/>
      <point x="70" y="217" type="line"/>
    </contour>
  </outline>
</glyph>
<glyph name="uni3CC7" format="2">
  <advance width="1000"/>
  <unicode hex="3CC7"/>
  <outline>
    <contour>
      <point x="336" y="484" type="line"/>
      <point x="416" y="567"/>
      <point x="481" y="666"/>
      <point x="523" y="785" type="curve"/>
      <point x="506" y="793" type="line"/>
      <point x="465" y="678"/>
      <point x="407" y="585"/>
      <point x="324" y="499" type="curve"/>
    </contour>
    <contour>
      <point x="927" y="494" type="line"/>
      <point x="875" y="604"/>
      <point x="816" y="704"/>
      <point x="750" y="791" type="curve"/>
      <point x="736" y="780" type="line"/>
      <point x="800" y="694"/>
      <point x="860" y="595"/>
      <point x="913" y="483" type="curve"/>
    </contour>
    <contour>
      <point x="949" y="-29" type="line"/>
      <point x="734" y="71"/>
      <point x="534" y="256"/>
      <point x="459" y="523" type="curve"/>
      <point x="441" y="515" type="line"/>
      <point x="514" y="248"/>
      <point x="724" y="56"/>
      <point x="940" y="-45" type="curve"/>
    </contour>
    <contour>
      <point x="287" y="-45" type="line"/>
      <point x="524" y="55"/>
      <point x="729" y="246"/>
      <point x="808" y="515" type="curve"/>
      <point x="790" y="524" type="line"/>
      <point x="713" y="257"/>
      <point x="514" y="70"/>
      <point x="278" y="-29" type="curve"/>
    </contour>
    <contour>
      <point x="85" y="-48" type="line"/>
      <point x="174" y="57"/>
      <point x="238" y="178"/>
      <point x="280" y="285" type="curve"/>
      <point x="262" y="293" type="line"/>
      <point x="219" y="185"/>
      <point x="158" y="69"/>
      <point x="71" y="-35" type="curve"/>
    </contour>
    <contour>
      <point x="261" y="458" type="line"/>
      <point x="205" y="503"/>
      <point x="136" y="549"/>
      <point x="68" y="584" type="curve"/>
      <point x="57" y="568" type="line"/>
      <point x="125" y="533"/>
      <point x="191" y="489"/>
      <point x="248" y="443" type="curve"/>
    </contour>
    <contour>
      <point x="298" y="708" type="line"/>
      <point x="247" y="749"/>
      <point x="189" y="788"/>
      <point x="129" y="819" type="curve"/>
      <point x="118" y="803" type="line"/>
      <point x="180" y="771"/>
      <point x="235" y="735"/>
      <point x="287" y="693" type="curve"/>
    </contour>
  </outline>
</glyph>
<glyph name="uni3CD8" format="2">
  <advance width="1000"/>
  <unicode hex="3CD8"/>
  <outline>
    <contour>
      <point x="83" y="-56" type="line"/>
      <point x="170" y="51"/>
      <point x="230" y="173"/>
      <point x="270" y="280" type="curve"/>
      <point x="252" y="288" type="line"/>
      <point x="212" y="179"/>
      <point x="153" y="63"/>
      <point x="68" y="-43" type="curve"/>
    </contour>
    <contour>
      <point x="268" y="442" type="line"/>
      <point x="211" y="490"/>
      <point x="138" y="540"/>
      <point x="66" y="577" type="curve"/>
      <point x="55" y="562" type="line"/>
      <point x="126" y="524"/>
      <point x="195" y="477"/>
      <point x="255" y="427" type="curve"/>
    </contour>
    <contour>
      <point x="285" y="693" type="line"/>
      <point x="233" y="737"/>
      <point x="172" y="779"/>
      <point x="109" y="812" type="curve"/>
      <point x="99" y="796" type="line"/>
      <point x="162" y="762"/>
      <point x="220" y="723"/>
      <point x="274" y="678" type="curve"/>
    </contour>
    <contour>
      <point x="320" y="689" type="line"/>
      <point x="950" y="689" type="line"/>
      <point x="950" y="707" type="line"/>
      <point x="320" y="707" type="line"/>
    </contour>
    <contour>
      <point x="353" y="413" type="line"/>
      <point x="427" y="480"/>
      <point x="548" y="598"/>
      <point x="597" y="693" type="curve"/>
      <point x="580" y="704" type="line"/>
      <point x="531" y="607"/>
      <point x="412" y="490"/>
      <point x="342" y="431" type="curve"/>
    </contour>
    <contour>
      <point x="344" y="413" type="line"/>
      <point x="556" y="425"/>
      <point x="699" y="439"/>
      <point x="862" y="465" type="curve"/>
      <point x="851" y="480" type="line"/>
      <point x="691" y="458"/>
      <point x="555" y="442"/>
      <point x="342" y="431" type="curve"/>
    </contour>
    <contour>
      <point x="931" y="382" type="line"/>
      <point x="876" y="468"/>
      <point x="818" y="546"/>
      <point x="754" y="625" type="curve"/>
      <point x="739" y="614" type="line"/>
      <point x="806" y="534"/>
      <point x="864" y="456"/>
      <point x="917" y="372" type="curve"/>
    </contour>
    <contour>
      <point x="255" y="-70" type="line"/>
      <point x="436" y="15"/>
      <point x="513" y="162"/>
      <point x="513" y="291" type="curve" smooth="yes"/>
      <point x="513" y="364" type="line"/>
      <point x="493" y="364" type="line"/>
      <point x="493" y="291" type="line" smooth="yes"/>
      <point x="493" y="168"/>
      <point x="424" y="33"/>
      <point x="245" y="-54" type="curve"/>
    </contour>
    <contour>
      <point x="914" y="-54" type="line" smooth="yes"/>
      <point x="934" y="-54"/>
      <point x="942" y="-46"/>
      <point x="942" y="-26" type="curve" smooth="yes"/>
      <point x="942" y="185" type="line"/>
      <point x="922" y="191" type="line"/>
      <point x="922" y="-36" type="line"/>
      <point x="765" y="-36" type="line" smooth="yes"/>
      <point x="723" y="-36"/>
      <point x="711" y="-28"/>
      <point x="711" y="14" type="curve" smooth="yes"/>
      <point x="711" y="367" type="line"/>
      <point x="691" y="367" type="line"/>
      <point x="691" y="16" type="line" smooth="yes"/>
      <point x="691" y="-39"/>
      <point x="710" y="-54"/>
      <point x="765" y="-54" type="curve" smooth="yes"/>
    </contour>
    <contour>
      <point x="667" y="704" type="line"/>
      <point x="640" y="754"/>
      <point x="612" y="800"/>
      <point x="579" y="840" type="curve"/>
      <point x="563" y="830" type="line"/>
      <point x="593" y="788"/>
      <point x="622" y="743"/>
      <point x="650" y="695" type="curve"/>
    </contour>
  </outline>
</glyph>
<glyph name="uni3CDA" format="2">
  <advance width="1000"/>
  <unicode hex="3CDA"/>
  <outline>
    <contour>
      <point x="308" y="-61" type="line"/>
      <point x="378" y="94"/>
      <point x="392" y="259"/>
      <point x="392" y="502" type="curve" smooth="yes"/>
      <point x="392" y="642" type="line"/>
      <point x="934" y="642" type="line"/>
      <point x="934" y="660" type="line"/>
      <point x="372" y="660" type="line"/>
      <point x="372" y="502" type="line" smooth="yes"/>
      <point x="372" y="259"/>
      <point x="359" y="99"/>
      <point x="291" y="-49" type="curve"/>
    </contour>
    <contour>
      <point x="659" y="710" type="line" smooth="yes"/>
      <point x="659" y="357"/>
      <point x="747" y="72"/>
      <point x="851" y="-54" type="curve" smooth="yes"/>
      <point x="864" y="-69"/>
      <point x="877" y="-64"/>
      <point x="882" y="-45" type="curve" smooth="yes"/>
      <point x="943" y="193" type="line"/>
      <point x="924" y="201" type="line"/>
      <point x="864" y="-39" type="line"/>
      <point x="762" y="85"/>
      <point x="679" y="362"/>
      <point x="679" y="710" type="curve" smooth="yes"/>
      <point x="679" y="830" type="line"/>
      <point x="659" y="830" type="line"/>
    </contour>
    <contour>
      <point x="905" y="699" type="line"/>
      <point x="873" y="746"/>
      <point x="839" y="785"/>
      <point x="801" y="818" type="curve"/>
      <point x="788" y="806" type="line"/>
      <point x="824" y="773"/>
      <point x="860" y="736"/>
      <point x="890" y="687" type="curve"/>
    </contour>
    <contour>
      <point x="502" y="-60" type="line"/>
      <point x="738" y="79"/>
      <point x="843" y="261"/>
      <point x="927" y="512" type="curve"/>
      <point x="908" y="518" type="line"/>
      <point x="831" y="271"/>
      <point x="721" y="89"/>
      <point x="491" y="-44" type="curve"/>
    </contour>
    <contour>
      <point x="391" y="397" type="line"/>
      <point x="391" y="402" type="line" smooth="yes"/>
      <point x="391" y="410"/>
      <point x="397" y="411"/>
      <point x="402" y="407" type="curve" smooth="yes"/>
      <point x="585" y="250" type="line"/>
      <point x="596" y="265" type="line"/>
      <point x="414" y="422" type="line" smooth="yes"/>
      <point x="408" y="428"/>
      <point x="402" y="425"/>
      <point x="397" y="419" type="curve" smooth="yes"/>
      <point x="393" y="414" type="line"/>
      <point x="388" y="414" type="line"/>
      <point x="388" y="419" type="line"/>
      <point x="386" y="419" type="line"/>
      <point x="386" y="397" type="line"/>
    </contour>
    <contour>
      <point x="84" y="-49" type="line"/>
      <point x="172" y="57"/>
      <point x="235" y="179"/>
      <point x="277" y="286" type="curve"/>
      <point x="258" y="294" type="line"/>
      <point x="217" y="186"/>
      <point x="156" y="69"/>
      <point x="69" y="-35" type="curve"/>
    </contour>
    <contour>
      <point x="257" y="459" type="line"/>
      <point x="203" y="503"/>
      <point x="134" y="549"/>
      <point x="67" y="584" type="curve"/>
      <point x="56" y="568" type="line"/>
      <point x="123" y="533"/>
      <point x="188" y="489"/>
      <point x="245" y="444" type="curve"/>
    </contour>
    <contour>
      <point x="310" y="699" type="line"/>
      <point x="256" y="743"/>
      <point x="192" y="786"/>
      <point x="127" y="819" type="curve"/>
      <point x="117" y="803" type="line"/>
      <point x="182" y="769"/>
      <point x="243" y="729"/>
      <point x="299" y="683" type="curve"/>
    </contour>
  </outline>
</glyph>
